<!-- Generated by IcoMoon.io -->
<svg version="1.1" xmlns="http://www.w3.org/2000/svg" width="32" height="32" viewBox="0 0 32 32">
<title>icon-discipline-listing</title>
<path fill="#6d7e82" d="M3.429 9.143c-0.631 0-1.143 0.512-1.143 1.143v18.286c0 0.631 0.512 1.143 1.143 1.143h25.143c0.631 0 1.143-0.512 1.143-1.143v-18.286c0-0.631-0.512-1.143-1.143-1.143h-25.143zM0 10.286c0-1.894 1.535-3.429 3.429-3.429h25.143c1.894 0 3.429 1.535 3.429 3.429v18.286c0 1.894-1.535 3.429-3.429 3.429h-25.143c-1.894 0-3.429-1.535-3.429-3.429v-18.286z"></path>
<path fill="#6d7e82" d="M11.429 2.286c-0.303 0-0.594 0.12-0.808 0.335s-0.335 0.505-0.335 0.808v3.429h11.428v-3.429c0-0.303-0.12-0.594-0.335-0.808s-0.505-0.335-0.808-0.335h-9.143zM9.004 1.004c0.643-0.643 1.515-1.004 2.424-1.004h9.143c0.909 0 1.781 0.361 2.424 1.004s1.004 1.515 1.004 2.424v4.571c0 0.631-0.512 1.143-1.143 1.143h-13.714c-0.631 0-1.143-0.512-1.143-1.143v-4.571c0-0.909 0.361-1.781 1.004-2.424z"></path>
<path fill="#00ba7c" d="M6.857 16c0-0.631 0.512-1.143 1.143-1.143h16c0.631 0 1.143 0.512 1.143 1.143s-0.512 1.143-1.143 1.143h-16c-0.631 0-1.143-0.512-1.143-1.143z"></path>
<path fill="#00ba7c" d="M6.857 22.857c0-0.631 0.512-1.143 1.143-1.143h16c0.631 0 1.143 0.512 1.143 1.143s-0.512 1.143-1.143 1.143h-16c-0.631 0-1.143-0.512-1.143-1.143z"></path>
</svg>
