<!-- Generated by IcoMoon.io -->
<svg version="1.1" xmlns="http://www.w3.org/2000/svg" width="32" height="32" viewBox="0 0 32 32">
<title>icon-preview</title>
<path fill="#9ea9ac" d="M2.604 15.239c-0.187 0.209-0.29 0.48-0.29 0.761s0.103 0.551 0.29 0.761c1.164 1.252 3.053 3.077 5.402 4.583 2.359 1.513 5.103 2.656 7.994 2.656s5.635-1.143 7.994-2.656c2.348-1.507 4.238-3.331 5.402-4.583 0.187-0.209 0.29-0.48 0.29-0.761s-0.103-0.551-0.29-0.761c-1.164-1.252-3.053-3.077-5.402-4.583-2.359-1.513-5.104-2.656-7.994-2.656s-5.635 1.143-7.994 2.656c-2.349 1.507-4.238 3.331-5.402 4.583zM6.771 8.732c2.567-1.647 5.742-3.018 9.229-3.018s6.662 1.371 9.229 3.018c2.573 1.651 4.612 3.627 5.849 4.958l0.011 0.012-0 0c0.569 0.63 0.883 1.448 0.883 2.297s-0.315 1.667-0.883 2.297l-0.011 0.012-0-0c-1.237 1.331-3.276 3.308-5.849 4.958-2.567 1.647-5.742 3.018-9.229 3.018s-6.662-1.371-9.229-3.018c-2.573-1.65-4.612-3.627-5.849-4.958l-0.011-0.012 0-0c-0.569-0.63-0.883-1.448-0.883-2.297s0.315-1.667 0.883-2.297l0.011-0.012 0 0c1.237-1.331 3.276-3.308 5.849-4.958z"></path>
<path fill="#9ea9ac" d="M16 12.571c-1.894 0-3.429 1.535-3.429 3.429s1.535 3.429 3.429 3.429c1.894 0 3.429-1.535 3.429-3.429s-1.535-3.429-3.429-3.429zM10.286 16c0-3.156 2.558-5.714 5.714-5.714s5.714 2.558 5.714 5.714c0 3.156-2.558 5.714-5.714 5.714s-5.714-2.558-5.714-5.714z"></path>
</svg>
