<!-- Generated by IcoMoon.io -->
<svg version="1.1" xmlns="http://www.w3.org/2000/svg" width="32" height="32" viewBox="0 0 32 32">
<title>icon-class-summary</title>
<path fill="#6d7e82" d="M3.429 2.286c-0.631 0-1.143 0.512-1.143 1.143v25.143c0 0.631 0.512 1.143 1.143 1.143h25.143c0.631 0 1.143-0.512 1.143-1.143v-25.143c0-0.631-0.512-1.143-1.143-1.143h-25.143zM0 3.429c0-1.894 1.535-3.429 3.429-3.429h25.143c1.894 0 3.429 1.535 3.429 3.429v25.143c0 1.894-1.535 3.429-3.429 3.429h-25.143c-1.894 0-3.429-1.535-3.429-3.429v-25.143z"></path>
<path fill="#00ba7c" d="M9.143 10.286c0-0.631 0.512-1.143 1.143-1.143h11.429c0.631 0 1.143 0.512 1.143 1.143s-0.512 1.143-1.143 1.143h-11.429c-0.631 0-1.143-0.512-1.143-1.143z"></path>
<path fill="#00ba7c" d="M9.143 16c0-0.631 0.512-1.143 1.143-1.143h11.429c0.631 0 1.143 0.512 1.143 1.143s-0.512 1.143-1.143 1.143h-11.429c-0.631 0-1.143-0.512-1.143-1.143z"></path>
<path fill="#00ba7c" d="M9.143 21.714c0-0.631 0.512-1.143 1.143-1.143h11.429c0.631 0 1.143 0.512 1.143 1.143s-0.512 1.143-1.143 1.143h-11.429c-0.631 0-1.143-0.512-1.143-1.143z"></path>
</svg>
