<!-- Generated by IcoMoon.io -->
<svg version="1.1" xmlns="http://www.w3.org/2000/svg" width="32" height="32" viewBox="0 0 32 32">
<title>icon-student-listing</title>
<path fill="#00ba7c" d="M16 2.286c-3.471 0-6.286 2.814-6.286 6.286s2.814 6.286 6.286 6.286c3.471 0 6.286-2.814 6.286-6.286s-2.814-6.286-6.286-6.286zM7.429 8.571c0-4.734 3.838-8.571 8.571-8.571s8.571 3.838 8.571 8.571-3.838 8.571-8.571 8.571c-4.734 0-8.571-3.838-8.571-8.571z"></path>
<path fill="#6d7e82" d="M6.584 22.479c2.734-1.995 6.031-3.069 9.416-3.069s6.682 1.075 9.416 3.069c2.734 1.995 4.764 4.806 5.798 8.029 0.111 0.348 0.050 0.728-0.165 1.022s-0.558 0.469-0.923 0.469h-28.252c-0.365 0-0.708-0.174-0.923-0.469s-0.276-0.675-0.165-1.022c1.034-3.223 3.064-6.034 5.798-8.029zM16 21.696c-2.9 0-5.726 0.921-8.069 2.63-1.91 1.394-3.42 3.252-4.392 5.388h24.922c-0.972-2.136-2.482-3.995-4.392-5.388-2.343-1.709-5.168-2.63-8.069-2.63z"></path>
</svg>
