<!-- Generated by IcoMoon.io -->
<svg version="1.1" xmlns="http://www.w3.org/2000/svg" width="32" height="32" viewBox="0 0 32 32">
<title>icon-sort</title>
<path fill="#9ea9ac" d="M22.5 3.857c0.631 0 1.143 0.512 1.143 1.143v24.143c0 0.631-0.512 1.143-1.143 1.143s-1.143-0.512-1.143-1.143v-24.143c0-0.631 0.512-1.143 1.143-1.143z"></path>
<path fill="#9ea9ac" d="M21.692 4.192c0.446-0.446 1.17-0.446 1.616 0l6.5 6.5c0.446 0.446 0.446 1.17 0 1.616s-1.17 0.446-1.616 0l-5.692-5.692-5.692 5.692c-0.446 0.446-1.17 0.446-1.616 0s-0.446-1.17 0-1.616l6.5-6.5z"></path>
<path fill="#9ea9ac" d="M9.5 30.143c-0.631 0-1.143-0.512-1.143-1.143v-24.143c0-0.631 0.512-1.143 1.143-1.143s1.143 0.512 1.143 1.143v24.143c0 0.631-0.512 1.143-1.143 1.143z"></path>
<path fill="#9ea9ac" d="M10.308 29.808c-0.446 0.446-1.17 0.446-1.616 0l-6.5-6.5c-0.446-0.446-0.446-1.17 0-1.616s1.17-0.446 1.616 0l5.692 5.692 5.692-5.692c0.446-0.446 1.17-0.446 1.616 0s0.446 1.17 0 1.616l-6.5 6.5z"></path>
</svg>
