<!-- Generated by IcoMoon.io -->
<svg version="1.1" xmlns="http://www.w3.org/2000/svg" width="32" height="32" viewBox="0 0 32 32">
<title>icon-student-license</title>
<path fill="#00ba7c" d="M8 1.143c0-0.631 0.512-1.143 1.143-1.143h9.143c0.631 0 1.143 0.512 1.143 1.143v16c0 0.462-0.278 0.879-0.706 1.056s-0.919 0.079-1.245-0.248l-3.763-3.763-3.763 3.763c-0.327 0.327-0.818 0.425-1.245 0.248s-0.705-0.594-0.705-1.056v-16zM10.286 2.286v12.098l2.62-2.62c0.446-0.446 1.17-0.446 1.616 0l2.62 2.62v-12.098h-6.857z"></path>
<path fill="#6d7e82" d="M5.714 2.286c-0.303 0-0.594 0.12-0.808 0.335s-0.335 0.505-0.335 0.808v25.143c0 0.303 0.12 0.594 0.335 0.808s0.505 0.335 0.808 0.335h20.571c0.303 0 0.594-0.12 0.808-0.335s0.335-0.505 0.335-0.808v-18.955l-7.33-7.331h-14.384zM3.29 1.004c0.643-0.643 1.515-1.004 2.424-1.004h14.857c0.303 0 0.594 0.12 0.808 0.335l8 8c0.214 0.214 0.335 0.505 0.335 0.808v19.429c0 0.909-0.361 1.781-1.004 2.424s-1.515 1.004-2.424 1.004h-20.571c-0.909 0-1.781-0.361-2.424-1.004s-1.004-1.515-1.004-2.424v-25.143c0-0.909 0.361-1.781 1.004-2.424z"></path>
</svg>
