<!-- Generated by IcoMoon.io -->
<svg version="1.1" xmlns="http://www.w3.org/2000/svg" width="32" height="32" viewBox="0 0 32 32">
<title>icon-self-entered</title>
<path fill="#9ea9ac" d="M3.97 0.171c0.337-0.208 0.757-0.227 1.112-0.051l12.461 6.219c0.571 0.288 1.050 0.729 1.383 1.274 0.332 0.544 0.507 1.17 0.503 1.807-0 0.001-0 0.003-0 0.004l-1.143-0.008h1.143v19.158c-0.002 0.585-0.153 1.159-0.439 1.668s-0.698 0.938-1.196 1.243c-0.498 0.306-1.066 0.479-1.65 0.503s-1.163-0.1-1.685-0.363l-9.144-4.572c-0.565-0.285-1.041-0.721-1.374-1.259s-0.51-1.159-0.512-1.792v-22.861c0-0.396 0.205-0.764 0.542-0.972zM5.714 2.991v21.007c0.001 0.211 0.060 0.417 0.171 0.596s0.269 0.324 0.456 0.419c0 0-0-0 0 0l9.144 4.572c0.174 0.088 0.367 0.129 0.562 0.121s0.384-0.066 0.55-0.168c0.166-0.102 0.303-0.245 0.399-0.415s0.146-0.36 0.146-0.555v-19.16c0.001-0.213-0.057-0.422-0.168-0.604s-0.27-0.328-0.459-0.424c-0.001-0 0.001 0 0 0l-10.802-5.391z"></path>
<path fill="#9ea9ac" d="M3.429 1.143c0-0.631 0.512-1.143 1.143-1.143h20.571c0.909 0 1.781 0.361 2.424 1.004s1.004 1.515 1.004 2.424v20.571c0 0.909-0.361 1.781-1.004 2.424s-1.515 1.004-2.424 1.004h-6.857c-0.631 0-1.143-0.512-1.143-1.143s0.512-1.143 1.143-1.143h6.857c0.303 0 0.594-0.12 0.808-0.335s0.335-0.505 0.335-0.808v-20.571c0-0.303-0.121-0.594-0.335-0.808s-0.505-0.335-0.808-0.335h-20.571c-0.631 0-1.143-0.512-1.143-1.143z"></path>
</svg>
