<!-- Generated by IcoMoon.io -->
<svg version="1.1" xmlns="http://www.w3.org/2000/svg" width="32" height="32" viewBox="0 0 32 32">
<title>icon-nine-to-five</title>
<path fill="#00ba7c" d="M16 26.286c0.631 0 1.143 0.512 1.143 1.143v3.428c0 0.631-0.512 1.143-1.143 1.143s-1.143-0.512-1.143-1.143v-3.428c0-0.631 0.512-1.143 1.143-1.143z"></path>
<path fill="#00ba7c" d="M8.717 23.283c0.446 0.446 0.446 1.17 0 1.616l-2.423 2.423c-0.446 0.446-1.17 0.446-1.616 0s-0.446-1.17 0-1.616l2.423-2.423c0.446-0.446 1.17-0.446 1.616 0z"></path>
<path fill="#6d7e82" d="M9.877 1.218c1.941-0.804 4.022-1.218 6.123-1.218v1.143l0.003-1.143c3.162 0.008 6.25 0.951 8.877 2.711s4.674 4.257 5.885 7.178 1.53 6.134 0.918 9.236c-0.612 3.102-2.128 5.953-4.357 8.195-0.214 0.215-0.505 0.337-0.809 0.337s-0.595-0.12-0.81-0.335l-10.18-10.18h-14.384c-0.303 0-0.594-0.12-0.808-0.335s-0.335-0.505-0.335-0.808c0-4.243 1.686-8.313 4.686-11.314 1.486-1.486 3.25-2.664 5.191-3.468zM15.999 2.286c-1.8 0-3.583 0.355-5.247 1.044s-3.176 1.699-4.449 2.973c-2.301 2.301-3.7 5.336-3.969 8.555h13.667c0.303 0 0.594 0.12 0.808 0.335l9.67 9.67c1.489-1.772 2.511-3.897 2.962-6.18 0.525-2.659 0.251-5.415-0.787-7.919s-2.793-4.645-5.045-6.154c-2.252-1.508-4.899-2.317-7.609-2.324z"></path>
</svg>
