<!-- Generated by IcoMoon.io -->
<svg version="1.1" xmlns="http://www.w3.org/2000/svg" width="32" height="32" viewBox="0 0 32 32">
<title>icon-graph-bar</title>
<path fill="#6d7e82" d="M0 1.143c0-0.631 0.512-1.143 1.143-1.143h9.143c0.631 0 1.143 0.512 1.143 1.143v25.857c0 0.631-0.512 1.143-1.143 1.143s-1.143-0.512-1.143-1.143v-24.714h-6.857v28.571c0 0.631-0.512 1.143-1.143 1.143s-1.143-0.512-1.143-1.143v-29.714z"></path>
<path fill="#6d7e82" d="M18.286 8c0-0.631 0.512-1.143 1.143-1.143h9.143c0.631 0 1.143 0.512 1.143 1.143v22.857c0 0.631-0.512 1.143-1.143 1.143s-1.143-0.512-1.143-1.143v-21.714h-6.857v18.857c0 0.631-0.512 1.143-1.143 1.143s-1.143-0.512-1.143-1.143v-20z"></path>
<path fill="#00ba7c" d="M9.143 14.857c0-0.631 0.512-1.143 1.143-1.143h9.143c0.631 0 1.143 0.512 1.143 1.143v14.862h-2.286v-13.719h-6.857v13.719h-2.286v-14.862z"></path>
<path fill="#00ba7c" d="M0 30.857c0-0.631 0.512-1.143 1.143-1.143h29.714c0.631 0 1.143 0.512 1.143 1.143s-0.512 1.143-1.143 1.143h-29.714c-0.631 0-1.143-0.512-1.143-1.143z"></path>
</svg>
