<!-- Generated by IcoMoon.io -->
<svg version="1.1" xmlns="http://www.w3.org/2000/svg" width="32" height="32" viewBox="0 0 32 32">
<title>icon-class-listing</title>
<path fill="#00ba7c" d="M9.143 0c0.631 0 1.143 0.512 1.143 1.143v29.714c0 0.631-0.512 1.143-1.143 1.143s-1.143-0.512-1.143-1.143v-29.714c0-0.631 0.512-1.143 1.143-1.143z"></path>
<path fill="#6d7e82" d="M4.571 2.286c-0.303 0-0.594 0.12-0.808 0.335s-0.335 0.505-0.335 0.808v25.143c0 0.303 0.12 0.594 0.335 0.808s0.505 0.335 0.808 0.335h22.857c0.303 0 0.594-0.12 0.808-0.335s0.335-0.505 0.335-0.808v-25.143c0-0.303-0.12-0.594-0.335-0.808s-0.505-0.335-0.808-0.335h-22.857zM2.147 1.004c0.643-0.643 1.515-1.004 2.424-1.004h22.857c0.909 0 1.781 0.361 2.424 1.004s1.004 1.515 1.004 2.424v25.143c0 0.909-0.361 1.781-1.004 2.424s-1.515 1.004-2.424 1.004h-22.857c-0.909 0-1.781-0.361-2.424-1.004s-1.004-1.515-1.004-2.424v-25.143c0-0.909 0.361-1.781 1.004-2.424z"></path>
<path fill="#00ba7c" d="M16 9.143c0-0.631 0.512-1.143 1.143-1.143h4.571c0.631 0 1.143 0.512 1.143 1.143s-0.512 1.143-1.143 1.143h-4.571c-0.631 0-1.143-0.512-1.143-1.143z"></path>
</svg>
