<!-- Generated by IcoMoon.io -->
<svg version="1.1" xmlns="http://www.w3.org/2000/svg" width="32" height="32" viewBox="0 0 32 32">
<title>icon-saved-views1</title>
<path fill="#9ea9ac" d="M6.857 9.143c-0.303 0-0.594 0.12-0.808 0.335s-0.335 0.505-0.335 0.808v18.087l6.113-5.24c0.428-0.367 1.060-0.367 1.488 0l6.113 5.24v-18.087c0-0.303-0.12-0.594-0.335-0.808s-0.505-0.335-0.808-0.335h-11.429zM4.433 7.861c0.643-0.643 1.515-1.004 2.424-1.004h11.429c0.909 0 1.781 0.361 2.424 1.004s1.004 1.515 1.004 2.424v20.572c0 0.446-0.26 0.852-0.665 1.038s-0.882 0.12-1.221-0.171l-7.256-6.22-7.256 6.22c-0.339 0.291-0.816 0.357-1.221 0.171s-0.665-0.592-0.665-1.038v-20.572c0-0.909 0.361-1.781 1.004-2.424z"></path>
<path fill="#9ea9ac" d="M10.286 1.143c0-0.631 0.512-1.143 1.143-1.143h13.714c0.909 0 1.781 0.361 2.424 1.004s1.004 1.515 1.004 2.424v20.571c0 0.631-0.512 1.143-1.143 1.143s-1.143-0.512-1.143-1.143v-20.571c0-0.303-0.12-0.594-0.335-0.808s-0.505-0.335-0.808-0.335h-13.714c-0.631 0-1.143-0.512-1.143-1.143z"></path>
</svg>
