<!-- Generated by IcoMoon.io -->
<svg version="1.1" xmlns="http://www.w3.org/2000/svg" width="32" height="32" viewBox="0 0 32 32">
<title>icon-student-certification</title>
<path fill="#6d7e82" d="M6.857 6.857c-0.631 0-1.143 0.512-1.143 1.143v20.572c0 0.631 0.512 1.143 1.143 1.143h13.714c0.631 0 1.143-0.512 1.143-1.143v-20.572c0-0.631-0.512-1.143-1.143-1.143h-13.714zM3.429 8c0-1.894 1.535-3.429 3.429-3.429h13.714c1.894 0 3.429 1.535 3.429 3.429v20.572c0 1.893-1.535 3.429-3.429 3.429h-13.714c-1.894 0-3.429-1.535-3.429-3.429v-20.572z"></path>
<path fill="#00ba7c" d="M8 11.428c0-0.631 0.512-1.143 1.143-1.143h9.143c0.631 0 1.143 0.512 1.143 1.143s-0.512 1.143-1.143 1.143h-9.143c-0.631 0-1.143-0.512-1.143-1.143z"></path>
<path fill="#00ba7c" d="M8 17.143c0-0.631 0.512-1.143 1.143-1.143h9.143c0.631 0 1.143 0.512 1.143 1.143s-0.512 1.143-1.143 1.143h-9.143c-0.631 0-1.143-0.512-1.143-1.143z"></path>
<path fill="#00ba7c" d="M8 22.857c0-0.631 0.512-1.143 1.143-1.143h4.571c0.631 0 1.143 0.512 1.143 1.143s-0.512 1.143-1.143 1.143h-4.571c-0.631 0-1.143-0.512-1.143-1.143z"></path>
<path fill="#6d7e82" d="M9.143 1.143c0-0.631 0.512-1.143 1.143-1.143h14.857c0.909 0 1.781 0.361 2.424 1.004s1.004 1.515 1.004 2.424v21.714c0 0.631-0.512 1.143-1.143 1.143s-1.143-0.512-1.143-1.143v-21.714c0-0.303-0.12-0.594-0.335-0.808s-0.505-0.335-0.808-0.335h-14.857c-0.631 0-1.143-0.512-1.143-1.143z"></path>
</svg>
