<!-- Generated by IcoMoon.io -->
<svg version="1.1" xmlns="http://www.w3.org/2000/svg" width="32" height="32" viewBox="0 0 32 32">
<title>icon-course-activity1</title>
<path fill="#9ea9ac" d="M-0 30.857c0-0.631 0.512-1.143 1.143-1.143h29.714c0.631 0 1.143 0.512 1.143 1.143s-0.512 1.143-1.143 1.143h-29.714c-0.631 0-1.143-0.512-1.143-1.143z"></path>
<path fill="#9ea9ac" d="M-0 1.143c0-0.631 0.512-1.143 1.143-1.143h9.143c0.631 0 1.143 0.512 1.143 1.143v29.714c0 0.631-0.512 1.143-1.143 1.143s-1.143-0.512-1.143-1.143v-28.571h-6.857v28.571c0 0.631-0.512 1.143-1.143 1.143s-1.143-0.512-1.143-1.143v-29.714z"></path>
<path fill="#9ea9ac" d="M18.286 8c0-0.631 0.512-1.143 1.143-1.143h9.143c0.631 0 1.143 0.512 1.143 1.143v22.857c0 0.631-0.512 1.143-1.143 1.143s-1.143-0.512-1.143-1.143v-21.714h-6.857v21.714c0 0.631-0.512 1.143-1.143 1.143s-1.143-0.512-1.143-1.143v-22.857z"></path>
<path fill="#9ea9ac" d="M9.142 14.857c0-0.631 0.512-1.143 1.143-1.143h9.143c0.631 0 1.143 0.512 1.143 1.143v16c0 0.631-0.512 1.143-1.143 1.143s-1.143-0.512-1.143-1.143v-14.857h-6.857v14.857c0 0.631-0.512 1.143-1.143 1.143s-1.143-0.512-1.143-1.143v-16z"></path>
<path fill="#9ea9ac" d="M10.076 29.717h9.347v2.28h-9.347v-2.28z"></path>
</svg>
