<!-- Generated by IcoMoon.io -->
<svg version="1.1" xmlns="http://www.w3.org/2000/svg" width="32" height="32" viewBox="0 0 32 32">
<title>icon-scheduled-reports</title>
<path fill="#6d7e82" d="M1.004 5.576c0.643-0.643 1.515-1.004 2.424-1.004 0.631 0 1.143 0.512 1.143 1.143s-0.512 1.143-1.143 1.143c-0.303 0-0.594 0.12-0.808 0.335s-0.335 0.505-0.335 0.808v20.571c0 0.303 0.12 0.594 0.335 0.808s0.505 0.335 0.808 0.335h25.143c0.303 0 0.594-0.12 0.808-0.335s0.335-0.505 0.335-0.808v-20.571c0-0.303-0.12-0.594-0.335-0.808s-0.505-0.335-0.808-0.335h-4.571c-0.631 0-1.143-0.512-1.143-1.143s0.512-1.143 1.143-1.143h4.571c0.909 0 1.781 0.361 2.424 1.004s1.004 1.515 1.004 2.424v20.571c0 0.909-0.361 1.781-1.004 2.424s-1.515 1.004-2.424 1.004h-25.143c-0.909 0-1.781-0.361-2.424-1.004s-1.004-1.515-1.004-2.424v-20.571c0-0.909 0.361-1.781 1.004-2.424z"></path>
<path fill="#6d7e82" d="M8 0c0.631 0 1.143 0.512 1.143 1.143v9.143c0 0.631-0.512 1.143-1.143 1.143s-1.143-0.512-1.143-1.143v-9.143c0-0.631 0.512-1.143 1.143-1.143z"></path>
<path fill="#6d7e82" d="M24 0c0.631 0 1.143 0.512 1.143 1.143v9.143c0 0.631-0.512 1.143-1.143 1.143s-1.143-0.512-1.143-1.143v-9.143c0-0.631 0.512-1.143 1.143-1.143z"></path>
<path fill="#6d7e82" d="M6.857 5.714c0-0.631 0.512-1.143 1.143-1.143h11.429c0.631 0 1.143 0.512 1.143 1.143s-0.512 1.143-1.143 1.143h-11.429c-0.631 0-1.143-0.512-1.143-1.143z"></path>
<path fill="#00ba7c" d="M5.714 17.143c0-1.262 1.023-2.286 2.286-2.286s2.286 1.023 2.286 2.286c0 1.262-1.023 2.286-2.286 2.286s-2.286-1.023-2.286-2.286z"></path>
<path fill="#00ba7c" d="M13.714 17.143c0-1.262 1.023-2.286 2.286-2.286s2.286 1.023 2.286 2.286c0 1.262-1.023 2.286-2.286 2.286s-2.286-1.023-2.286-2.286z"></path>
<path fill="#00ba7c" d="M21.714 17.143c0-1.262 1.023-2.286 2.286-2.286s2.286 1.023 2.286 2.286c0 1.262-1.023 2.286-2.286 2.286s-2.286-1.023-2.286-2.286z"></path>
<path fill="#00ba7c" d="M5.714 24c0-1.262 1.023-2.286 2.286-2.286s2.286 1.023 2.286 2.286c0 1.262-1.023 2.286-2.286 2.286s-2.286-1.023-2.286-2.286z"></path>
</svg>
