<!-- Generated by IcoMoon.io -->
<svg version="1.1" xmlns="http://www.w3.org/2000/svg" width="32" height="32" viewBox="0 0 32 32">
<title>icon-list-bullets</title>
<path fill="#6d7e82" d="M0 5.714c0-1.262 1.023-2.286 2.286-2.286s2.286 1.023 2.286 2.286c0 1.262-1.023 2.286-2.286 2.286s-2.286-1.023-2.286-2.286z"></path>
<path fill="#6d7e82" d="M9.143 5.714c0-0.631 0.512-1.143 1.143-1.143h20.571c0.631 0 1.143 0.512 1.143 1.143s-0.512 1.143-1.143 1.143h-20.571c-0.631 0-1.143-0.512-1.143-1.143z"></path>
<path fill="#00ba7c" d="M0 16c0-1.262 1.023-2.286 2.286-2.286s2.286 1.023 2.286 2.286c0 1.262-1.023 2.286-2.286 2.286s-2.286-1.023-2.286-2.286z"></path>
<path fill="#00ba7c" d="M9.143 16c0-0.631 0.512-1.143 1.143-1.143h20.571c0.631 0 1.143 0.512 1.143 1.143s-0.512 1.143-1.143 1.143h-20.571c-0.631 0-1.143-0.512-1.143-1.143z"></path>
<path fill="#6d7e82" d="M0 26.286c0-1.262 1.023-2.286 2.286-2.286s2.286 1.023 2.286 2.286c0 1.262-1.023 2.286-2.286 2.286s-2.286-1.023-2.286-2.286z"></path>
<path fill="#6d7e82" d="M9.143 26.286c0-0.631 0.512-1.143 1.143-1.143h20.571c0.631 0 1.143 0.512 1.143 1.143s-0.512 1.143-1.143 1.143h-20.571c-0.631 0-1.143-0.512-1.143-1.143z"></path>
</svg>
