<!-- Generated by IcoMoon.io -->
<svg version="1.1" xmlns="http://www.w3.org/2000/svg" width="32" height="32" viewBox="0 0 32 32">
<title>icon-learning-item-listing</title>
<path fill="#6d7e82" d="M-0.002 5.716c0-1.262 1.023-2.286 2.286-2.286s2.286 1.023 2.286 2.286c0 1.262-1.023 2.286-2.286 2.286s-2.286-1.023-2.286-2.286z"></path>
<path fill="#6d7e82" d="M9.138 5.716c0-0.631 0.512-1.143 1.143-1.143h20.572c0.631 0 1.143 0.512 1.143 1.143s-0.512 1.143-1.143 1.143h-20.572c-0.631 0-1.143-0.512-1.143-1.143z"></path>
<path fill="#00ba7c" d="M-0.002 16.002c0-1.262 1.023-2.286 2.286-2.286s2.286 1.023 2.286 2.286c0 1.262-1.023 2.286-2.286 2.286s-2.286-1.023-2.286-2.286z"></path>
<path fill="#00ba7c" d="M9.138 16.002c0-0.631 0.512-1.143 1.143-1.143h20.572c0.631 0 1.143 0.512 1.143 1.143s-0.512 1.143-1.143 1.143h-20.572c-0.631 0-1.143-0.512-1.143-1.143z"></path>
<path fill="#6d7e82" d="M-0.002 26.288c0-1.262 1.023-2.286 2.286-2.286s2.286 1.023 2.286 2.286c0 1.262-1.023 2.286-2.286 2.286s-2.286-1.023-2.286-2.286z"></path>
<path fill="#6d7e82" d="M9.138 26.287c0-0.631 0.512-1.143 1.143-1.143h20.572c0.631 0 1.143 0.512 1.143 1.143s-0.512 1.143-1.143 1.143h-20.572c-0.631 0-1.143-0.512-1.143-1.143z"></path>
</svg>
