<!-- Generated by IcoMoon.io -->
<svg version="1.1" xmlns="http://www.w3.org/2000/svg" width="32" height="32" viewBox="0 0 32 32">
<title>icon-role-feature-assg</title>
<path fill="#00ba7c" d="M16 8c-2.525 0-4.571 2.047-4.571 4.571s2.047 4.571 4.571 4.571c2.525 0 4.571-2.047 4.571-4.571s-2.047-4.571-4.571-4.571zM9.143 12.572c0-3.787 3.070-6.857 6.857-6.857s6.857 3.070 6.857 6.857c0 3.787-3.070 6.857-6.857 6.857s-6.857-3.070-6.857-6.857z"></path>
<path fill="#00ba7c" d="M16 22.86c-1.764 0-3.499 0.454-5.038 1.318s-2.829 2.109-3.746 3.616c-0.328 0.539-1.032 0.71-1.571 0.381s-0.71-1.032-0.381-1.571c1.122-1.842 2.699-3.364 4.579-4.42s4-1.611 6.157-1.611 4.277 0.555 6.157 1.611c1.88 1.056 3.457 2.578 4.579 4.42 0.328 0.539 0.158 1.242-0.381 1.571s-1.242 0.158-1.571-0.381c-0.918-1.507-2.208-2.752-3.747-3.616s-3.273-1.318-5.037-1.318z"></path>
<path fill="#6d7e82" d="M16 2.286c-7.574 0-13.714 6.14-13.714 13.714s6.14 13.714 13.714 13.714c7.574 0 13.714-6.14 13.714-13.714s-6.14-13.714-13.714-13.714zM0 16c0-8.837 7.163-16 16-16s16 7.163 16 16c0 8.837-7.163 16-16 16s-16-7.163-16-16z"></path>
</svg>
