<!-- Generated by IcoMoon.io -->
<svg version="1.1" xmlns="http://www.w3.org/2000/svg" width="32" height="32" viewBox="0 0 32 32">
<title>icon-search</title>
<path fill="#9ea9ac" d="M13.542 2.958c-5.845 0-10.584 4.739-10.584 10.584s4.739 10.584 10.584 10.584c5.845 0 10.584-4.739 10.584-10.584s-4.739-10.584-10.584-10.584zM0.807 13.542c0-7.034 5.702-12.735 12.735-12.735s12.735 5.702 12.735 12.735c0 7.034-5.702 12.736-12.735 12.736s-12.735-5.702-12.735-12.736z"></path>
<path fill="#9ea9ac" d="M21.019 21.021c0.42-0.42 1.101-0.42 1.521 0l8.067 8.067c0.42 0.42 0.42 1.101 0 1.521s-1.101 0.42-1.521 0l-8.067-8.067c-0.42-0.42-0.42-1.101 0-1.521z"></path>
</svg>
