<!-- Generated by IcoMoon.io -->
<svg version="1.1" xmlns="http://www.w3.org/2000/svg" width="32" height="32" viewBox="0 0 32 32">
<title>icon-assg-progress</title>
<path fill="#6d7e82" d="M3.428 2.286c-0.631 0-1.143 0.512-1.143 1.143v25.143c0 0.631 0.512 1.143 1.143 1.143h25.143c0.631 0 1.143-0.512 1.143-1.143v-25.143c0-0.631-0.512-1.143-1.143-1.143h-25.143zM-0 3.429c0-1.894 1.535-3.429 3.429-3.429h25.143c1.894 0 3.429 1.535 3.429 3.429v25.143c0 1.894-1.535 3.429-3.429 3.429h-25.143c-1.894 0-3.429-1.535-3.429-3.429v-25.143z"></path>
<path fill="#00ba7c" d="M16.664 10.499c0.514 0.367 0.633 1.081 0.266 1.594l-5.714 8c-0.195 0.273-0.501 0.447-0.836 0.475s-0.665-0.093-0.902-0.331l-3.429-3.429c-0.446-0.446-0.446-1.17 0-1.616s1.17-0.446 1.616 0l2.475 2.475 4.93-6.902c0.367-0.514 1.081-0.633 1.594-0.266z"></path>
<path fill="#6d7e82" d="M17.142 17.143c0-0.631 0.512-1.143 1.143-1.143h6.857c0.631 0 1.143 0.512 1.143 1.143s-0.512 1.143-1.143 1.143h-6.857c-0.631 0-1.143-0.512-1.143-1.143z"></path>
</svg>
