<!-- Generated by IcoMoon.io -->
<svg version="1.1" xmlns="http://www.w3.org/2000/svg" width="32" height="32" viewBox="0 0 32 32">
<title>icon-run</title>
<path fill="#b8c2c4" d="M4.821 1.337c0.567-0.315 1.204-0.48 1.853-0.48 0.658 0 1.305 0.17 1.878 0.494 0.012 0.007 0.024 0.014 0.036 0.021l18.611 11.426c0.575 0.29 1.060 0.731 1.403 1.277 0.354 0.564 0.542 1.216 0.542 1.882s-0.188 1.318-0.542 1.882c-0.342 0.545-0.827 0.986-1.401 1.276l-18.609 11.512c-0.013 0.008-0.026 0.016-0.039 0.023-0.573 0.324-1.22 0.494-1.878 0.494-0.648 0-1.286-0.165-1.853-0.48-0.577-0.295-1.065-0.74-1.41-1.289-0.351-0.557-0.542-1.2-0.554-1.858l-0-0.020 0-23.014c0.011-0.658 0.203-1.301 0.554-1.858 0.346-0.549 0.833-0.994 1.41-1.289zM6.674 3.143c-0.264 0-0.523 0.068-0.753 0.198-0.017 0.010-0.034 0.019-0.051 0.027-0.215 0.108-0.397 0.272-0.525 0.476-0.127 0.201-0.197 0.433-0.202 0.671v22.971c0.006 0.238 0.075 0.469 0.202 0.671 0.128 0.204 0.31 0.368 0.525 0.476 0.017 0.009 0.034 0.018 0.051 0.027 0.23 0.13 0.489 0.198 0.753 0.198 0.257 0 0.511-0.065 0.736-0.189l18.633-11.526c0.034-0.021 0.069-0.040 0.105-0.058 0.212-0.102 0.391-0.262 0.516-0.462s0.192-0.43 0.192-0.666-0.067-0.466-0.192-0.666c-0.125-0.199-0.304-0.359-0.516-0.462-0.035-0.017-0.069-0.035-0.102-0.056l-18.635-11.441c-0.226-0.124-0.48-0.189-0.738-0.189z"></path>
</svg>
