<!-- Generated by IcoMoon.io -->
<svg version="1.1" xmlns="http://www.w3.org/2000/svg" width="32" height="32" viewBox="0 0 32 32">
<title>icon-book-edit</title>
<path fill="#00ba7c" d="M22.857 21.714c0-0.631 0.512-1.143 1.143-1.143h6.857c0.631 0 1.143 0.512 1.143 1.143s-0.512 1.143-1.143 1.143h-6.857c-0.631 0-1.143-0.512-1.143-1.143z"></path>
<path fill="#6d7e82" d="M3.429 2.286c-0.303 0-0.594 0.12-0.808 0.335s-0.335 0.505-0.335 0.808v25.143c0 0.303 0.12 0.594 0.335 0.808s0.505 0.335 0.808 0.335h14.857c0.631 0 1.143 0.512 1.143 1.143s-0.512 1.143-1.143 1.143h-14.857c-0.909 0-1.781-0.361-2.424-1.004s-1.004-1.515-1.004-2.424v-25.143c0-0.909 0.361-1.781 1.004-2.424s1.515-1.004 2.424-1.004h17.143c0.631 0 1.143 0.512 1.143 1.143s-0.512 1.143-1.143 1.143h-17.143z"></path>
<path fill="#00ba7c" d="M27.428 0c0.433 0 0.829 0.245 1.022 0.632l3.429 6.857c0.079 0.159 0.121 0.334 0.121 0.511v19.429c0 1.212-0.482 2.375-1.339 3.232s-2.020 1.339-3.232 1.339-2.375-0.482-3.233-1.339c-0.857-0.857-1.339-2.020-1.339-3.232v-19.429c0-0.177 0.041-0.352 0.121-0.511l3.429-6.857c0.194-0.387 0.589-0.632 1.022-0.632zM25.143 8.27v19.159c0 0.606 0.241 1.188 0.67 1.616s1.010 0.669 1.616 0.669 1.188-0.241 1.616-0.669c0.429-0.429 0.669-1.010 0.669-1.616v-19.159l-2.286-4.571-2.286 4.571z"></path>
<path fill="#6d7e82" d="M8 0c0.631 0 1.143 0.512 1.143 1.143v29.714c0 0.631-0.512 1.143-1.143 1.143s-1.143-0.512-1.143-1.143v-29.714c0-0.631 0.512-1.143 1.143-1.143z"></path>
<path fill="#6d7e82" d="M12.571 9.143c0-0.631 0.512-1.143 1.143-1.143h4.571c0.631 0 1.143 0.512 1.143 1.143s-0.512 1.143-1.143 1.143h-4.571c-0.631 0-1.143-0.512-1.143-1.143z"></path>
</svg>
