<!-- Generated by IcoMoon.io -->
<svg version="1.1" xmlns="http://www.w3.org/2000/svg" width="32" height="32" viewBox="0 0 32 32">
<title>icon-menu</title>
<path fill="#b8c2c4" d="M9.714 12.571c1.894 0 3.429 1.535 3.429 3.429s-1.535 3.429-3.429 3.429c-1.894 0-3.429-1.535-3.429-3.429s1.535-3.429 3.429-3.429z"></path>
<path fill="#b8c2c4" d="M9.714 2.286c1.894 0 3.429 1.535 3.429 3.429s-1.535 3.429-3.429 3.429c-1.894 0-3.429-1.535-3.429-3.429s1.535-3.429 3.429-3.429z"></path>
<path fill="#b8c2c4" d="M9.714 22.857c1.894 0 3.429 1.535 3.429 3.428s-1.535 3.429-3.429 3.429-3.429-1.535-3.429-3.429c0-1.893 1.535-3.428 3.429-3.428z"></path>
<path fill="#b8c2c4" d="M21.429 12.571c1.894 0 3.429 1.535 3.429 3.429s-1.535 3.429-3.429 3.429c-1.893 0-3.428-1.535-3.428-3.429s1.535-3.429 3.428-3.429z"></path>
<path fill="#b8c2c4" d="M21.429 2.286c1.894 0 3.429 1.535 3.429 3.429s-1.535 3.429-3.429 3.429c-1.893 0-3.428-1.535-3.428-3.429s1.535-3.429 3.428-3.429z"></path>
<path fill="#b8c2c4" d="M21.429 22.857c1.894 0 3.429 1.535 3.429 3.428s-1.535 3.429-3.429 3.429c-1.893 0-3.428-1.535-3.428-3.429s1.535-3.428 3.428-3.428z"></path>
</svg>
