<!-- Generated by IcoMoon.io -->
<svg version="1.1" xmlns="http://www.w3.org/2000/svg" width="32" height="32" viewBox="0 0 32 32">
<title>icon-link</title>
<path fill="#9ea9ac" d="M9.955 14.030c0.444 0.448 0.441 1.172-0.008 1.616l-7.337 7.268c-0 0 0 0 0 0-0.107 0.106-0.192 0.233-0.25 0.372s-0.088 0.289-0.088 0.439c0 0.151 0.030 0.3 0.088 0.44s0.143 0.266 0.25 0.372l0.003 0.003 4.849 4.849c0.106 0.107 0.233 0.192 0.372 0.25s0.289 0.088 0.44 0.088c0.151 0 0.3-0.030 0.44-0.088s0.265-0.143 0.371-0.25l7.269-7.337c0.444-0.448 1.168-0.452 1.616-0.008s0.452 1.168 0.008 1.616l-7.269 7.337c-0.319 0.321-0.698 0.577-1.116 0.751s-0.866 0.264-1.319 0.264-0.901-0.090-1.319-0.264c-0.417-0.174-0.795-0.428-1.114-0.749-0.001-0.001-0.001-0.001-0.002-0.002l-4.839-4.839c-0.001-0.001-0.001-0.001-0.002-0.002-0.321-0.318-0.575-0.697-0.749-1.114s-0.264-0.866-0.264-1.319c0-0.453 0.090-0.901 0.264-1.318s0.429-0.797 0.751-1.116l7.338-7.269c0.448-0.444 1.172-0.441 1.616 0.008z"></path>
<path fill="#9ea9ac" d="M22.407 0.25c0.418-0.174 0.866-0.264 1.318-0.264s0.901 0.090 1.319 0.264 0.797 0.429 1.116 0.751l0.002 0.002 4.773 4.842c0.319 0.318 0.572 0.695 0.746 1.111 0.174 0.418 0.264 0.866 0.264 1.319s-0.090 0.901-0.264 1.319c-0.174 0.417-0.428 0.796-0.749 1.114-0.001 0.001-0.001 0.001-0.002 0.002l-7.265 7.265c-0.446 0.446-1.17 0.446-1.616 0s-0.446-1.17 0-1.616l7.272-7.272c0.107-0.106 0.192-0.233 0.25-0.372s0.088-0.289 0.088-0.44c0-0.151-0.030-0.3-0.088-0.44s-0.143-0.266-0.25-0.372l-0.009-0.009-4.775-4.843c-0-0 0 0 0 0-0.106-0.107-0.233-0.192-0.372-0.25s-0.289-0.088-0.44-0.088c-0.151 0-0.3 0.030-0.439 0.088s-0.265 0.143-0.371 0.25l-7.269 7.337c-0.444 0.448-1.168 0.452-1.616 0.008s-0.452-1.168-0.008-1.616l7.269-7.337c0.319-0.321 0.698-0.577 1.116-0.751z"></path>
<path fill="#9ea9ac" d="M21.38 10.62c0.446 0.446 0.446 1.17 0 1.616l-9.143 9.143c-0.446 0.446-1.17 0.446-1.616 0s-0.446-1.17 0-1.616l9.143-9.143c0.446-0.446 1.17-0.446 1.616 0z"></path>
</svg>
