<!-- Generated by IcoMoon.io -->
<svg version="1.1" xmlns="http://www.w3.org/2000/svg" width="32" height="32" viewBox="0 0 32 32">
<title>icon-group</title>
<path fill="#9ea9ac" d="M15.393 2.415l-12.989 6.061c-0.019 0.011-0.036 0.027-0.047 0.046-0.013 0.022-0.020 0.046-0.020 0.072s0.007 0.050 0.020 0.072c0.012 0.019 0.028 0.035 0.047 0.046l12.988 6.016c0.192 0.082 0.399 0.124 0.608 0.124s0.415-0.042 0.607-0.123l12.989-6.061c0.019-0.011 0.036-0.027 0.048-0.046 0.013-0.022 0.020-0.047 0.020-0.072s-0.007-0.050-0.020-0.072c-0.012-0.019-0.028-0.035-0.047-0.046l-12.988-6.016c-0.192-0.082-0.399-0.124-0.608-0.124s-0.415 0.042-0.607 0.123zM14.47 0.323c0.483-0.21 1.003-0.318 1.529-0.318s1.047 0.108 1.529 0.318l0.025 0.011-0 0 13.028 6.034c0.012 0.005 0.023 0.011 0.034 0.017 0.401 0.202 0.737 0.511 0.972 0.893s0.36 0.822 0.36 1.27c0 0.448-0.124 0.888-0.36 1.27s-0.572 0.691-0.972 0.893l-0.031 0.015-13.057 6.093c-0.483 0.21-1.003 0.318-1.53 0.318s-1.047-0.108-1.529-0.318l-0.025-0.011 0-0-13.029-6.034c-0.012-0.005-0.023-0.011-0.034-0.017-0.4-0.202-0.737-0.511-0.972-0.893s-0.36-0.822-0.36-1.27c0-0.448 0.124-0.888 0.36-1.27s0.572-0.691 0.972-0.893l0.031-0.015 13.057-6.093z"></path>
<path fill="#9ea9ac" d="M31.895 16.322c0.264 0.573 0.014 1.252-0.56 1.516l-13.947 6.425c-0.447 0.204-0.932 0.309-1.423 0.309s-0.976-0.105-1.423-0.309l-0.006-0.003h0l-13.874-6.423c-0.573-0.265-0.822-0.944-0.557-1.517s0.944-0.822 1.517-0.557l13.871 6.421c0.148 0.067 0.309 0.102 0.472 0.102s0.324-0.035 0.473-0.102c0.001-0 0.001-0.001 0.002-0.001l13.939-6.421c0.573-0.264 1.252-0.013 1.516 0.56z"></path>
<path fill="#9ea9ac" d="M31.895 23.75c0.264 0.573 0.014 1.252-0.56 1.516l-13.947 6.425c-0.447 0.204-0.932 0.309-1.423 0.309s-0.976-0.105-1.423-0.309l-0.006-0.003h0l-13.874-6.423c-0.573-0.265-0.822-0.944-0.557-1.517s0.944-0.822 1.517-0.557l13.871 6.421c0.148 0.067 0.309 0.102 0.472 0.102s0.324-0.035 0.473-0.102c0.001-0 0.001-0 0.002-0.001l13.939-6.421c0.573-0.264 1.252-0.013 1.516 0.56z"></path>
</svg>
