<!-- Generated by IcoMoon.io -->
<svg version="1.1" xmlns="http://www.w3.org/2000/svg" width="32" height="32" viewBox="0 0 32 32">
<title>icon-security-shield</title>
<path fill="#6d7e82" d="M11.429 2.286c-2.209 0-4 1.791-4 4s1.791 4 4 4c2.209 0 4-1.791 4-4s-1.791-4-4-4zM5.143 6.286c0-3.472 2.814-6.286 6.286-6.286s6.286 2.814 6.286 6.286c0 3.471-2.814 6.286-6.286 6.286s-6.286-2.814-6.286-6.286z"></path>
<path fill="#6d7e82" d="M8.879 13.986c1.676-0.381 3.417-0.378 5.092 0.009 0.615 0.142 0.998 0.756 0.856 1.371s-0.756 0.998-1.371 0.856c-1.339-0.309-2.731-0.312-4.072-0.007s-2.595 0.908-3.669 1.766c-1.074 0.858-1.941 1.947-2.535 3.186s-0.9 2.597-0.896 3.972l0 0.004v2.286h11.429c0.631 0 1.143 0.512 1.143 1.143s-0.512 1.143-1.143 1.143h-12.571c-0.631 0-1.143-0.512-1.143-1.143v-3.427c-0.005-1.718 0.377-3.416 1.12-4.965s1.827-2.913 3.17-3.985 2.912-1.827 4.589-2.208z"></path>
<path fill="#00ba7c" d="M18.317 16h11.367c0.3-0.014 0.6 0.034 0.882 0.14 0.296 0.111 0.564 0.284 0.787 0.508s0.396 0.492 0.508 0.787c0.106 0.282 0.153 0.582 0.139 0.882v2.965c-0.003 2.279-0.689 4.505-1.971 6.39s-3.1 3.341-5.219 4.18l-0.421-1.062 0.389 1.075c-0.502 0.182-1.052 0.182-1.554 0l-0.032-0.012c-2.119-0.839-3.937-2.296-5.219-4.18s-1.969-4.112-1.971-6.391v-2.963c-0.014-0.3 0.034-0.601 0.14-0.882 0.111-0.296 0.284-0.564 0.508-0.787s0.492-0.396 0.787-0.508c0.282-0.106 0.582-0.153 0.882-0.14zM24 29.713c1.68-0.673 3.121-1.831 4.139-3.328 1.025-1.506 1.573-3.285 1.576-5.106v-2.993h-11.429v2.994c0.002 1.821 0.551 3.6 1.575 5.106 1.018 1.497 2.459 2.655 4.139 3.328z"></path>
</svg>
