<!-- Generated by IcoMoon.io -->
<svg version="1.1" xmlns="http://www.w3.org/2000/svg" width="32" height="32" viewBox="0 0 32 32">
<title>icon-share</title>
<path fill="#9ea9ac" d="M1.143 22.857c0.631 0 1.143 0.512 1.143 1.143v2.286c0 0.909 0.361 1.781 1.004 2.424s1.515 1.004 2.424 1.004h20.572c0.909 0 1.781-0.361 2.424-1.004s1.004-1.515 1.004-2.424v-2.286c0-0.631 0.512-1.143 1.143-1.143s1.143 0.512 1.143 1.143v2.286c0 1.516-0.602 2.969-1.674 4.041s-2.525 1.674-4.041 1.674h-20.572c-1.516 0-2.969-0.602-4.041-1.674s-1.674-2.525-1.674-4.041v-2.286c0-0.631 0.512-1.143 1.143-1.143z"></path>
<path fill="#9ea9ac" d="M16 0c0.334 0 0.651 0.146 0.868 0.399l6.857 8c0.411 0.479 0.355 1.201-0.124 1.611s-1.201 0.355-1.612-0.124l-5.989-6.988-5.989 6.988c-0.411 0.479-1.132 0.535-1.611 0.124s-0.535-1.132-0.124-1.611l6.857-8c0.217-0.253 0.534-0.399 0.868-0.399z"></path>
<path fill="#9ea9ac" d="M16 0c0.631 0 1.143 0.512 1.143 1.143v20.571c0 0.631-0.512 1.143-1.143 1.143s-1.143-0.512-1.143-1.143v-20.571c0-0.631 0.512-1.143 1.143-1.143z"></path>
</svg>
