<!-- Generated by IcoMoon.io -->
<svg version="1.1" xmlns="http://www.w3.org/2000/svg" width="32" height="32" viewBox="0 0 32 32">
<title>icon-class-progress</title>
<path fill="#00ba7c" d="M1.402 7.275c0.217-0.265 0.541-0.418 0.884-0.418h27.429c0.342 0 0.667 0.154 0.884 0.418s0.304 0.613 0.237 0.949l-2.286 11.429c-0.107 0.534-0.576 0.919-1.121 0.919h-6.857c-0.631 0-1.143-0.512-1.143-1.143s0.512-1.143 1.143-1.143h5.92l1.829-9.143h-24.64l1.829 9.143h5.92c0.631 0 1.143 0.512 1.143 1.143s-0.512 1.143-1.143 1.143h-6.857c-0.545 0-1.014-0.384-1.121-0.919l-2.286-11.429c-0.067-0.336 0.020-0.684 0.237-0.949z"></path>
<path fill="#00ba7c" d="M16 0c0.631 0 1.143 0.512 1.143 1.143v6.857c0 0.631-0.512 1.143-1.143 1.143s-1.143-0.512-1.143-1.143v-6.857c0-0.631 0.512-1.143 1.143-1.143z"></path>
<path fill="#6d7e82" d="M11.428 13.714c0.631 0 1.143 0.512 1.143 1.143v16c0 0.631-0.512 1.143-1.143 1.143s-1.143-0.512-1.143-1.143v-16c0-0.631 0.512-1.143 1.143-1.143z"></path>
<path fill="#6d7e82" d="M20.571 13.714c0.631 0 1.143 0.512 1.143 1.143v16c0 0.631-0.512 1.143-1.143 1.143s-1.143-0.512-1.143-1.143v-16c0-0.631 0.512-1.143 1.143-1.143z"></path>
<path fill="#6d7e82" d="M8 30.857c0-0.631 0.512-1.143 1.143-1.143h13.714c0.631 0 1.143 0.512 1.143 1.143s-0.512 1.143-1.143 1.143h-13.714c-0.631 0-1.143-0.512-1.143-1.143z"></path>
<path fill="#00ba7c" d="M6.857 8l0-0.007 0.001-0.044c0.001-0.041 0.003-0.105 0.007-0.189 0.008-0.167 0.024-0.411 0.057-0.705 0.066-0.594 0.196-1.366 0.448-2.122 0.522-1.565 1.389-2.647 2.916-2.647 0.631 0 1.143-0.512 1.143-1.143s-0.512-1.143-1.143-1.143c-3.045 0-4.463 2.346-5.084 4.21-0.319 0.958-0.475 1.901-0.552 2.592-0.039 0.349-0.058 0.641-0.068 0.849-0.005 0.104-0.008 0.187-0.009 0.247l-0.001 0.070-0 0.021-0 0.007v0.003c0 0 0 0.001 1.143 0.001h-1.143c0 0.631 0.512 1.143 1.143 1.143s1.143-0.511 1.143-1.142v-0.001z"></path>
<path fill="#00ba7c" d="M20.571 1.143c0-0.631 0.512-1.143 1.143-1.143 3.045 0 4.463 2.346 5.084 4.21 0.32 0.958 0.475 1.901 0.552 2.592 0.039 0.349 0.058 0.641 0.068 0.849 0.005 0.104 0.007 0.187 0.009 0.247l0.001 0.070 0 0.021v0.010c0 0 0 0.001-1.143 0.001h1.143c0 0.631-0.512 1.143-1.143 1.143s-1.142-0.511-1.143-1.141c0-0 0-0 0-0s0-0 0-0 0-0 0-0 0 0 0 0v0-0.008l-0.001-0.044c-0.001-0.041-0.003-0.105-0.007-0.189-0.008-0.167-0.024-0.411-0.057-0.705-0.066-0.594-0.196-1.366-0.448-2.122-0.522-1.565-1.389-2.647-2.916-2.647-0.631 0-1.143-0.512-1.143-1.143z"></path>
</svg>
