<!-- Generated by IcoMoon.io -->
<svg version="1.1" xmlns="http://www.w3.org/2000/svg" width="32" height="32" viewBox="0 0 32 32">
<title>icon-curriculum-listing</title>
<path fill="#6d7e82" d="M9.143 0c0.631 0 1.143 0.512 1.143 1.143v6.857c0 0.631-0.512 1.143-1.143 1.143s-1.143-0.512-1.143-1.143v-6.857c0-0.631 0.512-1.143 1.143-1.143z"></path>
<path fill="#6d7e82" d="M16 0c0.631 0 1.143 0.512 1.143 1.143v6.857c0 0.631-0.512 1.143-1.143 1.143s-1.143-0.512-1.143-1.143v-6.857c0-0.631 0.512-1.143 1.143-1.143z"></path>
<path fill="#6d7e82" d="M22.857 0c0.631 0 1.143 0.512 1.143 1.143v6.857c0 0.631-0.512 1.143-1.143 1.143s-1.143-0.512-1.143-1.143v-6.857c0-0.631 0.512-1.143 1.143-1.143z"></path>
<path fill="#6d7e82" d="M3.429 5.714c-0.631 0-1.143 0.512-1.143 1.143v21.714c0 0.631 0.512 1.143 1.143 1.143h25.143c0.631 0 1.143-0.512 1.143-1.143v-21.714c0-0.631-0.512-1.143-1.143-1.143h-25.143zM0 6.857c0-1.894 1.535-3.429 3.429-3.429h25.143c1.894 0 3.429 1.535 3.429 3.429v21.714c0 1.894-1.535 3.429-3.429 3.429h-25.143c-1.894 0-3.429-1.535-3.429-3.429v-21.714z"></path>
<path fill="#00ba7c" d="M6.857 16c0-0.631 0.512-1.143 1.143-1.143h16c0.631 0 1.143 0.512 1.143 1.143s-0.512 1.143-1.143 1.143h-16c-0.631 0-1.143-0.512-1.143-1.143z"></path>
<path fill="#00ba7c" d="M6.857 22.857c0-0.631 0.512-1.143 1.143-1.143h9.143c0.631 0 1.143 0.512 1.143 1.143s-0.512 1.143-1.143 1.143h-9.143c-0.631 0-1.143-0.512-1.143-1.143z"></path>
</svg>
