<!-- Generated by IcoMoon.io -->
<svg version="1.1" xmlns="http://www.w3.org/2000/svg" width="32" height="32" viewBox="0 0 32 32">
<title>icon-favorite-award</title>
<path fill="#6d7e82" d="M15.703 2.286c-5.049 0-9.143 4.093-9.143 9.143s4.093 9.143 9.143 9.143c5.049 0 9.143-4.093 9.143-9.143s-4.093-9.143-9.143-9.143zM4.274 11.429c0-6.312 5.117-11.429 11.429-11.429s11.429 5.117 11.429 11.429-5.117 11.429-11.429 11.429c-6.312 0-11.429-5.117-11.429-11.429z"></path>
<path fill="#00ba7c" d="M15.703 8c-1.894 0-3.429 1.535-3.429 3.429s1.535 3.429 3.429 3.429c1.894 0 3.429-1.535 3.429-3.429s-1.535-3.429-3.429-3.429zM9.988 11.429c0-3.156 2.558-5.714 5.714-5.714s5.714 2.558 5.714 5.714c0 3.156-2.558 5.714-5.714 5.714s-5.714-2.558-5.714-5.714z"></path>
<path fill="#6d7e82" d="M8.713 17.392c0.493 0.394 0.574 1.113 0.18 1.606l-5.876 7.362c-0.002 0.003-0.004 0.006-0.004 0.009s-0.001 0.007 0 0.010c0.001 0.003 0.002 0.007 0.004 0.009s0.003 0.003 0.004 0.004l7.559 3.301c0 0-0 0 0 0 0.005 0.002 0.011 0.004 0.016 0.005l2.006-8.433c0.146-0.614 0.762-0.993 1.376-0.847s0.993 0.762 0.847 1.376l-2.014 8.468c-0.079 0.318-0.225 0.616-0.428 0.874s-0.458 0.469-0.749 0.62c-0.024 0.012-0.047 0.023-0.072 0.034-0.299 0.13-0.621 0.197-0.946 0.197s-0.648-0.067-0.946-0.197l-7.622-3.329c-0.315-0.149-0.593-0.368-0.811-0.639s-0.373-0.589-0.451-0.929-0.079-0.693-0.001-1.033c0.077-0.339 0.231-0.657 0.448-0.929 0-0-0 0 0 0l5.874-7.359c0.394-0.493 1.113-0.574 1.606-0.18z"></path>
<path fill="#6d7e82" d="M23.042 16.953c0.496-0.39 1.215-0.304 1.605 0.192l6.114 7.779c0.224 0.268 0.381 0.585 0.46 0.926 0.079 0.342 0.078 0.697-0.006 1.038-0.076 0.34-0.228 0.658-0.446 0.93-0.222 0.278-0.506 0.5-0.829 0.649l-0.018 0.008-7.538 3.312c-0.297 0.133-0.619 0.202-0.944 0.202-0.328 0-0.652-0.070-0.951-0.205l-0.021-0.010c-0.304-0.145-0.573-0.355-0.786-0.616s-0.366-0.565-0.448-0.892l-0.003-0.011-2.057-8.571c-0.147-0.614 0.231-1.231 0.845-1.378s1.231 0.231 1.378 0.845l2.052 8.551c0 0 0 0 0 0l0.011-0.005 7.525-3.306c0.001-0.007 0.003-0.014 0.005-0.021-0.005-0.006-0.009-0.012-0.014-0.017l-6.126-7.794c-0.39-0.496-0.304-1.215 0.192-1.605z"></path>
</svg>
