<!-- Generated by IcoMoon.io -->
<svg version="1.1" xmlns="http://www.w3.org/2000/svg" width="32" height="32" viewBox="0 0 32 32">
<title>icon-arrow</title>
<path fill="#9ea9ac" d="M0 16c0-0.631 0.512-1.143 1.143-1.143h29.714c0.631 0 1.143 0.512 1.143 1.143s-0.512 1.143-1.143 1.143h-29.714c-0.631 0-1.143-0.512-1.143-1.143z"></path>
<path fill="#9ea9ac" d="M22.049 7.192c0.446-0.446 1.17-0.446 1.616 0l8 8c0.446 0.446 0.446 1.17 0 1.616l-8 8c-0.446 0.446-1.17 0.446-1.616 0s-0.446-1.17 0-1.616l7.192-7.192-7.192-7.192c-0.446-0.446-0.446-1.17 0-1.616z"></path>
</svg>
