<!-- Generated by IcoMoon.io -->
<svg version="1.1" xmlns="http://www.w3.org/2000/svg" width="32" height="32" viewBox="0 0 32 32">
<title>icon-assg-listing</title>
<path fill="#6d7e82" d="M12.621 4.232c-0.208-0.158-0.464-0.24-0.725-0.232l-0.033 0h-8.434c-0.303 0-0.594 0.12-0.808 0.335s-0.335 0.505-0.335 0.808v21.714c0 0.303 0.12 0.594 0.335 0.808s0.505 0.335 0.808 0.335h25.143c0.303 0 0.594-0.12 0.808-0.335s0.335-0.505 0.335-0.808v-17.143c0-0.303-0.12-0.594-0.335-0.808s-0.505-0.335-0.808-0.335h-13.714c-0.524 0-0.982-0.357-1.109-0.866l-0.709-2.838c-0.063-0.254-0.21-0.478-0.418-0.636zM11.848 1.714c0.777-0.018 1.537 0.228 2.156 0.698 0.623 0.474 1.066 1.146 1.254 1.906 0 0.001 0 0.001 0 0.002l0.491 1.965h12.822c0.909 0 1.781 0.361 2.424 1.004s1.004 1.515 1.004 2.424v17.143c0 0.909-0.361 1.781-1.004 2.424s-1.515 1.004-2.424 1.004h-25.143c-0.909 0-1.781-0.361-2.424-1.004s-1.004-1.515-1.004-2.424v-21.714c0-0.909 0.361-1.781 1.004-2.424s1.515-1.004 2.424-1.004h8.419z"></path>
<path fill="#00ba7c" d="M21.177 12.174c0.535 0.335 0.698 1.040 0.363 1.575l-5.714 9.143c-0.164 0.262-0.427 0.447-0.729 0.512s-0.617 0.005-0.875-0.166l-3.429-2.286c-0.525-0.35-0.667-1.060-0.317-1.585s1.060-0.667 1.585-0.317l2.449 1.633 5.091-8.145c0.335-0.535 1.040-0.698 1.575-0.363z"></path>
</svg>
