<!-- Generated by IcoMoon.io -->
<svg version="1.1" xmlns="http://www.w3.org/2000/svg" width="32" height="32" viewBox="0 0 32 32">
<title>icon-user-check</title>
<path fill="#00ba7c" d="M31.542 17.371c0.505 0.378 0.608 1.095 0.229 1.6l-9.417 12.572c-0.182 0.243-0.452 0.403-0.752 0.446s-0.605-0.035-0.847-0.217l-6.286-4.709c-0.505-0.378-0.608-1.095-0.229-1.6s1.095-0.608 1.6-0.23l5.371 4.023 8.732-11.657c0.378-0.505 1.095-0.608 1.6-0.23z"></path>
<path fill="#6d7e82" d="M11.429 2.286c-2.209 0-4 1.791-4 4s1.791 4 4 4c2.209 0 4-1.791 4-4s-1.791-4-4-4zM5.143 6.286c0-3.472 2.814-6.286 6.286-6.286s6.286 2.814 6.286 6.286c0 3.471-2.814 6.286-6.286 6.286s-6.286-2.814-6.286-6.286z"></path>
<path fill="#6d7e82" d="M13.21 16.184c-1.772-0.352-3.61-0.171-5.279 0.52s-3.097 1.862-4.102 3.364c-1.005 1.502-1.542 3.268-1.543 5.075v2.285h4.571c0.631 0 1.143 0.512 1.143 1.143s-0.512 1.143-1.143 1.143h-5.714c-0.631 0-1.143-0.512-1.143-1.143v-3.429c0.002-2.259 0.673-4.467 1.929-6.345s3.040-3.341 5.127-4.205 4.383-1.090 6.599-0.65c2.216 0.44 4.251 1.527 5.849 3.123 0.447 0.446 0.447 1.17 0.001 1.616s-1.17 0.447-1.616 0.001c-1.279-1.277-2.907-2.147-4.679-2.499z"></path>
</svg>
