<!-- Generated by IcoMoon.io -->
<svg version="1.1" xmlns="http://www.w3.org/2000/svg" width="32" height="32" viewBox="0 0 32 32">
<title>icon-group-listing</title>
<path fill="#6d7e82" d="M5.714 2.286c-0.303 0-0.594 0.12-0.808 0.335s-0.335 0.505-0.335 0.808v25.143c0 0.303 0.12 0.594 0.335 0.808s0.505 0.335 0.808 0.335h20.571c0.303 0 0.594-0.12 0.808-0.335s0.335-0.505 0.335-0.808v-15.527l-10.759-10.759h-10.955zM3.29 1.004c0.643-0.643 1.515-1.004 2.424-1.004h11.429c0.303 0 0.594 0.12 0.808 0.335l11.429 11.429c0.214 0.214 0.335 0.505 0.335 0.808v16c0 0.909-0.361 1.781-1.004 2.424s-1.515 1.004-2.424 1.004h-20.571c-0.909 0-1.781-0.361-2.424-1.004s-1.004-1.515-1.004-2.424v-25.143c0-0.909 0.361-1.781 1.004-2.424z"></path>
<path fill="#00ba7c" d="M9.143 10.286c0-0.631 0.512-1.143 1.143-1.143h4.571c0.631 0 1.143 0.512 1.143 1.143s-0.512 1.143-1.143 1.143h-4.571c-0.631 0-1.143-0.512-1.143-1.143z"></path>
<path fill="#00ba7c" d="M9.143 17.143c0-0.631 0.512-1.143 1.143-1.143h11.429c0.631 0 1.143 0.512 1.143 1.143s-0.512 1.143-1.143 1.143h-11.429c-0.631 0-1.143-0.512-1.143-1.143z"></path>
<path fill="#00ba7c" d="M9.143 24c0-0.631 0.512-1.143 1.143-1.143h11.429c0.631 0 1.143 0.512 1.143 1.143s-0.512 1.143-1.143 1.143h-11.429c-0.631 0-1.143-0.512-1.143-1.143z"></path>
</svg>
