<!-- Generated by IcoMoon.io -->
<svg version="1.1" xmlns="http://www.w3.org/2000/svg" width="32" height="32" viewBox="0 0 32 32">
<title>icon-student-listing</title>
<path fill="#9ea9ac" d="M16 8c-2.525 0-4.571 2.047-4.571 4.571s2.047 4.571 4.571 4.571c2.525 0 4.571-2.047 4.571-4.571s-2.047-4.571-4.571-4.571zM9.143 12.571c0-3.787 3.070-6.857 6.857-6.857s6.857 3.070 6.857 6.857c0 3.787-3.070 6.857-6.857 6.857s-6.857-3.070-6.857-6.857z"></path>
<path fill="#9ea9ac" d="M7.678 23.715c2.297-2.029 5.257-3.149 8.322-3.149s6.025 1.12 8.322 3.149c0.473 0.418 0.518 1.14 0.1 1.613s-1.14 0.518-1.613 0.1c-1.88-1.66-4.301-2.577-6.809-2.577s-4.929 0.916-6.809 2.577c-0.473 0.418-1.195 0.373-1.613-0.1s-0.373-1.195 0.1-1.613z"></path>
<path fill="#9ea9ac" d="M30.857 22.857c0.631 0 1.143 0.512 1.143 1.143v4.571c0 0.909-0.361 1.781-1.004 2.424s-1.515 1.004-2.424 1.004h-4.571c-0.631 0-1.143-0.512-1.143-1.143s0.512-1.143 1.143-1.143h4.571c0.303 0 0.594-0.12 0.808-0.335s0.335-0.505 0.335-0.808v-4.571c0-0.631 0.512-1.143 1.143-1.143z"></path>
<path fill="#9ea9ac" d="M22.857 1.143c0-0.631 0.512-1.143 1.143-1.143h4.571c0.909 0 1.781 0.361 2.424 1.004s1.004 1.515 1.004 2.424v4.571c0 0.631-0.512 1.143-1.143 1.143s-1.143-0.512-1.143-1.143v-4.571c0-0.303-0.12-0.594-0.335-0.808s-0.505-0.335-0.808-0.335h-4.571c-0.631 0-1.143-0.512-1.143-1.143z"></path>
<path fill="#9ea9ac" d="M3.429 2.286c-0.303 0-0.594 0.12-0.808 0.335s-0.335 0.505-0.335 0.808v4.571c0 0.631-0.512 1.143-1.143 1.143s-1.143-0.512-1.143-1.143v-4.571c0-0.909 0.361-1.781 1.004-2.424s1.515-1.004 2.424-1.004h4.571c0.631 0 1.143 0.512 1.143 1.143s-0.512 1.143-1.143 1.143h-4.571z"></path>
<path fill="#9ea9ac" d="M1.143 22.857c0.631 0 1.143 0.512 1.143 1.143v4.571c0 0.303 0.12 0.594 0.335 0.808s0.505 0.335 0.808 0.335h4.571c0.631 0 1.143 0.512 1.143 1.143s-0.512 1.143-1.143 1.143h-4.571c-0.909 0-1.781-0.361-2.424-1.004s-1.004-1.515-1.004-2.424v-4.571c0-0.631 0.512-1.143 1.143-1.143z"></path>
</svg>
