<!-- Generated by IcoMoon.io -->
<svg version="1.1" xmlns="http://www.w3.org/2000/svg" width="32" height="32" viewBox="0 0 32 32">
<title>icon-save</title>
<path fill="#9ea9ac" d="M7.192 0.335c0.214-0.214 0.505-0.335 0.808-0.335h20.571c0.909 0 1.781 0.361 2.424 1.004s1.004 1.515 1.004 2.424v25.143c0 0.909-0.361 1.781-1.004 2.424s-1.515 1.004-2.424 1.004h-25.143c-0.909 0-1.781-0.361-2.424-1.004s-1.004-1.515-1.004-2.424v-20.571c0-0.303 0.12-0.594 0.335-0.808l6.857-6.857zM8.473 2.286l-6.188 6.188v20.098c0 0.303 0.12 0.594 0.335 0.808s0.505 0.335 0.808 0.335h25.143c0.303 0 0.594-0.12 0.808-0.335s0.335-0.505 0.335-0.808v-25.143c0-0.303-0.12-0.594-0.335-0.808s-0.505-0.335-0.808-0.335h-20.098z"></path>
<path fill="#9ea9ac" d="M6.857 19.429c0-0.631 0.512-1.143 1.143-1.143h16c0.631 0 1.143 0.512 1.143 1.143v11.429c0 0.631-0.512 1.143-1.143 1.143h-16c-0.631 0-1.143-0.512-1.143-1.143v-11.429zM9.143 20.571v9.143h13.714v-9.143h-13.714z"></path>
<path fill="#9ea9ac" d="M9.143 1.143c0-0.631 0.512-1.143 1.143-1.143h13.714c0.631 0 1.143 0.512 1.143 1.143v9.143c0 0.631-0.512 1.143-1.143 1.143h-13.714c-0.631 0-1.143-0.512-1.143-1.143v-9.143zM11.429 2.286v6.857h11.429v-6.857h-11.429z"></path>
</svg>
