<!-- Generated by IcoMoon.io -->
<svg version="1.1" xmlns="http://www.w3.org/2000/svg" width="32" height="32" viewBox="0 0 32 32">
<title>icon-report</title>
<path fill="#9ea9ac" d="M6.857 4.571c-0.303 0-0.594 0.12-0.808 0.335s-0.335 0.505-0.335 0.808v22.857c0 0.303 0.12 0.594 0.335 0.808s0.505 0.335 0.808 0.335h18.286c0.303 0 0.594-0.12 0.808-0.335s0.335-0.505 0.335-0.808v-22.857c0-0.303-0.12-0.594-0.335-0.808s-0.505-0.335-0.808-0.335h-3.428c-0.631 0-1.143-0.512-1.143-1.143s0.512-1.143 1.143-1.143h3.428c0.909 0 1.781 0.361 2.424 1.004s1.004 1.515 1.004 2.424v22.857c0 0.909-0.361 1.781-1.004 2.424s-1.515 1.004-2.424 1.004h-18.286c-0.909 0-1.781-0.361-2.424-1.004s-1.004-1.515-1.004-2.424v-22.857c0-0.909 0.361-1.781 1.004-2.424s1.515-1.004 2.424-1.004h3.429c0.631 0 1.143 0.512 1.143 1.143s-0.512 1.143-1.143 1.143h-3.429z"></path>
<path fill="#9ea9ac" d="M12.571 2.286c-0.631 0-1.143 0.512-1.143 1.143v1.143c0 0.631 0.512 1.143 1.143 1.143h6.857c0.631 0 1.143-0.512 1.143-1.143v-1.143c0-0.631-0.512-1.143-1.143-1.143h-6.857zM9.143 3.429c0-1.894 1.535-3.429 3.429-3.429h6.857c1.893 0 3.429 1.535 3.429 3.429v1.143c0 1.894-1.535 3.429-3.429 3.429h-6.857c-1.894 0-3.429-1.535-3.429-3.429v-1.143z"></path>
<path fill="#9ea9ac" d="M9.143 12.571c0-0.631 0.512-1.143 1.143-1.143h11.429c0.631 0 1.143 0.512 1.143 1.143s-0.512 1.143-1.143 1.143h-11.429c-0.631 0-1.143-0.512-1.143-1.143z"></path>
<path fill="#9ea9ac" d="M9.143 18.286c0-0.631 0.512-1.143 1.143-1.143h11.429c0.631 0 1.143 0.512 1.143 1.143s-0.512 1.143-1.143 1.143h-11.429c-0.631 0-1.143-0.512-1.143-1.143z"></path>
<path fill="#9ea9ac" d="M9.143 24c0-0.631 0.512-1.143 1.143-1.143h11.429c0.631 0 1.143 0.512 1.143 1.143s-0.512 1.143-1.143 1.143h-11.429c-0.631 0-1.143-0.512-1.143-1.143z"></path>
</svg>
