<!-- Generated by IcoMoon.io -->
<svg version="1.1" xmlns="http://www.w3.org/2000/svg" width="32" height="32" viewBox="0 0 32 32">
<title>icon-script</title>
<path fill="#6d7e82" d="M26.857 2.286c-0.758 0-1.485 0.301-2.020 0.837s-0.837 1.263-0.837 2.020v1.714h5.714v-1.714c0-0.758-0.301-1.484-0.837-2.020s-1.263-0.837-2.020-0.837zM23.22 1.506c0.964-0.964 2.273-1.506 3.637-1.506s2.672 0.542 3.636 1.506c0.965 0.964 1.506 2.273 1.506 3.637v1.714c0 0.606-0.241 1.188-0.669 1.616s-1.010 0.669-1.616 0.669h-6.857c-0.631 0-1.143-0.512-1.143-1.143v-2.857c0-1.364 0.542-2.672 1.506-3.637z"></path>
<path fill="#00ba7c" d="M12.571 9.143c0-0.631 0.512-1.143 1.143-1.143h3.429c0.631 0 1.143 0.512 1.143 1.143s-0.512 1.143-1.143 1.143h-3.429c-0.631 0-1.143-0.512-1.143-1.143z"></path>
<path fill="#00ba7c" d="M10.286 16c0-0.631 0.512-1.143 1.143-1.143h5.714c0.631 0 1.143 0.512 1.143 1.143s-0.512 1.143-1.143 1.143h-5.714c-0.631 0-1.143-0.512-1.143-1.143z"></path>
<path fill="#00ba7c" d="M10.286 22.857c0-0.631 0.512-1.143 1.143-1.143h5.714c0.631 0 1.143 0.512 1.143 1.143s-0.512 1.143-1.143 1.143h-5.714c-0.631 0-1.143-0.512-1.143-1.143z"></path>
<path fill="#6d7e82" d="M10.286 2.286c-0.909 0-1.781 0.361-2.424 1.004s-1.004 1.515-1.004 2.424v20.572c0 1.243-0.405 2.445-1.143 3.428h12.571c0.909 0 1.781-0.361 2.424-1.004s1.004-1.515 1.004-2.424l-0-18.286c0-0.631 0.512-1.143 1.143-1.143s1.143 0.512 1.143 1.143v18.286c0 1.515-0.602 2.969-1.674 4.041s-2.525 1.674-4.041 1.674h-17.143c-0.631 0-1.143-0.512-1.143-1.143s0.512-1.143 1.143-1.143c0.909 0 1.781-0.361 2.424-1.004s1.004-1.515 1.004-2.424v-20.572c0-1.516 0.602-2.969 1.674-4.041s2.525-1.674 4.041-1.674h16.571c0.631 0 1.143 0.512 1.143 1.143s-0.512 1.143-1.143 1.143h-16.571z"></path>
</svg>
