<!-- Generated by IcoMoon.io -->
<svg version="1.1" xmlns="http://www.w3.org/2000/svg" width="32" height="32" viewBox="0 0 32 32">
<title>icon-filter</title>
<path fill="#9ea9ac" d="M0.334 0.335c0.214-0.214 0.505-0.335 0.808-0.335h29.714c0.303 0 0.594 0.12 0.808 0.335s0.335 0.505 0.334 0.808c-0.001 3.602-1.216 7.099-3.449 9.926-2.045 2.588-4.833 4.477-7.979 5.418v9.798c0 0.382-0.191 0.739-0.509 0.951l-6.857 4.571c-0.351 0.234-0.802 0.256-1.173 0.057s-0.604-0.586-0.604-1.008v-14.37c-3.146-0.942-5.935-2.83-7.979-5.418-2.233-2.827-3.448-6.323-3.449-9.926-0-0.303 0.12-0.594 0.335-0.808zM2.333 2.285c0.225 2.679 1.232 5.243 2.909 7.366 1.914 2.424 4.589 4.131 7.594 4.848 0.515 0.123 0.878 0.583 0.878 1.112v13.11l4.571-3.048v-10.063c0-0.529 0.363-0.989 0.878-1.112 3.004-0.716 5.679-2.424 7.594-4.848 1.677-2.123 2.684-4.687 2.909-7.366h-27.333z"></path>
</svg>
