<!-- Generated by IcoMoon.io -->
<svg version="1.1" xmlns="http://www.w3.org/2000/svg" width="32" height="32" viewBox="0 0 32 32">
<title>icon-curriculum-progress</title>
<path fill="#6d7e82" d="M4.92 0.857c0 0-0 0 0 0h16.544c0.785 0 1.558 0.282 2.144 0.813 0.59 0.535 0.945 1.285 0.945 2.095v3.248c0 0.631-0.512 1.143-1.143 1.143s-1.143-0.512-1.143-1.143v-3.248c0-0.127-0.055-0.274-0.195-0.402-0.144-0.131-0.361-0.221-0.609-0.221h-16.545c-0.496-0-0.955 0.176-1.281 0.464-0.318 0.281-0.481 0.639-0.496 0.99v14.294c0.553-0.25 1.161-0.381 1.777-0.381h3.055c0.631 0 1.143 0.512 1.143 1.143s-0.512 1.143-1.143 1.143h-3.055c-0.505 0-0.97 0.183-1.297 0.479-0.323 0.293-0.48 0.665-0.48 1.026s0.157 0.733 0.48 1.026c0.327 0.296 0.791 0.479 1.297 0.479h3.055c0.631 0 1.143 0.512 1.143 1.143s-0.512 1.143-1.143 1.143h-3.055c-1.043 0-2.064-0.375-2.832-1.072-0.772-0.7-1.23-1.675-1.23-2.719 0-0.015 0-0.030 0-0.045-0-0.009-0-0.017-0-0.026v-17.653l0-0.034c0.030-1.025 0.5-1.972 1.268-2.65 0.764-0.675 1.769-1.037 2.794-1.036z"></path>
<path fill="#00ba7c" d="M10.92 6.857c0 0-0 0 0 0h16.544c0.785 0 1.558 0.282 2.144 0.813 0.59 0.535 0.945 1.285 0.945 2.095v14.122c0 0.809-0.356 1.56-0.945 2.095-0.586 0.531-1.359 0.813-2.144 0.813h-16.545c-0.505 0-0.97 0.183-1.297 0.479-0.323 0.293-0.48 0.665-0.48 1.026s0.157 0.733 0.48 1.026c0.327 0.296 0.791 0.479 1.297 0.479h18.491c0.631 0 1.143 0.512 1.143 1.143s-0.512 1.143-1.143 1.143h-18.491c-1.043 0-2.064-0.375-2.832-1.072-0.772-0.7-1.23-1.675-1.23-2.719 0-0.015 0-0.030 0-0.045-0-0.009-0-0.017-0-0.026v-17.653l0-0.034c0.030-1.025 0.5-1.972 1.268-2.65 0.764-0.675 1.769-1.037 2.794-1.037zM9.143 24.891c0.553-0.25 1.161-0.381 1.777-0.381h16.545c0.247 0 0.465-0.090 0.609-0.221 0.14-0.127 0.195-0.275 0.195-0.402v-14.122c0-0.127-0.055-0.274-0.195-0.402-0.144-0.131-0.361-0.221-0.609-0.221h-16.545c-0.496-0-0.955 0.176-1.281 0.464-0.318 0.281-0.481 0.639-0.496 0.99v14.294z"></path>
<path fill="#00ba7c" d="M27.465 24.51c0.631 0 1.143 0.512 1.143 1.143v5.296c0 0.631-0.512 1.143-1.143 1.143s-1.143-0.512-1.143-1.143v-5.296c0-0.631 0.512-1.143 1.143-1.143z"></path>
</svg>
