<?xml version="1.0" standalone="no"?>
<!DOCTYPE svg PUBLIC "-//W3C//DTD SVG 1.1//EN" "http://www.w3.org/Graphics/SVG/1.1/DTD/svg11.dtd" >
<svg xmlns="http://www.w3.org/2000/svg">
<metadata>Generated by IcoMoon</metadata>
<defs>
<font id="report-builder" horiz-adv-x="1024">
<font-face units-per-em="1024" ascent="960" descent="-64" />
<missing-glyph horiz-adv-x="1024" />
<glyph unicode="&#x20;" horiz-adv-x="512" d="" />
<glyph unicode="&#xe900;" glyph-name="icon-course-activity1" d="M-0.010-27.43c0 20.198 16.374 36.576 36.571 36.576h950.856c20.198 0 36.57-16.378 36.57-36.576s-16.371-36.57-36.57-36.57h-950.856c-20.198 0-36.571 16.371-36.571 36.57zM-0.010 923.431c0 20.198 16.374 36.571 36.571 36.571h292.571c20.198 0 36.572-16.374 36.572-36.571v-950.855c0-20.198-16.373-36.576-36.572-36.576s-36.571 16.378-36.571 36.576v914.283h-219.429v-914.283c0-20.198-16.373-36.576-36.571-36.576s-36.571 16.378-36.571 36.576v950.855zM585.146 704.001c0 20.198 16.374 36.572 36.572 36.572h292.573c20.198 0 36.57-16.374 36.57-36.572v-731.431c0-20.198-16.371-36.57-36.57-36.57s-36.576 16.371-36.576 36.57v694.86h-219.424v-694.86c0-20.198-16.378-36.57-36.573-36.57-20.198 0-36.572 16.371-36.572 36.57v731.431zM292.553 484.571c0 20.198 16.373 36.572 36.572 36.572h292.571c20.199 0 36.57-16.373 36.57-36.572v-512.001c0-20.198-16.371-36.57-36.57-36.57-20.198 0-36.572 16.371-36.572 36.57v475.43h-219.428v-475.43c0-20.198-16.373-36.57-36.571-36.57s-36.572 16.371-36.572 36.57v512.001zM322.426 9.050h299.114v-72.96h-299.114v72.96z" />
<glyph unicode="&#xe901;" d="M109.715 886.857c-20.198 0-36.572-16.373-36.572-36.572v-804.57c0-20.198 16.373-36.57 36.572-36.57h804.57c20.198 0 36.57 16.371 36.57 36.57v804.57c0 20.198-16.371 36.572-36.57 36.572h-804.57zM0 850.285c0 60.594 49.121 109.715 109.715 109.715h804.57c60.595 0 109.715-49.121 109.715-109.715v-804.57c0-60.595-49.12-109.715-109.715-109.715h-804.57c-60.594 0-109.715 49.12-109.715 109.715v804.57z" />
<glyph unicode="&#xe902;" d="M533.244 624.044c16.435-11.74 20.242-34.58 8.502-51.016l-182.857-255.997c-6.248-8.749-16.029-14.304-26.743-15.194-10.714-0.883-21.275 2.989-28.876 10.586l-109.715 109.716c-14.282 14.282-14.282 37.438 0 51.72s37.438 14.282 51.72 0l79.188-79.188 157.764 220.87c11.74 16.436 34.58 20.243 51.016 8.503z" />
<glyph unicode="&#xe903;" d="M548.563 411.428c0 20.198 16.374 36.572 36.572 36.572h219.429c20.198 0 36.57-16.374 36.57-36.572s-16.371-36.572-36.57-36.572h-219.429c-20.198 0-36.572 16.374-36.572 36.572z" />
<glyph unicode="&#xe904;" d="M219.433 667.427c-9.699 0-19.002-3.853-25.86-10.711s-10.712-16.161-10.712-25.86v-578.773l195.628 167.68c13.696 11.744 33.905 11.744 47.601 0l195.628-167.68v578.773c0 9.699-3.853 19.001-10.712 25.86s-16.161 10.711-25.86 10.711h-365.715zM141.853 708.436c20.575 20.575 48.481 32.134 77.58 32.134h365.715c29.098 0 57.003-11.559 77.579-32.134s32.134-48.482 32.134-77.58v-658.287c0-14.278-8.314-27.258-21.286-33.222-12.979-5.971-28.243-3.84-39.085 5.459l-232.2 199.027-232.2-199.027c-10.844-9.299-26.106-11.43-39.082-5.459-12.975 5.965-21.29 18.944-21.29 33.222v658.287c0 29.098 11.559 57.004 32.134 77.58z" />
<glyph unicode="&#xe905;" d="M329.156 923.436c0 20.198 16.373 36.571 36.571 36.571h438.855c29.101 0 57.005-11.559 77.581-32.135s32.134-48.482 32.134-77.579v-658.287c0-20.198-16.371-36.57-36.57-36.57s-36.57 16.371-36.57 36.57v658.287c0 9.699-3.853 19.001-10.714 25.86s-16.16 10.711-25.862 10.711h-438.855c-20.198 0-36.571 16.374-36.571 36.572z" />
<glyph unicode="&#xe906;" d="M255.994 960c20.198 0 36.571-16.374 36.571-36.571v-292.572c0-20.198-16.373-36.572-36.571-36.572s-36.572 16.374-36.572 36.572v292.572c0 20.198 16.373 36.571 36.572 36.571z" />
<glyph unicode="&#xe907;" d="M767.994 960c20.198 0 36.57-16.374 36.57-36.571v-292.572c0-20.198-16.371-36.572-36.57-36.572s-36.57 16.374-36.57 36.572v292.572c0 20.198 16.371 36.571 36.57 36.571z" />
<glyph unicode="&#xe908;" d="M182.857 411.428c0 40.396 32.748 73.143 73.143 73.143s73.143-32.748 73.143-73.143c0-40.396-32.748-73.142-73.143-73.142s-73.143 32.747-73.143 73.142z" />
<glyph unicode="&#xe909;" d="M438.857 411.428c0 40.396 32.748 73.143 73.143 73.143s73.143-32.748 73.143-73.143c0-40.396-32.748-73.142-73.143-73.142s-73.143 32.747-73.143 73.142z" />
<glyph unicode="&#xe90a;" glyph-name="icon-clear" d="M692.922 628.924c14.285-14.282 14.285-37.438 0-51.72l-310.125-310.125c-14.282-14.285-37.438-14.285-51.72 0-14.282 14.278-14.282 37.44 0 51.718l310.127 310.127c14.278 14.282 37.44 14.282 51.718 0zM331.076 628.924c14.282 14.282 37.438 14.282 51.72 0l310.125-310.127c14.285-14.278 14.285-37.44 0-51.718-14.278-14.285-37.44-14.285-51.718 0l-310.127 310.125c-14.282 14.282-14.282 37.438 0 51.72zM512 886.857c-242.374 0-438.857-196.483-438.857-438.857s196.483-438.854 438.857-438.854c242.374 0 438.854 196.48 438.854 438.854s-196.48 438.857-438.854 438.857zM0 448c0 282.77 229.23 512 512 512s512-229.23 512-512c0-282.771-229.229-512-512-512s-512 229.229-512 512z" />
<glyph unicode="&#xe90b;" glyph-name="icon-column" d="M109.706 886.867c-20.198 0-36.571-16.374-36.571-36.572v-804.574c0-20.198 16.373-36.57 36.571-36.57h804.572c20.198 0 36.57 16.371 36.57 36.57v804.574c0 20.198-16.371 36.572-36.57 36.572h-804.572zM-0.008 850.296c0 60.593 49.121 109.714 109.714 109.714h804.572c60.595 0 109.715-49.121 109.715-109.714v-804.574c0-60.589-49.12-109.709-109.715-109.709h-804.572c-60.593 0-109.714 49.12-109.714 109.709v804.574zM548.573 960.010v-1023.997h-73.143v1023.997h73.143z" />
<glyph unicode="&#xe90c;" glyph-name="icon-copy" d="M402.286 763.246c20.198 0 36.572-16.374 36.572-36.572v-337.92c0-20.198-16.374-36.572-36.572-36.572s-36.572 16.374-36.572 36.572v337.92c0 20.198 16.374 36.572 36.572 36.572zM196.754 557.714c0 20.198 16.374 36.572 36.572 36.572h337.92c20.198 0 36.572-16.374 36.572-36.572s-16.374-36.572-36.572-36.572h-337.92c-20.198 0-36.572 16.374-36.572 36.572zM109.715 886.857c-20.198 0-36.572-16.373-36.572-36.572v-585.14c0-20.198 16.373-36.576 36.572-36.576h585.14c20.198 0 36.576 16.378 36.576 36.576v585.14c0 20.198-16.378 36.572-36.576 36.572h-585.14zM0 850.285c0 60.594 49.121 109.715 109.715 109.715h585.14c60.595 0 109.715-49.121 109.715-109.715v-585.14c0-60.595-49.12-109.715-109.715-109.715h-585.14c-60.594 0-109.715 49.12-109.715 109.715v585.14zM987.43 740.572c20.198 0 36.57-16.374 36.57-36.572v-658.285c0-29.101-11.558-57.005-32.134-77.581s-48.48-32.134-77.581-32.134h-658.285c-20.198 0-36.572 16.371-36.572 36.57s16.374 36.576 36.572 36.576h658.285c9.702 0 19.002 3.853 25.862 10.707 6.854 6.861 10.707 16.16 10.707 25.862v658.285c0 20.198 16.378 36.572 36.576 36.572z" />
<glyph unicode="&#xe90d;" glyph-name="icon-course-activity" d="M-0.010-27.43c0 20.198 16.374 36.576 36.571 36.576h950.856c20.198 0 36.57-16.378 36.57-36.576s-16.371-36.57-36.57-36.57h-950.856c-20.198 0-36.571 16.371-36.571 36.57zM-0.010 923.431c0 20.198 16.374 36.571 36.571 36.571h292.571c20.198 0 36.572-16.374 36.572-36.571v-950.855c0-20.198-16.373-36.576-36.572-36.576s-36.571 16.378-36.571 36.576v914.283h-219.429v-914.283c0-20.198-16.373-36.576-36.571-36.576s-36.571 16.378-36.571 36.576v950.855zM585.146 704.001c0 20.198 16.374 36.572 36.572 36.572h292.573c20.198 0 36.57-16.374 36.57-36.572v-731.431c0-20.198-16.371-36.57-36.57-36.57s-36.576 16.371-36.576 36.57v694.86h-219.424v-694.86c0-20.198-16.378-36.57-36.573-36.57-20.198 0-36.572 16.371-36.572 36.57v731.431zM292.553 484.571c0 20.198 16.373 36.572 36.572 36.572h292.571c20.199 0 36.57-16.373 36.57-36.572v-512.001c0-20.198-16.371-36.57-36.57-36.57-20.198 0-36.572 16.371-36.572 36.57v475.43h-219.428v-475.43c0-20.198-16.373-36.57-36.571-36.57s-36.572 16.371-36.572 36.57v512.001zM322.426 9.050h299.114v-72.96h-299.114v72.96z" />
<glyph unicode="&#xe90e;" glyph-name="icon-course-bundle" d="M349.443 740.572c0.004 0-0.004 0 0 0h529.418c25.133 0 49.862-9.020 68.614-26.027 18.867-17.114 30.246-41.135 30.246-67.034v-451.915c0-25.894-11.379-49.914-30.246-67.034-18.752-17.005-43.482-26.022-68.614-26.022h-529.43c-16.17 0-31.046-5.862-41.496-15.341-10.332-9.37-15.362-21.267-15.362-32.826 0-11.552 5.030-23.456 15.362-32.826 10.45-9.472 25.325-15.334 41.496-15.334h591.722c20.198 0 36.57-16.371 36.57-36.57s-16.371-36.57-36.57-36.57h-591.722c-33.388 0-66.040 11.994-90.633 34.298-24.711 22.413-39.368 53.613-39.368 87.002 0 0.48 0.003 0.96 0.009 1.44-0.006 0.275-0.009 0.55-0.009 0.819v564.893l0.016 1.075c0.964 32.786 16.007 63.108 40.583 84.802 24.464 21.596 56.597 33.176 89.414 33.168zM292.573 163.488c17.692 8.013 37.146 12.192 56.858 12.192h529.43c7.91 0 14.867 2.886 19.475 7.066 4.493 4.070 6.24 8.787 6.24 12.851v451.915c0 4.066-1.747 8.781-6.24 12.854-4.608 4.181-11.565 7.064-19.475 7.064h-529.43c-15.886 0.005-30.561-5.647-40.996-14.86-10.191-8.995-15.404-20.44-15.861-31.667v-457.414zM878.867 175.686c20.192 0 36.57-16.371 36.57-36.57v-169.466c0-20.198-16.378-36.57-36.57-36.57-20.198 0-36.576 16.371-36.576 36.57v169.466c0 20.198 16.378 36.57 36.576 36.57zM157.443 932.572c0.004 0-0.004 0 0 0h529.418c25.133 0 49.862-9.020 68.614-26.027 18.867-17.114 30.246-41.135 30.246-67.034v-103.922c0-20.198-16.371-36.572-36.57-36.572s-36.576 16.374-36.576 36.572v103.922c0 4.066-1.747 8.781-6.24 12.854-4.608 4.18-11.565 7.063-19.475 7.063h-529.43c-15.886 0.005-30.561-5.647-40.996-14.86-10.191-8.995-15.404-20.44-15.861-31.667v-457.416c17.692 8.015 37.146 12.196 56.858 12.196h97.768c20.198 0 36.572-16.373 36.572-36.571s-16.374-36.57-36.572-36.57h-97.768c-16.17 0-31.046-5.862-41.496-15.341-10.332-9.37-15.362-21.267-15.362-32.826 0-11.552 5.030-23.456 15.362-32.826 10.45-9.472 25.325-15.334 41.496-15.334h97.768c20.198 0 36.572-16.371 36.572-36.57s-16.374-36.57-36.572-36.57h-97.768c-33.388 0-66.040 11.994-90.633 34.298-24.711 22.413-39.368 53.613-39.368 87.002 0 0.48 0.003 0.96 0.009 1.44-0.006 0.275-0.009 0.55-0.009 0.819v564.893l0.016 1.075c0.964 32.786 16.007 63.108 40.583 84.802 24.464 21.595 56.597 33.176 89.414 33.168z" />
<glyph unicode="&#xe90f;" glyph-name="icon-course-completion" d="M219.429 813.715c-9.699 0-19.002-3.853-25.86-10.712s-10.712-16.161-10.712-25.86v-731.428c0-9.702 3.853-19.002 10.712-25.862 6.858-6.854 16.161-10.707 25.86-10.707h585.14c9.702 0 19.002 3.853 25.862 10.707 6.861 6.861 10.714 16.16 10.714 25.862v731.428c0 9.699-3.853 19.002-10.714 25.86s-16.16 10.712-25.862 10.712h-109.709c-20.198 0-36.576 16.374-36.576 36.572s16.378 36.572 36.576 36.572h109.709c29.101 0 57.005-11.559 77.581-32.135s32.134-48.481 32.134-77.58v-731.428c0-29.101-11.558-57.005-32.134-77.581s-48.48-32.134-77.581-32.134h-585.14c-29.098 0-57.004 11.558-77.58 32.134s-32.135 48.48-32.135 77.581v731.428c0 29.098 11.56 57.004 32.135 77.58s48.481 32.135 77.58 32.135h109.715c20.198 0 36.571-16.374 36.571-36.572s-16.373-36.572-36.571-36.572h-109.715zM402.273 886.857c-20.198 0-36.571-16.373-36.571-36.572v-36.571c0-20.198 16.373-36.572 36.571-36.572h219.429c20.199 0 36.57 16.373 36.57 36.572v36.571c0 20.198-16.371 36.572-36.57 36.572h-219.429zM292.559 850.285c0 60.594 49.121 109.715 109.714 109.715h219.429c60.596 0 109.716-49.121 109.716-109.715v-36.571c0-60.594-49.12-109.715-109.716-109.715h-219.429c-60.593 0-109.714 49.121-109.714 109.715v36.571zM677.651 552.151c17.133-10.705 22.336-33.268 11.635-50.396l-182.86-292.572c-5.426-8.685-14.244-14.694-24.308-16.57s-20.456 0.55-28.646 6.694l-146.286 109.715c-16.158 12.119-19.433 35.042-7.314 51.2s35.041 19.433 51.2 7.315l114.433-85.823 161.755 258.806c10.705 17.128 33.266 22.334 50.392 11.629z" />
<glyph unicode="&#xe910;" glyph-name="icon-course-evaluation" d="M32.125 927.867c20.575 20.575 48.482 32.135 77.58 32.135h804.574c29.094 0 57.005-11.559 77.574-32.135 20.576-20.575 32.134-48.482 32.134-77.58v-621.711c0-29.101-11.558-57.005-32.134-77.581-20.57-20.576-48.48-32.134-77.574-32.134h-417.238l-218.182-174.829c-10.975-8.794-26.020-10.515-38.698-4.429s-20.742 18.906-20.742 32.973v146.285h-109.715c-29.098 0-57.004 11.558-77.58 32.134s-32.135 48.48-32.135 77.581v621.711c0 29.098 11.559 57.005 32.135 77.58zM109.704 886.859c-9.699 0-19.001-3.853-25.86-10.711s-10.712-16.161-10.712-25.86v-621.711c0-9.702 3.853-19.002 10.712-25.862s16.161-10.714 25.86-10.714h146.286c20.198 0 36.572-16.371 36.572-36.57v-106.688l168.765 135.226c6.488 5.203 14.554 8.032 22.868 8.032h430.083c9.696 0 19.002 3.853 25.856 10.714 6.861 6.861 10.714 16.16 10.714 25.862v621.711c0 9.7-3.853 19.002-10.714 25.86-6.854 6.858-16.16 10.711-25.856 10.711h-804.574zM526.26 702.596c-14.189 2.822-28.895 1.373-42.26-4.163s-24.788-14.911-32.825-26.939c-8.037-12.029-12.327-26.17-12.327-40.636 0-20.198-16.374-36.572-36.572-36.572s-36.572 16.374-36.572 36.572c0 28.932 8.58 57.215 24.653 81.272s38.921 42.806 65.651 53.878c26.73 11.072 56.143 13.969 84.52 8.324s54.442-19.576 74.9-40.035c20.458-20.458 34.394-46.524 40.038-74.9 5.638-28.377 2.746-57.79-8.326-84.52s-29.823-49.577-53.88-65.651c-13.743-9.183-28.865-15.92-44.701-20.009v-4.645c0-20.198-16.373-36.571-36.571-36.571s-36.572 16.373-36.572 36.571v36.572c0 20.198 16.373 36.572 36.572 36.572 14.466 0 28.607 4.29 40.636 12.327s21.404 19.46 26.94 32.826c5.536 13.365 6.984 28.072 4.162 42.26s-9.788 27.221-20.017 37.45c-10.229 10.229-23.262 17.196-37.45 20.018zM511.982 374.86c-10.85 0-21.455-3.217-30.477-9.245s-16.052-14.595-20.205-24.619c-4.152-10.024-5.238-21.053-3.121-31.696s7.341-20.416 15.013-28.090c7.672-7.667 17.446-12.896 28.088-15.008 10.641-2.118 21.671-1.030 31.695 3.117 10.024 4.154 18.591 11.187 24.619 20.205 6.028 9.024 9.245 19.629 9.245 30.479-0.189 14.49-6.029 28.333-16.276 38.58s-24.090 16.088-38.58 16.277v0z" />
<glyph unicode="&#xe911;" glyph-name="icon-course" d="M219.443 957.074c0.004 0-0.004 0 0 0h621.702c29.094 0 57.005-11.559 77.581-32.135s32.134-48.481 32.134-77.58v-585.146c0-29.094-11.558-56.998-32.134-77.574s-48.486-32.134-77.581-32.134h-621.715c-19.399 0-38.003-7.712-51.72-21.427s-21.423-32.32-21.423-51.718c0-19.398 7.706-38.003 21.423-51.718s32.321-21.427 51.72-21.427h694.854c20.198 0 36.576-16.371 36.576-36.57s-16.378-36.57-36.576-36.57h-694.854c-38.797 0-76.006 15.411-103.44 42.848-27.434 27.43-42.846 64.64-42.846 103.437 0 0.646 0.004 1.299 0.013 1.946-0.009 0.326-0.013 0.653-0.013 0.979v731.429l0.013 0.975c1.016 38.118 16.877 74.332 44.201 100.927 27.322 26.593 63.958 41.468 102.084 41.458zM146.287 206.048c22.049 12.73 47.242 19.597 73.143 19.597h621.715c9.696 0 19.002 3.853 25.856 10.714 6.861 6.854 10.714 16.16 10.714 25.856v585.146c0 9.699-3.853 19.002-10.714 25.86-6.854 6.858-16.16 10.712-25.856 10.712h-621.715c-19.066 0.006-37.393-7.431-51.055-20.729-13.558-13.196-21.47-31.128-22.088-50.026v-607.129zM841.146 225.645c20.198 0 36.57-16.371 36.57-36.57v-219.43c0-20.198-16.371-36.57-36.57-36.57s-36.57 16.371-36.57 36.57v219.43c0 20.198 16.371 36.57 36.57 36.57z" />
<glyph unicode="&#xe912;" glyph-name="icon-curriculum" d="M3.656 886.857c0 40.396 32.747 73.143 73.143 73.143h182.857c40.396 0 73.143-32.747 73.143-73.143v-877.711c0-40.397-32.748-73.146-73.143-73.146h-182.857c-40.396 0-73.143 32.749-73.143 73.146v877.711zM259.656 886.857h-182.857v-877.711h182.857v877.711zM259.656 740.572c0 40.396 32.747 73.142 73.143 73.142h182.857c40.396 0 73.143-32.747 73.143-73.142v-731.427c0-40.397-32.748-73.146-73.143-73.146h-182.857c-40.396 0-73.143 32.749-73.143 73.146v731.427zM515.656 740.572h-182.857v-731.427h182.857v731.427zM556.448 708.419c-9.807 39.187 14.011 78.904 53.198 88.711l141.912 35.514c39.187 9.807 78.899-14.010 88.71-53.197l177.568-709.545c9.805-39.187-14.010-78.906-53.197-88.717l-141.914-35.514c-39.187-9.805-78.906 14.016-88.71 53.203l-177.568 709.545zM769.312 761.689l-141.909-35.514 177.57-709.548 141.907 35.514-177.568 709.548zM3.656 228.57c0 20.198 16.374 36.576 36.571 36.576h256c20.198 0 36.572-16.378 36.572-36.576s-16.374-36.57-36.572-36.57h-256c-20.198 0-36.571 16.371-36.571 36.57zM259.656 301.715c0 20.196 16.374 36.57 36.572 36.57h256c20.198 0 36.572-16.374 36.572-36.57 0-20.198-16.374-36.576-36.572-36.576h-256c-20.198 0-36.572 16.378-36.572 36.576zM981.216 216.96c4.896-19.59-7.014-39.45-26.611-44.346l-210.65-52.666c-19.597-4.896-39.45 7.014-44.352 26.611-4.896 19.597 7.014 39.45 26.611 44.346l210.65 52.666c19.597 4.896 39.45-7.014 44.352-26.611z" />
<glyph unicode="&#xe913;" glyph-name="icon-delete" d="M36.553 704.001c0 20.198 16.374 36.572 36.572 36.572h877.717c20.192 0 36.57-16.374 36.57-36.572s-16.378-36.572-36.57-36.572h-877.717c-20.198 0-36.572 16.374-36.572 36.572zM146.271 704.001c0 20.198 16.374 36.572 36.572 36.572h658.284c20.198 0 36.576-16.374 36.576-36.572v-658.285c0-29.101-11.558-57.005-32.134-77.581s-48.486-32.134-77.581-32.134h-512.001c-29.098 0-57.004 11.558-77.58 32.134s-32.134 48.48-32.134 77.581v658.285zM219.414 667.429v-621.714c0-9.702 3.853-19.002 10.712-25.862 6.858-6.854 16.161-10.707 25.86-10.707h512.001c9.696 0 19.002 3.853 25.856 10.707 6.861 6.861 10.714 16.16 10.714 25.862v621.714h-585.142zM511.981 886.851c-38.797 0-76.006-15.412-103.44-42.846s-42.846-64.642-42.846-103.439v-36.572c0-20.198-16.373-36.572-36.571-36.572s-36.572 16.374-36.572 36.572v36.572c0 58.196 23.118 114.008 64.269 155.159s96.963 64.269 155.16 64.269c58.196 0 114.008-23.118 155.161-64.269s64.269-96.963 64.269-155.159v-36.572c0-20.198-16.378-36.572-36.57-36.572-20.198 0-36.576 16.374-36.576 36.572v36.572c0 38.797-15.411 76.006-42.845 103.439s-64.642 42.846-103.439 42.846zM402.28 594.279c20.198 0 36.572-16.373 36.572-36.571v-402.284c0-20.198-16.374-36.576-36.572-36.576s-36.572 16.378-36.572 36.576v402.284c0 20.198 16.374 36.571 36.572 36.571zM621.686 594.279c20.195 0 36.573-16.373 36.573-36.571v-402.284c0-20.198-16.378-36.576-36.573-36.576-20.198 0-36.571 16.378-36.571 36.576v402.284c0 20.198 16.373 36.571 36.571 36.571z" />
<glyph unicode="&#xe914;" glyph-name="icon-download" d="M36.562 228.57c20.198 0 36.571-16.371 36.571-36.57v-73.139c0-29.101 11.56-57.005 32.135-77.581s48.481-32.134 77.58-32.134h658.285c29.101 0 57.005 11.558 77.581 32.134s32.134 48.48 32.134 77.581v73.139c0 20.198 16.371 36.57 36.57 36.57s36.57-16.371 36.57-36.57v-73.139c0-48.499-19.264-95.008-53.555-129.299-34.291-34.298-80.8-53.562-129.299-53.562h-658.285c-48.497 0-95.007 19.264-129.3 53.562-34.292 34.291-53.558 80.8-53.558 129.299v73.139c0 20.198 16.374 36.57 36.571 36.57zM268.762 548.904c15.335 13.145 38.422 11.369 51.567-3.967l191.661-223.604 191.663 223.604c13.146 15.336 36.23 17.112 51.565 3.967s17.114-36.232 3.968-51.567l-219.429-255.999c-6.948-8.109-17.091-12.774-27.767-12.774s-20.819 4.666-27.767 12.774l-219.428 255.999c-13.145 15.336-11.369 38.423 3.967 51.567zM511.999 959.994c20.198 0 36.572-16.374 36.572-36.571v-658.284c0-20.198-16.374-36.576-36.572-36.576s-36.572 16.378-36.572 36.576v658.284c0 20.198 16.374 36.571 36.572 36.571z" />
<glyph unicode="&#xe915;" glyph-name="icon-edit" d="M836.755 887.281c-4.832 0-9.606-0.956-14.067-2.813-4.454-1.857-8.499-4.577-11.898-8.005l-0.154-0.152v0.001l-410.751-409.318-26.252-159.608 157.146 28.285 409.681 411.118c3.43 3.4 6.15 7.444 8.006 11.901s2.816 9.237 2.816 14.065c0 4.828-0.96 9.608-2.816 14.065s-4.576 8.501-8.006 11.901l-0.102 0.106-77.638 77.638c-3.398 3.428-7.443 6.148-11.904 8.005-4.454 1.857-9.235 2.813-14.061 2.813zM794.56 951.986c13.37 5.57 27.712 8.438 42.195 8.438s28.819-2.868 42.195-8.438c13.338-5.558 25.453-13.698 35.635-23.951 0.026-0.022 0.045-0.043 0.064-0.065l77.318-77.32c0.019-0.017 0.038-0.035 0.058-0.052 10.253-10.188 18.4-22.304 23.962-35.651 5.568-13.37 8.435-27.71 8.435-42.194s-2.867-28.824-8.435-42.193c-5.555-13.336-13.69-25.443-23.936-35.626-0.032-0.026-0.058-0.052-0.083-0.077l-417.492-418.959c-5.282-5.299-12.063-8.851-19.427-10.176l-219.428-39.501c-11.693-2.099-23.679 1.606-32.143 9.939-8.463 8.339-12.35 20.269-10.422 31.994l36.572 222.353c1.245 7.569 4.838 14.556 10.272 19.97l419.039 417.577c10.182 10.244 22.291 18.378 35.622 23.933zM109.715 777.142c-9.7 0-19.002-3.853-25.86-10.712s-10.711-16.161-10.711-25.86v-694.856c0-9.702 3.853-19.002 10.711-25.862 6.859-6.854 16.161-10.714 25.86-10.714h694.855c9.702 0 19.002 3.859 25.862 10.714 6.861 6.861 10.714 16.16 10.714 25.862v219.424c0 20.198 16.371 36.576 36.57 36.576s36.57-16.378 36.57-36.576v-219.424c0-29.101-11.558-57.005-32.134-77.581s-48.48-32.134-77.581-32.134h-694.855c-29.098 0-57.005 11.558-77.58 32.134s-32.135 48.48-32.135 77.581v694.856c0 29.098 11.559 57.004 32.135 77.58s48.482 32.135 77.58 32.135h219.428c20.198 0 36.572-16.374 36.572-36.572s-16.374-36.572-36.572-36.572h-219.428z" />
<glyph unicode="&#xe916;" glyph-name="icon-equivalent" d="M941.99 373.764c19.59 4.899 39.45-7.014 44.346-26.609l36.576-146.285c4.896-19.597-7.021-39.45-26.611-44.352-19.597-4.896-39.45 7.014-44.352 26.611l-27.699 110.803-110.81-27.699c-19.59-4.896-39.45 7.014-44.346 26.611-4.902 19.597 7.014 39.45 26.605 44.348l146.291 36.572zM962.464 372.966c19.155-6.411 29.485-27.135 23.072-46.288-33.453-99.958-96.538-187.369-180.87-250.614-84.326-63.245-185.902-99.334-291.231-103.462l-1.433 36.544 0.006-36.576c-97.612-0.013-192.865 30.016-272.818 86.010s-140.734 135.245-174.085 226.982c-6.901 18.982 2.893 39.965 21.875 46.867s39.965-2.893 46.866-21.875c28.22-77.626 79.649-144.685 147.302-192.064 67.459-47.245 147.788-72.646 230.134-72.774 90.239 3.686 177.242 34.669 249.498 88.864 72.454 54.336 126.65 129.434 155.398 215.315 6.413 19.153 27.136 29.483 46.285 23.071zM27.702 739.48c19.595 4.899 39.451-7.015 44.349-26.61l27.702-110.806 110.806 27.702c19.595 4.899 39.451-7.015 44.349-26.609s-7.015-39.451-26.609-44.349l-146.286-36.572c-19.595-4.899-39.451 7.015-44.349 26.609l-36.571 146.286c-4.899 19.595 7.015 39.45 26.61 44.349zM513.015 850.28c82.606-0.461 163.081-26.343 230.473-74.141 67.699-48.014 118.893-115.793 146.56-194.044 6.733-19.043 27.629-29.022 46.669-22.29s29.024 27.628 22.291 46.671c-32.698 92.479-93.197 172.58-173.203 229.325-80.013 56.744-175.613 87.352-273.701 87.627l-0.102-36.571-2.135 36.509c-104.563-6.114-205.011-42.888-288.804-105.734s-147.222-148.977-182.369-247.647c-6.777-19.027 3.153-39.945 22.179-46.723s39.945 3.153 46.723 22.179c30.326 85.134 85.053 159.452 157.353 213.676 72 54 158.25 85.691 248.067 91.162z" />
<glyph unicode="&#xe917;" glyph-name="icon-expiring-certification" d="M502.492 886.857c-161.583 0-292.572-130.988-292.572-292.571s130.989-292.571 292.572-292.571c161.585 0 292.574 130.988 292.574 292.571s-130.989 292.571-292.574 292.571zM136.778 594.286c0 201.978 163.736 365.714 365.714 365.714 201.976 0 365.713-163.736 365.713-365.714s-163.738-365.716-365.713-365.716c-201.978 0-365.714 163.738-365.714 365.716zM502.49 704c-60.594 0-109.715-49.121-109.715-109.715s49.121-109.715 109.715-109.715c60.593 0 109.714 49.121 109.714 109.715s-49.121 109.715-109.714 109.715zM319.633 594.285c0 100.989 81.868 182.857 182.858 182.857s182.854-81.868 182.854-182.857c0-100.989-81.865-182.857-182.854-182.857s-182.858 81.868-182.858 182.857zM278.813 403.441c15.786-12.6 18.37-35.611 5.77-51.397l-188.022-235.576c-0.069-0.090-0.118-0.186-0.142-0.294s-0.025-0.218 0-0.326c0.025-0.109 0.074-0.211 0.143-0.294 0.041-0.051 0.088-0.096 0.141-0.134l241.88-105.638c0.006-0.006-0.005 0 0 0 0.161-0.070 0.344-0.134 0.515-0.173l64.18 269.85c4.674 19.648 24.392 31.789 44.041 27.117s31.791-24.39 27.117-44.038l-64.445-270.963c-2.522-10.182-7.187-19.712-13.681-27.955s-14.669-15.008-23.981-19.846c-0.751-0.39-1.517-0.749-2.294-1.088-9.558-4.147-19.866-6.291-30.287-6.291s-20.728 2.144-30.286 6.291l-243.905 106.541c-10.087 4.768-18.963 11.763-25.962 20.448-6.998 8.691-11.938 18.854-14.447 29.728s-2.522 22.17-0.040 33.050c2.479 10.861 7.384 21.024 14.347 29.722 0.009 0.013-0.009-0.006 0 0l187.96 235.501c12.599 15.786 35.61 18.369 51.396 5.77zM737.357 417.509c15.878 12.481 38.867 9.725 51.354-6.156l195.648-248.941c7.149-8.589 12.192-18.733 14.726-29.626 2.547-10.938 2.483-22.317-0.179-33.222-2.426-10.867-7.309-21.043-14.266-29.747-7.11-8.89-16.198-15.994-26.541-20.755l-0.576-0.262v0.006l-241.229-105.997c-9.504-4.256-19.802-6.458-30.214-6.458-10.49 0-20.858 2.234-30.419 6.547l-0.672 0.307v0.006c-9.734 4.64-18.322 11.373-25.15 19.718s-11.727 18.093-14.345 28.557l-0.086 0.346h0.002l-65.828 274.285c-4.714 19.642 7.387 39.379 27.027 44.096 19.64 4.71 39.383-7.386 44.097-27.027l65.67-273.632c0 0 0.006 0 0.006 0l0.346 0.16v-0.006l240.8 105.805c0.045 0.224 0.096 0.448 0.147 0.666-0.154 0.186-0.301 0.371-0.448 0.563l-196.026 249.414c-12.48 15.88-9.728 38.872 6.157 51.352z" />
<glyph unicode="&#xe918;" glyph-name="icon-expiring-licenses" d="M109.72 886.857c-9.7 0-19.002-3.853-25.86-10.711s-10.712-16.161-10.712-25.86v-804.57c0-9.702 3.853-19.002 10.712-25.862 6.858-6.854 16.161-10.707 25.86-10.707h146.285c20.198 0 36.572-16.378 36.572-36.576s-16.374-36.57-36.572-36.57h-146.285c-29.098 0-57.004 11.558-77.58 32.134s-32.135 48.48-32.135 77.581v804.57c0 29.098 11.559 57.005 32.135 77.58s48.482 32.135 77.58 32.135h804.571c29.101 0 57.005-11.559 77.581-32.135s32.134-48.482 32.134-77.58v-804.57c0-29.101-11.558-57.005-32.134-77.581s-48.48-32.134-77.581-32.134h-146.285c-20.198 0-36.57 16.371-36.57 36.57s16.371 36.576 36.57 36.576h146.285c9.702 0 19.002 3.853 25.862 10.707 6.854 6.861 10.707 16.16 10.707 25.862v804.57c0 9.7-3.853 19.002-10.707 25.86-6.861 6.858-16.16 10.711-25.862 10.711h-804.571zM0.006 704.001c0 20.198 16.374 36.572 36.571 36.572h950.86c20.198 0 36.57-16.374 36.57-36.572s-16.371-36.572-36.57-36.572h-950.86c-20.198 0-36.571 16.374-36.571 36.572zM511.999 521.142c20.198 0 36.572-16.373 36.572-36.572v-256.001c0-20.198-16.374-36.57-36.572-36.57s-36.572 16.371-36.572 36.57v256.001c0 20.198 16.374 36.572 36.572 36.572zM438.863 9.139c0 40.397 32.747 73.146 73.143 73.146s73.142-32.749 73.142-73.146c0-40.39-32.747-73.139-73.142-73.139s-73.143 32.749-73.143 73.139z" />
<glyph unicode="&#xe919;" glyph-name="icon-filter" d="M10.697 949.293c6.859 6.861 16.163 10.716 25.865 10.716h950.856c9.702 0 19.008-3.855 25.869-10.716 6.854-6.861 10.707-16.167 10.701-25.869-0.038-115.271-38.925-227.165-110.374-317.621-65.427-82.829-154.662-143.258-255.334-173.388v-313.548c0-12.23-6.112-23.648-16.288-30.432l-219.428-146.285c-11.222-7.482-25.651-8.179-37.542-1.811-11.892 6.362-19.315 18.752-19.315 32.243v459.833c-100.673 30.13-189.909 90.559-255.336 173.388-71.45 90.456-110.335 202.35-110.378 317.621-0.004 9.702 3.848 19.007 10.707 25.869zM74.671 886.867c7.192-85.741 39.43-167.786 93.094-235.726 61.258-77.552 146.861-132.2 242.993-155.123 16.468-3.927 28.089-18.644 28.089-35.574v-419.529l146.285 97.523v322.006c0 16.93 11.62 31.647 28.089 35.574 96.135 22.924 181.735 77.571 242.996 155.123 53.664 67.94 85.901 149.985 93.094 235.726h-874.641z" />
<glyph unicode="&#xe91a;" glyph-name="icon-group" d="M492.572 882.732l-415.644-193.967c-0.619-0.362-1.141-0.872-1.519-1.486-0.426-0.692-0.652-1.488-0.652-2.3s0.225-1.609 0.652-2.301c0.373-0.606 0.887-1.111 1.496-1.473l415.625-192.5c6.153-2.616 12.772-3.965 19.461-3.965 6.674 0 13.278 1.343 19.42 3.948l415.642 193.967c0.621 0.363 1.146 0.873 1.523 1.486 0.422 0.692 0.646 1.489 0.646 2.301s-0.224 1.609-0.646 2.301c-0.378 0.606-0.89 1.111-1.498 1.473l-415.626 192.5c-6.154 2.616-12.772 3.966-19.462 3.966-6.674 0-13.278-1.343-19.42-3.948zM463.048 949.654c15.445 6.707 32.104 10.168 48.943 10.168s33.498-3.461 48.944-10.168l0.808-0.351-0.004-0.010 416.911-193.097c0.371-0.172 0.736-0.349 1.101-0.532 12.819-6.464 23.584-16.357 31.11-28.579s11.507-26.293 11.507-40.646c0-14.352-3.981-28.423-11.507-40.645s-18.291-22.116-31.11-28.579l-1.005-0.487-417.811-194.965c-15.446-6.707-32.105-10.168-48.944-10.168s-33.498 3.46-48.943 10.168l-0.808 0.351 0.004 0.010-416.915 193.097c-0.37 0.172-0.736 0.349-1.1 0.532-12.815 6.464-23.584 16.357-31.108 28.579s-11.508 26.293-11.508 40.646c0 14.352 3.984 28.423 11.508 40.645s18.293 22.116 31.108 28.579l1.004 0.487 417.813 194.965zM1020.634 437.709c8.454-18.345 0.435-40.067-17.914-48.518l-446.294-205.588c-14.294-6.522-29.821-9.894-45.532-9.894s-31.238 3.373-45.532 9.894l-0.187 0.083h0.001l-443.977 205.534c-18.329 8.485-26.309 30.222-17.824 48.551s30.222 26.309 48.551 17.824l443.868-205.484c4.743-2.15 9.891-3.258 15.1-3.258 5.218 0 10.375 1.114 15.125 3.27 0.017 0.006 0.035 0.019 0.052 0.026l446.044 205.474c18.349 8.451 40.070 0.43 48.518-17.915zM1020.634 199.994c8.454-18.349 0.435-40.070-17.914-48.518l-446.294-205.594c-14.294-6.515-29.821-9.888-45.532-9.888s-31.238 3.373-45.532 9.888l-0.187 0.090h0.001l-443.977 205.53c-18.329 8.486-26.309 30.221-17.824 48.55s30.222 26.31 48.551 17.824l443.868-205.478c4.743-2.15 9.891-3.264 15.1-3.264 5.218 0 10.375 1.12 15.125 3.277 0.017 0.006 0.035 0.013 0.052 0.019l446.044 205.478c18.349 8.448 40.070 0.429 48.518-17.914z" />
<glyph unicode="&#xe91b;" glyph-name="icon-learning-progress" d="M512.001 118.861c20.198 0 36.572-16.371 36.572-36.57v-109.715c0-20.198-16.374-36.57-36.572-36.57s-36.572 16.371-36.572 36.57v109.715c0 20.198 16.374 36.57 36.572 36.57zM278.927 214.938c14.282-14.285 14.282-37.44 0-51.718l-77.531-77.536c-14.282-14.278-37.438-14.278-51.72 0-14.282 14.285-14.282 37.44 0 51.725l77.532 77.53c14.282 14.278 37.438 14.278 51.72 0zM316.058 921.028c62.118 25.73 128.697 38.974 195.934 38.974v-36.577l0.092 36.577c101.172-0.256 200.005-30.438 284.063-86.746s149.574-136.225 188.307-229.69c38.733-93.464 48.954-196.3 29.363-295.558-19.584-99.26-68.102-190.505-139.437-262.249-6.848-6.893-16.16-10.771-25.882-10.784-9.715-0.019-19.040 3.84-25.907 10.707l-325.748 325.747h-460.28c-9.699 0-19.001 3.853-25.86 10.712s-10.711 16.161-10.711 25.86c0 135.791 53.943 266.020 149.961 362.038 47.544 47.544 103.986 85.258 166.105 110.988zM511.946 886.859c-57.616-0.006-114.667-11.357-167.898-33.406-53.244-22.054-101.624-54.38-142.375-95.132-73.638-73.638-118.404-170.749-127.013-273.747h437.332c9.699 0 19.001-3.853 25.86-10.712l309.437-309.439c47.661 56.698 80.352 124.691 94.771 197.747 16.794 85.099 8.032 173.264-25.178 253.396-33.203 80.132-89.376 148.648-161.44 196.924-72.058 48.267-156.773 74.142-243.497 74.371z" />
<glyph unicode="&#xe91c;" glyph-name="icon-link" d="M318.553 511.042c14.214-14.349 14.106-37.505-0.243-51.72l-234.773-232.577c-0.003-0.006 0.003 0 0 0-3.423-3.398-6.15-7.45-8.005-11.904-1.857-4.454-2.813-9.235-2.813-14.061 0-4.832 0.956-9.613 2.813-14.067s4.577-8.499 8.005-11.904l0.107-0.102 155.169-155.168c3.4-3.43 7.444-6.15 11.901-8.006s9.236-2.816 14.065-2.816c4.828 0 9.608 0.96 14.065 2.816 4.449 1.856 8.489 4.57 11.885 7.987l232.595 234.79c14.215 14.349 37.37 14.458 51.719 0.243s14.458-37.37 0.243-51.718l-232.595-234.79c-10.2-10.285-22.349-18.458-35.719-24.032-13.37-5.568-27.71-8.435-42.193-8.435s-28.824 2.867-42.194 8.435c-13.343 5.562-25.455 13.702-35.642 23.955-0.020 0.019-0.041 0.038-0.062 0.064l-154.85 154.848c-0.018 0.019-0.036 0.038-0.054 0.058-10.258 10.182-18.401 22.298-23.961 35.648-5.57 13.37-8.438 27.706-8.438 42.195 0 14.483 2.868 28.819 8.438 42.189s13.732 25.504 24.016 35.706l234.804 232.609c14.349 14.215 37.505 14.106 51.72-0.243zM717.030 951.986c13.37 5.57 27.706 8.438 42.189 8.438 14.49 0 28.826-2.868 42.195-8.438s25.504-13.732 35.706-24.016l0.077-0.079 152.736-154.931c10.208-10.166 18.317-22.244 23.859-35.544 5.568-13.37 8.435-27.71 8.435-42.194s-2.867-28.824-8.435-42.193c-5.562-13.347-13.702-25.462-23.962-35.651-0.019-0.017-0.038-0.035-0.058-0.052l-232.486-232.488c-14.278-14.282-37.434-14.282-51.718 0s-14.285 37.437 0 51.72l232.698 232.7c3.43 3.4 6.15 7.444 8.006 11.901s2.816 9.237 2.816 14.065c0 4.828-0.96 9.608-2.816 14.065s-4.576 8.502-8.006 11.901l-0.288 0.289-152.787 154.986c-0.013 0.010 0.006-0.010 0 0-3.398 3.413-7.462 6.154-11.904 8.005-4.454 1.857-9.235 2.813-14.067 2.813-4.826 0-9.606-0.956-14.061-2.813-4.448-1.854-8.493-4.57-11.885-7.99l-232.596-234.788c-14.215-14.349-37.371-14.458-51.72-0.243s-14.458 37.37-0.243 51.72l232.596 234.788c10.195 10.283 22.349 18.461 35.718 24.031zM684.147 620.146c14.278-14.282 14.278-37.438 0-51.72l-292.573-292.573c-14.282-14.278-37.437-14.278-51.72 0-14.282 14.285-14.282 37.44 0 51.722l292.572 292.572c14.282 14.282 37.437 14.282 51.722 0z" />
<glyph unicode="&#xe91d;" glyph-name="icon-menu" d="M310.858 557.715c60.593 0 109.714-49.121 109.714-109.714s-49.121-109.715-109.714-109.715c-60.594 0-109.715 49.121-109.715 109.715s49.121 109.714 109.715 109.714zM310.858 886.858c60.593 0 109.714-49.121 109.714-109.715s-49.121-109.714-109.714-109.714c-60.594 0-109.715 49.121-109.715 109.714s49.121 109.715 109.715 109.715zM310.858 228.57c60.593 0 109.714-49.12 109.714-109.709 0-60.595-49.121-109.715-109.714-109.715s-109.715 49.12-109.715 109.715c0 60.589 49.121 109.709 109.715 109.709zM685.715 557.715c60.595 0 109.715-49.121 109.715-109.714s-49.12-109.715-109.715-109.715c-60.591 0-109.712 49.121-109.712 109.715s49.121 109.714 109.712 109.714zM685.715 886.858c60.595 0 109.715-49.121 109.715-109.715s-49.12-109.714-109.715-109.714c-60.591 0-109.712 49.121-109.712 109.714s49.121 109.715 109.712 109.715zM685.715 228.57c60.595 0 109.715-49.12 109.715-109.709 0-60.595-49.12-109.715-109.715-109.715-60.591 0-109.712 49.12-109.712 109.715 0 60.589 49.121 109.709 109.712 109.709z" />
<glyph unicode="&#xe91e;" glyph-name="icon-plus" d="M548.577 720.875c20.198 0 36.572-16.374 36.572-36.572v-472.617c0-20.198-16.374-36.572-36.572-36.572s-36.572 16.374-36.572 36.572v472.617c0 20.198 16.374 36.572 36.572 36.572zM275.697 447.995c0 20.197 16.374 36.571 36.572 36.571h472.617c20.193 0 36.567-16.373 36.567-36.571s-16.374-36.572-36.567-36.572h-472.617c-20.198 0-36.572 16.374-36.572 36.572z" />
<glyph unicode="&#xe91f;" glyph-name="icon-plus-1" d="M512 768c17.673 0 32-14.327 32-32v-256h256c17.67 0 32-14.327 32-32s-14.33-32-32-32h-256v-256c0-17.67-14.327-32-32-32s-32 14.33-32 32v256h-256c-17.673 0-32 14.327-32 32s14.327 32 32 32h256v256c0 17.673 14.327 32 32 32z" />
<glyph unicode="&#xe920;" glyph-name="icon-preview" d="M83.321 472.337c-5.971-6.698-9.274-15.359-9.274-24.337s3.302-17.64 9.274-24.338c37.245-40.058 97.708-98.451 172.861-146.664 75.485-48.429 163.311-84.998 255.818-84.998s180.333 36.57 255.821 84.998c75.149 48.213 135.616 106.607 172.858 146.664 5.971 6.698 9.274 15.359 9.274 24.338s-3.302 17.64-9.274 24.337c-37.242 40.057-97.709 98.451-172.858 146.664-75.488 48.426-163.314 84.999-255.821 84.999s-180.333-36.573-255.818-84.999c-75.153-48.213-135.616-106.606-172.861-146.664zM216.687 680.564c82.138 52.694 183.751 96.578 295.313 96.578s213.178-43.884 295.315-96.578c82.33-52.817 147.584-116.077 187.155-158.665l0.365-0.388-0.006-0.003c18.195-20.16 28.269-46.352 28.269-73.508s-10.074-53.348-28.269-73.509l-0.352-0.394-0.006 0.003c-39.571-42.588-104.826-105.85-187.155-158.663-82.138-52.698-183.754-96.582-295.315-96.582s-213.174 43.885-295.313 96.582c-82.329 52.813-147.585 116.075-187.158 158.663l-0.361 0.388 0.003 0.003c-18.195 20.161-28.267 46.352-28.267 73.509s10.072 53.348 28.267 73.508l0.356 0.394 0.003-0.003c39.573 42.588 104.829 105.848 187.158 158.665zM512 557.715c-60.594 0-109.715-49.121-109.715-109.715s49.121-109.714 109.715-109.714c60.593 0 109.714 49.121 109.714 109.714s-49.121 109.715-109.714 109.715zM329.142 448c0 100.989 81.868 182.858 182.858 182.858s182.854-81.868 182.854-182.858c0-100.989-81.866-182.854-182.854-182.854s-182.858 81.866-182.858 182.854z" />
<glyph unicode="&#xe921;" glyph-name="icon-report" d="M219.429 813.715c-9.699 0-19.002-3.853-25.86-10.712s-10.712-16.161-10.712-25.86v-731.428c0-9.702 3.853-19.002 10.712-25.862 6.858-6.854 16.161-10.707 25.86-10.707h585.14c9.702 0 19.002 3.853 25.862 10.707 6.861 6.861 10.714 16.16 10.714 25.862v731.428c0 9.699-3.853 19.002-10.714 25.86s-16.16 10.712-25.862 10.712h-109.709c-20.198 0-36.576 16.374-36.576 36.572s16.378 36.572 36.576 36.572h109.709c29.101 0 57.005-11.559 77.581-32.135s32.134-48.481 32.134-77.58v-731.428c0-29.101-11.558-57.005-32.134-77.581s-48.48-32.134-77.581-32.134h-585.14c-29.098 0-57.004 11.558-77.58 32.134s-32.135 48.48-32.135 77.581v731.428c0 29.098 11.56 57.004 32.135 77.58s48.481 32.135 77.58 32.135h109.715c20.198 0 36.571-16.374 36.571-36.572s-16.373-36.572-36.571-36.572h-109.715zM402.285 886.857c-20.198 0-36.572-16.373-36.572-36.572v-36.571c0-20.198 16.374-36.572 36.572-36.572h219.428c20.2 0 36.572 16.373 36.572 36.572v36.571c0 20.198-16.371 36.572-36.572 36.572h-219.428zM292.57 850.285c0 60.594 49.121 109.715 109.715 109.715h219.428c60.591 0 109.717-49.121 109.717-109.715v-36.571c0-60.594-49.126-109.715-109.717-109.715h-219.428c-60.594 0-109.715 49.121-109.715 109.715v36.571zM292.57 557.714c0 20.198 16.374 36.572 36.572 36.572h365.713c20.198 0 36.576-16.374 36.576-36.572s-16.378-36.572-36.576-36.572h-365.713c-20.198 0-36.572 16.374-36.572 36.572zM292.57 374.856c0 20.198 16.374 36.572 36.572 36.572h365.713c20.198 0 36.576-16.374 36.576-36.572s-16.378-36.572-36.576-36.572h-365.713c-20.198 0-36.572 16.374-36.572 36.572zM292.57 192c0 20.198 16.374 36.57 36.572 36.57h365.713c20.198 0 36.576-16.371 36.576-36.57s-16.378-36.57-36.576-36.57h-365.713c-20.198 0-36.572 16.371-36.572 36.57z" />
<glyph unicode="&#xe922;" glyph-name="icon-role-utilization" d="M365.709 886.857c-70.692 0-128-57.308-128-128s57.308-128 128-128c70.692 0 128 57.308 128 128s-57.308 128-128 128zM164.566 758.857c0 111.089 90.055 201.143 201.143 201.143s201.142-90.054 201.142-201.143c0-111.088-90.054-201.142-201.142-201.142s-201.143 90.054-201.143 201.142zM284.125 512.446c53.645 12.186 109.35 12.088 162.952-0.287 19.681-4.543 31.951-24.18 27.407-43.861s-24.18-31.951-43.86-27.407c-42.86 9.895-87.402 9.974-130.297 0.23s-83.032-29.059-117.411-56.499c-34.379-27.44-62.11-62.297-81.121-101.965s-28.808-83.117-28.66-127.104l0.001-0.122-0.001-73.146h365.715c20.198 0 36.572-16.371 36.572-36.57s-16.374-36.576-36.572-36.576h-402.286c-20.198 0-36.571 16.378-36.571 36.576v109.651c-0.175 54.995 12.078 109.312 35.843 158.899 23.775 49.611 58.456 93.204 101.451 127.522s93.192 58.473 146.837 70.659zM586.127 447.999h363.729c9.613 0.442 19.219-1.075 28.237-4.465 9.459-3.557 18.048-9.094 25.197-16.241 7.142-7.147 12.678-15.737 16.237-25.197 3.392-9.015 4.909-18.621 4.467-28.232v-94.87c-0.083-72.934-22.061-144.16-63.085-204.467-41.024-60.301-99.206-106.899-167.014-133.766l-13.466 34.003 12.435-34.394c-16.070-5.811-33.67-5.811-49.741 0l-1.037 0.39c-67.808 26.867-125.987 73.466-167.011 133.766-41.023 60.307-63 131.578-63.082 204.512v94.825c-0.442 9.611 1.075 19.217 4.465 28.232 3.557 9.46 9.094 18.050 16.241 25.197s15.737 12.684 25.197 16.241c9.015 3.389 18.621 4.907 28.232 4.465zM767.994 9.178c53.747 21.53 99.866 58.605 132.442 106.49 32.787 48.198 50.349 105.126 50.413 163.411v95.778h-365.712v-95.797c0.070-58.278 17.633-115.2 50.415-163.392 32.577-47.885 78.695-84.96 132.442-106.49z" />
<glyph unicode="&#xe923;" glyph-name="icon-run" d="M154.287 917.217c18.134 10.068 38.537 15.355 59.288 15.355 21.058 0 41.758-5.445 60.092-15.805 0.385-0.217 0.765-0.442 1.142-0.673l595.54-365.644c18.387-9.274 33.914-23.396 44.883-40.859 11.328-18.038 17.338-38.908 17.338-60.211s-6.010-42.172-17.338-60.21c-10.957-17.444-26.464-31.555-44.826-40.828l-595.493-368.369c-0.41-0.256-0.826-0.499-1.246-0.742-18.333-10.355-39.034-15.802-60.092-15.802-20.751 0-41.155 5.286-59.288 15.354-18.478 9.427-34.074 23.674-45.135 41.235-11.228 17.824-17.356 38.387-17.719 59.45l-0.011 0.627 0.005 736.437c0.363 21.064 6.497 41.625 17.725 59.45 11.062 17.562 26.658 31.806 45.135 41.234zM213.576 859.429c-8.447 0-16.751-2.184-24.106-6.34-0.538-0.304-1.083-0.594-1.635-0.87-6.883-3.442-12.692-8.706-16.795-15.219-4.056-6.438-6.291-13.855-6.47-21.46v-735.078c0.179-7.603 2.414-15.021 6.47-21.459 4.103-6.515 9.912-11.776 16.795-15.219 0.552-0.275 1.098-0.563 1.635-0.87 7.355-4.154 15.659-6.342 24.106-6.342 8.239 0 16.341 2.080 23.56 6.042l596.266 368.847c1.088 0.673 2.214 1.289 3.366 1.845 6.784 3.27 12.512 8.39 16.525 14.773 4.006 6.382 6.138 13.767 6.138 21.305s-2.131 14.924-6.138 21.306c-4.013 6.382-9.741 11.503-16.525 14.773-1.12 0.538-2.208 1.132-3.264 1.78l-596.322 366.127c-7.23 3.976-15.35 6.062-23.606 6.062z" />
<glyph unicode="&#xe924;" glyph-name="icon-save" d="M230.14 949.288c6.858 6.859 16.161 10.712 25.86 10.712h658.285c29.101 0 57.005-11.559 77.581-32.135s32.134-48.482 32.134-77.58v-804.57c0-29.101-11.558-57.005-32.134-77.581s-48.48-32.134-77.581-32.134h-804.57c-29.098 0-57.005 11.558-77.58 32.134s-32.135 48.48-32.135 77.581v658.285c0 9.699 3.853 19.002 10.712 25.86l219.429 219.429zM271.148 886.857l-198.005-198.005v-643.137c0-9.702 3.853-19.002 10.711-25.862 6.859-6.854 16.161-10.707 25.86-10.707h804.57c9.702 0 19.002 3.853 25.862 10.707 6.854 6.861 10.707 16.16 10.707 25.862v804.57c0 9.7-3.853 19.002-10.707 25.86-6.861 6.858-16.16 10.711-25.862 10.711h-643.137zM219.428 338.286c0 20.198 16.374 36.572 36.572 36.572h512c20.198 0 36.57-16.374 36.57-36.572v-365.716c0-20.198-16.371-36.57-36.57-36.57h-512c-20.198 0-36.572 16.371-36.572 36.57v365.716zM292.572 301.715v-292.57h438.859v292.57h-438.859zM292.572 923.429c0 20.198 16.373 36.571 36.571 36.571h438.858c20.198 0 36.57-16.374 36.57-36.571v-292.572c0-20.198-16.371-36.572-36.57-36.572h-438.858c-20.198 0-36.571 16.374-36.571 36.572v292.572zM365.714 886.857v-219.428h365.716v219.428h-365.716z" />
<glyph unicode="&#xe925;" glyph-name="icon-saved-views1" d="M219.423 667.429c-9.699 0-19.002-3.853-25.86-10.711s-10.712-16.161-10.712-25.86v-578.769l195.628 167.68c13.695 11.738 33.905 11.738 47.601 0l195.628-167.68v578.769c0 9.699-3.853 19.001-10.711 25.86s-16.161 10.711-25.86 10.711h-365.714zM141.844 708.438c20.575 20.575 48.481 32.134 77.58 32.134h365.714c29.098 0 57.007-11.559 77.583-32.134 20.57-20.575 32.134-48.482 32.134-77.58v-658.289c0-14.278-8.32-27.258-21.293-33.222-12.973-5.971-28.237-3.84-39.082 5.459l-232.2 199.027-232.2-199.027c-10.844-9.299-26.106-11.43-39.082-5.459-12.976 5.965-21.29 18.944-21.29 33.222v658.289c0 29.098 11.559 57.004 32.135 77.58zM329.146 923.438c0 20.198 16.374 36.571 36.572 36.571h438.858c29.094 0 57.005-11.559 77.581-32.135s32.134-48.482 32.134-77.58v-658.283c0-20.198-16.378-36.576-36.576-36.576-20.192 0-36.57 16.378-36.57 36.576v658.283c0 9.699-3.853 19.001-10.714 25.86-6.854 6.858-16.16 10.712-25.856 10.712h-438.858c-20.198 0-36.572 16.373-36.572 36.571z" />
<glyph unicode="&#xe926;" glyph-name="icon-search" d="M433.351 865.345c-187.055 0-338.694-151.638-338.694-338.694s151.639-338.693 338.694-338.693c187.055 0 338.697 151.636 338.697 338.693s-151.642 338.694-338.697 338.694zM25.816 526.651c0 225.075 182.459 407.535 407.535 407.535s407.534-182.459 407.534-407.535c0-225.077-182.459-407.536-407.534-407.536s-407.535 182.459-407.535 407.536zM672.605 287.34c13.438 13.438 35.232 13.438 48.676 0l258.15-258.15c13.445-13.445 13.445-35.238 0-48.682-13.445-13.438-35.238-13.438-48.676 0l-258.15 258.156c-13.445 13.438-13.445 35.232 0 48.676z" />
<glyph unicode="&#xe927;" glyph-name="icon-self-entered" d="M127.047 954.531c10.776 6.665 24.233 7.278 35.569 1.62l398.754-199.011c18.26-9.201 33.586-23.322 44.248-40.769 10.638-17.408 16.211-37.436 16.095-57.834-0.001-0.047-0.001-0.093-0.001-0.14l-36.568 0.255h36.57v-613.045c-0.057-18.707-4.893-37.082-14.051-53.389s-22.331-30.003-38.271-39.789c-15.939-9.779-34.115-15.328-52.801-16.109-18.669-0.787-37.228 3.213-53.917 11.616l-292.618 146.31c-18.093 9.114-33.309 23.066-43.96 40.301s-16.321 37.082-16.383 57.344v731.537c0 12.67 6.558 24.437 17.333 31.102zM182.857 864.303v-672.239c0.029-6.739 1.918-13.338 5.46-19.066 3.542-5.734 8.596-10.374 14.607-13.414 0.015-0.006-0.015 0.006 0 0l292.618-146.31c5.567-2.803 11.759-4.141 17.988-3.878s12.287 2.112 17.601 5.37c5.313 3.264 9.704 7.827 12.757 13.267 3.045 5.421 4.657 11.533 4.683 17.754v613.12c0.047 6.816-1.81 13.509-5.364 19.325-3.544 5.8-8.634 10.496-14.698 13.564-0.017 0.009 0.017-0.008 0 0l-345.652 172.509zM109.714 923.429c0 20.198 16.374 36.571 36.572 36.571h658.284c29.101 0 57.005-11.559 77.581-32.135s32.134-48.482 32.134-77.58v-658.285c0-29.101-11.558-57.005-32.134-77.581s-48.48-32.134-77.581-32.134h-219.427c-20.198 0-36.572 16.378-36.572 36.57 0 20.198 16.374 36.576 36.572 36.576h219.427c9.702 0 19.002 3.853 25.862 10.707 6.854 6.861 10.714 16.16 10.714 25.862v658.285c0 9.7-3.859 19.002-10.714 25.86-6.861 6.858-16.16 10.711-25.862 10.711h-658.284c-20.198 0-36.572 16.374-36.572 36.572z" />
<glyph unicode="&#xe928;" glyph-name="icon-share" d="M36.571 228.57c20.198 0 36.572-16.371 36.572-36.57v-73.139c0-29.101 11.559-57.005 32.134-77.581s48.482-32.134 77.58-32.134h658.289c29.094 0 56.998 11.558 77.574 32.134s32.134 48.48 32.134 77.581v73.139c0 20.198 16.378 36.57 36.576 36.57s36.57-16.371 36.57-36.57v-73.139c0-48.499-19.264-95.008-53.555-129.299-34.298-34.298-80.806-53.562-129.299-53.562h-658.289c-48.497 0-95.007 19.264-129.299 53.562-34.292 34.291-53.558 80.8-53.558 129.299v73.139c0 20.198 16.374 36.57 36.571 36.57zM512.001 960c10.676 0 20.819-4.665 27.767-12.771l219.426-256c13.146-15.335 11.373-38.423-3.962-51.567-15.341-13.144-38.426-11.368-51.571 3.967l-191.66 223.605-191.661-223.605c-13.144-15.335-36.232-17.111-51.567-3.967s-17.112 36.232-3.967 51.567l219.428 256c6.948 8.106 17.091 12.771 27.767 12.771zM511.999 960c20.198 0 36.572-16.374 36.572-36.571v-658.283c0-20.198-16.374-36.576-36.572-36.576s-36.572 16.378-36.572 36.576v658.283c0 20.198 16.374 36.571 36.572 36.571z" />
<glyph unicode="&#xe929;" glyph-name="icon-sort" d="M720 836.572c20.198 0 36.57-16.374 36.57-36.572v-772.57c0-20.198-16.371-36.57-36.57-36.57s-36.57 16.371-36.57 36.57v772.57c0 20.198 16.371 36.572 36.57 36.572zM694.144 825.86c14.278 14.282 37.434 14.282 51.718 0l208-208c14.278-14.282 14.278-37.437 0-51.72-14.285-14.282-37.44-14.282-51.718 0l-182.144 182.14-182.139-182.14c-14.282-14.282-37.438-14.282-51.72 0s-14.282 37.438 0 51.72l208.003 208zM303.999-4.57c-20.198 0-36.572 16.371-36.572 36.57v772.57c0 20.198 16.374 36.572 36.572 36.572s36.572-16.373 36.572-36.572v-772.57c0-20.198-16.374-36.57-36.572-36.57zM329.859 6.138c-14.282-14.278-37.437-14.278-51.72 0l-208 208c-14.282 14.285-14.282 37.44 0 51.718 14.282 14.285 37.438 14.285 51.72 0l182.14-182.138 182.14 182.138c14.282 14.285 37.438 14.285 51.72 0 14.282-14.278 14.282-37.434 0-51.718l-208-208z" />
<glyph unicode="&#xe92a;" glyph-name="icon-student-listing" d="M512.015 704c-80.792 0-146.286-65.494-146.286-146.286s65.494-146.285 146.286-146.285c80.791 0 146.283 65.494 146.283 146.285s-65.492 146.286-146.283 146.286zM292.586 557.714c0 121.187 98.241 219.428 219.428 219.428s219.428-98.241 219.428-219.428c0-121.187-98.242-219.428-219.428-219.428s-219.428 98.241-219.428 219.428zM245.693 201.126c73.517 64.934 168.225 100.768 266.314 100.768s192.793-35.834 266.31-100.768c15.142-13.37 16.576-36.486 3.206-51.622-13.376-15.136-36.486-16.57-51.622-3.2-60.154 53.126-137.64 82.451-217.894 82.451s-157.743-29.325-217.893-82.451c-15.138-13.37-38.25-11.936-51.62 3.2s-11.938 38.253 3.2 51.622zM987.43 228.57c20.198 0 36.57-16.371 36.57-36.57v-146.285c0-29.101-11.558-57.005-32.134-77.581s-48.48-32.134-77.581-32.134h-146.285c-20.198 0-36.57 16.371-36.57 36.57s16.371 36.57 36.57 36.57h146.285c9.702 0 19.002 3.853 25.862 10.714s10.714 16.16 10.714 25.862v146.285c0 20.198 16.371 36.57 36.57 36.57zM731.43 923.429c0 20.198 16.371 36.571 36.57 36.571h146.285c29.101 0 57.005-11.559 77.581-32.135s32.134-48.482 32.134-77.58v-146.285c0-20.198-16.371-36.572-36.57-36.572s-36.57 16.374-36.57 36.572v146.285c0 9.7-3.853 19.002-10.714 25.86s-16.16 10.711-25.862 10.711h-146.285c-20.198 0-36.57 16.374-36.57 36.572zM109.722 886.857c-9.699 0-19.002-3.853-25.86-10.711s-10.712-16.161-10.712-25.86v-146.285c0-20.198-16.374-36.572-36.571-36.572s-36.571 16.374-36.571 36.572v146.285c0 29.098 11.559 57.005 32.135 77.58s48.482 32.135 77.58 32.135h146.285c20.198 0 36.572-16.374 36.572-36.571s-16.374-36.572-36.572-36.572h-146.285zM36.579 228.57c20.198 0 36.571-16.371 36.571-36.57v-146.285c0-9.702 3.853-19.002 10.712-25.862 6.858-6.854 16.161-10.707 25.86-10.707h146.285c20.198 0 36.572-16.378 36.572-36.576 0-20.192-16.374-36.57-36.572-36.57h-146.285c-29.098 0-57.004 11.558-77.58 32.134s-32.135 48.48-32.135 77.581v146.285c0 20.198 16.374 36.57 36.571 36.57z" />
<glyph unicode="&#xe92b;" glyph-name="icon-transcript" d="M109.722 886.857c-9.699 0-19.002-3.853-25.86-10.711s-10.712-16.161-10.712-25.86v-804.57c0-9.702 3.853-19.002 10.712-25.862 6.858-6.854 16.161-10.707 25.86-10.707h475.428c20.198 0 36.572-16.378 36.572-36.576s-16.374-36.57-36.572-36.57h-475.428c-29.098 0-57.004 11.558-77.58 32.134s-32.135 48.48-32.135 77.581v804.57c0 29.098 11.559 57.005 32.135 77.58s48.482 32.135 77.58 32.135h548.569c20.198 0 36.576-16.374 36.576-36.571s-16.378-36.572-36.576-36.572h-548.569zM877.715 960c13.85 0 26.515-7.826 32.71-20.216l109.715-219.429c2.541-5.078 3.859-10.678 3.859-16.355v-621.715c0-38.797-15.411-76.006-42.848-103.437-27.43-27.437-64.64-42.848-103.437-42.848s-76.006 15.411-103.437 42.848c-27.437 27.43-42.848 64.64-42.848 103.437v621.715c0 5.677 1.318 11.277 3.859 16.355l109.715 219.429c6.195 12.39 18.861 20.216 32.71 20.216zM804.57 695.366v-613.082c0-19.398 7.712-38.003 21.427-51.718s32.32-21.421 51.718-21.421c19.398 0 38.003 7.706 51.718 21.421 13.722 13.715 21.427 32.32 21.427 51.718v613.082l-73.146 146.286-73.146-146.286zM731.43 265.146c0 20.198 16.371 36.57 36.57 36.57h219.43c20.198 0 36.57-16.371 36.57-36.57s-16.371-36.576-36.57-36.576h-219.43c-20.198 0-36.57 16.378-36.57 36.576zM256.001 960c20.198 0 36.572-16.374 36.572-36.571v-950.859c0-20.198-16.374-36.57-36.572-36.57s-36.572 16.371-36.572 36.57v950.859c0 20.198 16.374 36.571 36.572 36.571zM402.293 667.428c0 20.198 16.373 36.572 36.572 36.572h146.285c20.198 0 36.572-16.374 36.572-36.572s-16.374-36.572-36.572-36.572h-146.285c-20.198 0-36.572 16.374-36.572 36.572z" />
<glyph unicode="&#xe92c;" glyph-name="icon-upcoming-classes" d="M32.14 781.58c20.575 20.575 48.482 32.134 77.58 32.134 20.198 0 36.572-16.373 36.572-36.571s-16.374-36.572-36.572-36.572c-9.7 0-19.002-3.853-25.86-10.712s-10.712-16.161-10.712-25.86v-658.285c0-9.702 3.853-19.002 10.712-25.862 6.858-6.854 16.161-10.707 25.86-10.707h804.571c9.702 0 19.002 3.853 25.862 10.707 6.854 6.861 10.707 16.16 10.707 25.862v658.285c0 9.699-3.853 19.002-10.707 25.86-6.861 6.858-16.16 10.712-25.862 10.712h-146.285c-20.198 0-36.57 16.373-36.57 36.572s16.371 36.571 36.57 36.571h146.285c29.101 0 57.005-11.559 77.581-32.134s32.134-48.481 32.134-77.58v-658.285c0-29.101-11.558-57.005-32.134-77.581s-48.48-32.134-77.581-32.134h-804.571c-29.098 0-57.004 11.558-77.58 32.134s-32.135 48.48-32.135 77.581v658.285c0 29.098 11.559 57.004 32.135 77.58zM255.999 960c20.198 0 36.572-16.374 36.572-36.571v-292.572c0-20.198-16.374-36.572-36.572-36.572s-36.572 16.374-36.572 36.572v292.572c0 20.198 16.374 36.571 36.572 36.571zM768 960c20.198 0 36.57-16.374 36.57-36.571v-292.572c0-20.198-16.371-36.572-36.57-36.572s-36.57 16.374-36.57 36.572v292.572c0 20.198 16.371 36.571 36.57 36.571zM219.428 777.144c0 20.198 16.374 36.571 36.572 36.571h365.714c20.2 0 36.572-16.373 36.572-36.571s-16.371-36.572-36.572-36.572h-365.714c-20.198 0-36.572 16.373-36.572 36.572zM182.863 411.429c0 40.396 32.747 73.143 73.143 73.143s73.142-32.747 73.142-73.143c0-40.396-32.747-73.142-73.142-73.142s-73.143 32.747-73.143 73.142zM438.863 411.429c0 40.396 32.747 73.143 73.143 73.143s73.142-32.747 73.142-73.143c0-40.396-32.747-73.142-73.142-73.142s-73.143 32.747-73.143 73.142zM694.861 411.429c0 40.396 32.749 73.143 73.146 73.143s73.146-32.747 73.146-73.143c0-40.396-32.749-73.142-73.146-73.142s-73.146 32.747-73.146 73.142zM182.863 192c0 40.397 32.747 73.146 73.143 73.146s73.142-32.749 73.142-73.146c0-40.397-32.747-73.146-73.142-73.146s-73.143 32.749-73.143 73.146z" />
<glyph unicode="&#xe92d;" glyph-name="icon-user" d="M512.001 704c-80.791 0-146.285-65.494-146.285-146.286s65.494-146.285 146.285-146.285c80.792 0 146.284 65.494 146.284 146.285s-65.492 146.286-146.284 146.286zM292.572 557.714c0 121.187 98.242 219.428 219.428 219.428s219.43-98.241 219.43-219.428c0-121.187-98.243-219.428-219.43-219.428s-219.428 98.241-219.428 219.428zM512 228.934c-75.924 0-149.513-26.246-208.298-74.291-58.786-48.051-99.153-114.944-114.262-189.35-4.019-19.795-23.324-32.582-43.117-28.563s-32.582 23.322-28.563 43.117c18.466 90.944 67.804 172.704 139.653 231.424 71.849 58.726 161.791 90.81 254.587 90.81s182.739-32.083 254.586-90.81c71.853-58.72 121.19-140.48 139.654-231.424 4.019-19.795-8.768-39.098-28.563-43.117s-39.098 8.768-43.117 28.563c-15.11 74.406-55.475 141.299-114.259 189.35-58.79 48.045-132.377 74.291-208.301 74.291zM109.715 886.857c-20.198 0-36.572-16.373-36.572-36.572v-804.57c0-20.198 16.373-36.57 36.572-36.57h804.57c20.198 0 36.57 16.371 36.57 36.57v804.57c0 20.198-16.371 36.572-36.57 36.572h-804.57zM0 850.285c0 60.594 49.121 109.715 109.715 109.715h804.57c60.595 0 109.715-49.121 109.715-109.715v-804.57c0-60.595-49.12-109.715-109.715-109.715h-804.57c-60.594 0-109.715 49.12-109.715 109.715v804.57z" />
<glyph unicode="&#xe92e;" d="M694.854 411.428c0 40.396 32.749 73.143 73.146 73.143s73.146-32.748 73.146-73.143c0-40.396-32.749-73.142-73.146-73.142s-73.146 32.747-73.146 73.142z" />
<glyph unicode="&#xe92f;" d="M182.857 192c0 40.397 32.748 73.146 73.143 73.146s73.143-32.749 73.143-73.146c0-40.397-32.748-73.146-73.143-73.146s-73.143 32.749-73.143 73.146z" />
<glyph unicode="&#xe930;" d="M32.135 781.58c20.575 20.575 48.482 32.135 77.58 32.135 20.198 0 36.571-16.374 36.571-36.572s-16.373-36.572-36.571-36.572c-9.7 0-19.002-3.853-25.86-10.712s-10.711-16.161-10.711-25.86v-658.285c0-9.702 3.853-19.002 10.711-25.862 6.859-6.854 16.161-10.707 25.86-10.707h804.57c9.702 0 19.002 3.853 25.862 10.707 6.854 6.861 10.707 16.16 10.707 25.862v658.285c0 9.699-3.853 19.002-10.707 25.86-6.861 6.858-16.16 10.712-25.862 10.712h-146.285c-20.198 0-36.57 16.374-36.57 36.572s16.371 36.572 36.57 36.572h146.285c29.101 0 57.005-11.56 77.581-32.135s32.134-48.481 32.134-77.58v-658.285c0-29.101-11.558-57.005-32.134-77.581s-48.48-32.134-77.581-32.134h-804.57c-29.098 0-57.005 11.558-77.58 32.134s-32.135 48.48-32.135 77.581v658.285c0 29.098 11.559 57.004 32.135 77.58z" />
<glyph unicode="&#xe931;" d="M219.422 777.143c0 20.198 16.373 36.572 36.572 36.572h365.714c20.2 0 36.571-16.374 36.571-36.572s-16.371-36.572-36.571-36.572h-365.714c-20.198 0-36.572 16.374-36.572 36.572z" />
<glyph unicode="&#xe932;" d="M731.424 265.146c0 20.192 16.371 36.57 36.57 36.57h219.43c20.198 0 36.57-16.378 36.57-36.57 0-20.198-16.371-36.576-36.57-36.576h-219.43c-20.198 0-36.57 16.378-36.57 36.576z" />
<glyph unicode="&#xe933;" d="M109.715 886.857c-9.7 0-19.002-3.853-25.86-10.711s-10.711-16.161-10.711-25.86v-804.57c0-9.702 3.853-19.002 10.711-25.862 6.859-6.854 16.161-10.707 25.86-10.707h475.428c20.198 0 36.572-16.378 36.572-36.576s-16.374-36.57-36.572-36.57h-475.428c-29.098 0-57.005 11.558-77.58 32.134s-32.135 48.48-32.135 77.581v804.57c0 29.098 11.559 57.005 32.135 77.58s48.482 32.135 77.58 32.135h548.57c20.198 0 36.57-16.374 36.57-36.571s-16.371-36.572-36.57-36.572h-548.57z" />
<glyph unicode="&#xe934;" d="M877.709 960c13.85 0 26.515-7.826 32.71-20.216l109.715-219.429c2.534-5.078 3.859-10.678 3.859-16.355v-621.715c0-38.797-15.411-76.006-42.848-103.437-27.43-27.437-64.64-42.848-103.437-42.848s-76.006 15.411-103.443 42.848c-27.43 27.43-42.842 64.64-42.842 103.437v621.715c0 5.677 1.318 11.277 3.859 16.355l109.715 219.429c6.195 12.39 18.854 20.216 32.71 20.216zM804.563 695.366v-613.082c0-19.398 7.706-38.003 21.427-51.718 13.715-13.715 32.32-21.421 51.718-21.421s38.003 7.706 51.718 21.421c13.715 13.715 21.421 32.32 21.421 51.718v613.082l-73.139 146.286-73.146-146.286z" />
<glyph unicode="&#xe935;" d="M255.994 960c20.198 0 36.571-16.374 36.571-36.571v-950.859c0-20.198-16.373-36.57-36.571-36.57s-36.572 16.371-36.572 36.57v950.859c0 20.198 16.373 36.571 36.572 36.571z" />
<glyph unicode="&#xe936;" d="M402.285 667.428c0 20.198 16.374 36.572 36.572 36.572h146.286c20.198 0 36.572-16.374 36.572-36.572s-16.374-36.572-36.572-36.572h-146.286c-20.198 0-36.572 16.374-36.572 36.572z" />
<glyph unicode="&#xe937;" d="M502.484 886.857c-161.583 0-292.572-130.988-292.572-292.571s130.989-292.571 292.572-292.571c161.58 0 292.569 130.988 292.569 292.571s-130.989 292.571-292.569 292.571zM136.769 594.286c0 201.978 163.736 365.714 365.715 365.714 201.977 0 365.715-163.736 365.715-365.714s-163.738-365.716-365.715-365.716c-201.978 0-365.715 163.738-365.715 365.716z" />
<glyph unicode="&#xe938;" d="M502.484 704c-60.593 0-109.715-49.121-109.715-109.715s49.121-109.714 109.715-109.714c60.593 0 109.714 49.121 109.714 109.714s-49.121 109.715-109.714 109.715zM319.627 594.285c0 100.989 81.868 182.858 182.857 182.858s182.86-81.868 182.86-182.858c0-100.989-81.871-182.857-182.86-182.857s-182.857 81.868-182.857 182.857z" />
<glyph unicode="&#xe939;" d="M278.806 403.441c15.786-12.6 18.369-35.611 5.77-51.397l-188.022-235.576c-0.069-0.083-0.118-0.186-0.143-0.294s-0.024-0.218 0.001-0.326c0.025-0.109 0.074-0.211 0.143-0.294 0.041-0.051 0.088-0.096 0.141-0.134l241.88-105.638c0.006-0.006-0.006 0 0 0 0.161-0.070 0.344-0.134 0.515-0.173l64.18 269.85c4.673 19.648 24.392 31.789 44.041 27.117s31.791-24.39 27.117-44.038l-64.444-270.963c-2.522-10.182-7.187-19.712-13.681-27.955s-14.669-15.008-23.981-19.846c-0.752-0.39-1.517-0.749-2.294-1.088-9.558-4.147-19.867-6.291-30.287-6.291s-20.728 2.144-30.287 6.291l-243.904 106.541c-10.087 4.768-18.963 11.763-25.962 20.454-6.998 8.685-11.938 18.848-14.447 29.722s-2.522 22.17-0.040 33.050c2.479 10.861 7.384 21.024 14.347 29.722 0.009 0.013-0.009-0.006 0 0l187.96 235.501c12.6 15.786 35.611 18.37 51.397 5.77z" />
<glyph unicode="&#xe93a;" d="M737.35 417.508c15.878 12.481 38.867 9.725 51.347-6.156l195.648-248.94c7.155-8.589 12.198-18.733 14.733-29.626 2.541-10.938 2.483-22.317-0.179-33.222-2.426-10.874-7.309-21.050-14.266-29.747-7.117-8.89-16.198-15.994-26.541-20.755l-0.576-0.262-241.229-105.99c-9.504-4.256-19.802-6.464-30.214-6.464-10.49 0-20.858 2.234-30.419 6.554l-0.672 0.307c-9.734 4.634-18.323 11.373-25.151 19.725-6.828 8.346-11.727 18.093-14.345 28.557l-0.086 0.346-65.827 274.285c-4.714 19.635 7.387 39.379 27.027 44.096 19.64 4.71 39.383-7.386 44.097-27.027l65.671-273.632c0 0 0 0 0 0l0.352 0.16 240.8 105.798c0.045 0.224 0.096 0.442 0.147 0.666-0.154 0.186-0.301 0.371-0.454 0.557l-196.019 249.42c-12.48 15.88-9.728 38.871 6.157 51.352z" />
<glyph unicode="&#xe93b;" d="M402.276 886.857c-20.198 0-36.571-16.373-36.571-36.572v-36.571c0-20.198 16.373-36.572 36.571-36.572h219.429c20.195 0 36.573 16.373 36.573 36.572v36.571c0 20.198-16.378 36.572-36.573 36.572h-219.429zM292.563 850.285c0 60.594 49.121 109.715 109.714 109.715h219.429c60.592 0 109.712-49.121 109.712-109.715v-36.571c0-60.594-49.12-109.715-109.712-109.715h-219.429c-60.593 0-109.714 49.121-109.714 109.715v36.571z" />
<glyph unicode="&#xe93c;" d="M677.658 552.152c17.133-10.705 22.336-33.268 11.629-50.396l-182.854-292.573c-5.427-8.678-14.244-14.688-24.308-16.57-10.065-1.875-20.456 0.55-28.647 6.694l-146.285 109.715c-16.158 12.12-19.433 35.043-7.315 51.201s35.042 19.433 51.2 7.314l114.433-85.824 161.754 258.807c10.705 17.128 33.267 22.335 50.394 11.63z" />
<glyph unicode="&#xe93d;" d="M219.433 813.715c-9.699 0-19.002-3.853-25.86-10.712s-10.712-16.161-10.712-25.86v-731.428c0-9.702 3.853-19.002 10.712-25.862 6.858-6.854 16.161-10.707 25.86-10.707h585.143c9.702 0 19.002 3.853 25.862 10.707 6.854 6.861 10.707 16.16 10.707 25.862v731.428c0 9.699-3.853 19.001-10.707 25.86-6.861 6.858-16.16 10.712-25.862 10.712h-109.715c-20.198 0-36.582 16.373-36.582 36.571s16.384 36.572 36.582 36.572h109.715c29.101 0 57.005-11.559 77.581-32.134s32.134-48.482 32.134-77.58v-731.428c0-29.101-11.558-57.005-32.134-77.581s-48.48-32.134-77.581-32.134h-585.143c-29.098 0-57.004 11.558-77.58 32.134s-32.134 48.48-32.134 77.581v731.428c0 29.098 11.559 57.004 32.134 77.58s48.481 32.134 77.58 32.134h109.715c20.198 0 36.558-16.373 36.558-36.572s-16.36-36.571-36.558-36.571h-109.715z" />
<glyph unicode="&#xe93e;" d="M365.716 886.857c-70.692 0-128-57.308-128-128s57.308-128 128-128c70.692 0 128 57.308 128 128s-57.308 128-128 128zM164.573 758.857c0 111.089 90.054 201.143 201.142 201.143s201.143-90.054 201.143-201.143c0-111.088-90.054-201.142-201.143-201.142s-201.142 90.054-201.142 201.142z" />
<glyph unicode="&#xe93f;" d="M284.133 512.447c53.645 12.186 109.351 12.088 162.952-0.287 19.681-4.544 31.951-24.181 27.407-43.861s-24.18-31.951-43.86-27.407c-42.86 9.895-87.402 9.974-130.297 0.23s-83.032-29.059-117.411-56.499c-34.379-27.441-62.11-62.298-81.12-101.966s-28.808-83.117-28.66-127.104l0.001-0.122v-73.146h365.714c20.198 0 36.572-16.371 36.572-36.57s-16.374-36.57-36.572-36.57h-402.286c-20.198 0-36.571 16.371-36.571 36.57v109.658c-0.175 54.989 12.078 109.306 35.843 158.893 23.775 49.612 58.456 93.204 101.451 127.523s93.192 58.472 146.837 70.659z" />
<glyph unicode="&#xe940;" d="M586.136 448h363.732c9.613 0.442 19.213-1.075 28.23-4.465 9.459-3.557 18.048-9.094 25.197-16.241s12.685-15.737 16.243-25.197c3.386-9.015 4.902-18.621 4.461-28.232v-94.864c-0.083-72.941-22.054-144.166-63.078-204.474-41.024-60.301-99.206-106.899-167.014-133.76l-13.472 33.997 12.435-34.394c-16.070-5.811-33.664-5.811-49.734 0l-1.037 0.397c-67.808 26.861-125.991 73.459-167.015 133.76-41.023 60.307-63 131.578-63.082 204.512v94.826c-0.442 9.611 1.075 19.217 4.465 28.232 3.557 9.46 9.094 18.051 16.241 25.197s15.737 12.684 25.197 16.241c9.015 3.389 18.621 4.907 28.232 4.465zM768 9.178c53.754 21.53 99.866 58.605 132.442 106.496 32.787 48.192 50.349 105.12 50.419 163.405v95.779h-365.716v-95.798c0.070-58.278 17.633-115.2 50.415-163.386 32.575-47.891 78.693-84.966 132.44-106.496z" />
<glyph unicode="&#xe941;" d="M0 777.142c0 40.396 32.747 73.143 73.143 73.143s73.142-32.748 73.142-73.143c0-40.396-32.747-73.143-73.142-73.143s-73.143 32.748-73.143 73.143z" />
<glyph unicode="&#xe942;" d="M292.563 777.144c0 20.198 16.374 36.571 36.572 36.571h658.284c20.198 0 36.576-16.373 36.576-36.571s-16.378-36.572-36.576-36.572h-658.284c-20.198 0-36.572 16.373-36.572 36.572z" />
<glyph unicode="&#xe943;" d="M0 447.999c0 40.396 32.747 73.143 73.143 73.143s73.142-32.748 73.142-73.143c0-40.396-32.747-73.143-73.142-73.143s-73.143 32.748-73.143 73.143z" />
<glyph unicode="&#xe944;" d="M292.563 447.999c0 20.198 16.374 36.572 36.572 36.572h658.284c20.198 0 36.576-16.374 36.576-36.572s-16.378-36.572-36.576-36.572h-658.284c-20.198 0-36.572 16.374-36.572 36.572z" />
<glyph unicode="&#xe945;" d="M0 118.854c0 40.397 32.747 73.146 73.143 73.146s73.142-32.749 73.142-73.146c0-40.39-32.747-73.139-73.142-73.139s-73.143 32.749-73.143 73.139z" />
<glyph unicode="&#xe946;" d="M292.563 118.861c0 20.198 16.374 36.57 36.572 36.57h658.284c20.198 0 36.576-16.371 36.576-36.57s-16.378-36.576-36.576-36.576h-658.284c-20.198 0-36.572 16.378-36.572 36.576z" />
<glyph unicode="&#xe947;" d="M512.009 118.861c20.198 0 36.572-16.378 36.572-36.576v-109.709c0-20.198-16.374-36.576-36.572-36.576s-36.572 16.378-36.572 36.576v109.709c0 20.198 16.374 36.576 36.572 36.576z" />
<glyph unicode="&#xe948;" d="M278.934 214.931c14.282-14.278 14.282-37.434 0-51.718l-77.532-77.53c-14.282-14.285-37.438-14.285-51.72 0s-14.282 37.44 0 51.718l77.531 77.53c14.282 14.285 37.438 14.285 51.72 0z" />
<glyph unicode="&#xe949;" d="M316.066 921.026c62.119 25.73 128.697 38.974 195.934 38.974v-36.577l0.093 36.577c101.172-0.256 200.010-30.438 284.061-86.745 84.058-56.308 149.574-136.225 188.307-229.69s48.954-196.3 29.363-295.558c-19.584-99.258-68.096-190.503-139.43-262.247-6.854-6.893-16.166-10.778-25.882-10.79-9.722-0.013-19.046 3.84-25.914 10.714l-325.747 325.745h-460.28c-9.699 0-19.001 3.853-25.86 10.712s-10.712 16.161-10.712 25.86c0 135.791 53.943 266.020 149.962 362.038 47.543 47.544 103.986 85.258 166.104 110.988zM511.954 886.857c-57.616-0.006-114.667-11.357-167.898-33.406-53.244-22.054-101.624-54.38-142.375-95.132-73.638-73.638-118.404-170.749-127.013-273.747h437.332c9.699 0 19.002-3.853 25.86-10.712l309.436-309.437c47.661 56.698 80.352 124.691 94.771 197.745 16.794 85.099 8.032 173.264-25.171 253.396-33.21 80.132-89.382 148.648-161.446 196.924-72.051 48.266-156.772 74.142-243.496 74.371z" />
<glyph unicode="&#xe94a;" d="M1009.357 404.127c16.16-12.109 19.45-35.030 7.341-51.196l-301.35-402.288c-5.811-7.763-14.47-12.896-24.077-14.272-9.6-1.376-19.354 1.114-27.117 6.931l-201.142 150.675c-16.165 12.109-19.453 35.027-7.344 51.194s35.030 19.456 51.196 7.347l171.87-128.749 279.424 373.013c12.109 16.166 35.034 19.453 51.2 7.344z" />
<glyph unicode="&#xe94b;" d="M365.721 886.857c-70.692 0-128-57.308-128-128s57.308-128 128-128c70.692 0 128 57.308 128 128s-57.308 128-128 128zM164.578 758.857c0 111.089 90.055 201.143 201.143 201.143s201.143-90.054 201.143-201.143c0-111.088-90.055-201.142-201.143-201.142s-201.143 90.054-201.143 201.142z" />
<glyph unicode="&#xe94c;" d="M422.721 442.103c-56.719 11.268-115.506 5.474-168.934-16.649s-99.103-59.583-131.255-107.649c-32.148-48.058-49.335-104.57-49.389-162.394v-73.126h146.285c20.198 0 36.572-16.371 36.572-36.57s-16.374-36.57-36.572-36.57h-182.857c-20.198 0-36.571 16.371-36.571 36.57v109.715c0.064 72.282 21.547 142.957 61.736 203.042 40.189 60.083 97.283 106.907 164.068 134.561s140.269 34.895 211.168 20.811c70.9-14.084 136.035-48.864 187.18-99.945 14.291-14.273 14.305-37.429 0.032-51.72s-37.428-14.305-51.72-0.033c-40.916 40.865-93.024 68.689-149.743 79.956z" />
<glyph unicode="&#xe94d;" d="M365.721 886.857c-70.692 0-128-57.308-128-128s57.308-128 128-128c70.692 0 128 57.308 128 128s-57.308 128-128 128zM164.578 758.857c0 111.089 90.055 201.143 201.143 201.143s201.143-90.054 201.143-201.143c0-111.088-90.055-201.142-201.143-201.142s-201.143 90.054-201.143 201.142z" />
<glyph unicode="&#xe94e;" d="M495.861 415.182c-44.484 21.876-93.787 32.12-143.303 29.776s-97.631-17.2-139.85-43.181c-42.218-25.98-77.163-62.237-101.57-105.387-24.377-43.091-37.448-91.654-37.996-141.158v-72.947h182.857c20.198 0 36.572-16.371 36.572-36.57s-16.374-36.57-36.572-36.57h-219.429c-20.198 0-36.571 16.371-36.571 36.57v110.093c0.647 61.933 16.982 122.688 47.475 176.596s74.152 99.206 126.899 131.665 112.86 51.021 174.724 53.949c61.865 2.929 123.462-9.87 179.040-37.201 18.125-8.913 25.592-30.832 16.679-48.957s-30.832-25.592-48.957-16.679z" />
<glyph unicode="&#xe94f;" d="M852.826 509.44c9.709 0.005 19.014-3.848 25.882-10.712l134.579-134.582c14.285-14.282 14.285-37.438 0-51.717l-344.499-344.506c-5.658-5.651-13.005-9.299-20.928-10.374l-155.794-21.216c-11.352-1.542-22.771 2.317-30.853 10.438s-11.892 19.558-10.295 30.899l21.943 155.795c1.105 7.846 4.73 15.123 10.327 20.73l343.77 344.506c6.854 6.871 16.166 10.734 25.869 10.739zM852.87 421.121l-309.285-309.947-13.5-95.846 95.695 13.030 309.925 309.928-82.835 82.835z" />
<glyph unicode="&#xe950;" d="M512.006 704c-80.791 0-146.285-65.494-146.285-146.286s65.494-146.285 146.285-146.285c80.792 0 146.285 65.494 146.285 146.285s-65.493 146.286-146.285 146.286zM292.578 557.714c0 121.187 98.242 219.428 219.428 219.428s219.43-98.241 219.43-219.428c0-121.187-98.243-219.428-219.43-219.428s-219.428 98.241-219.428 219.428z" />
<glyph unicode="&#xe951;" d="M245.687 201.126c73.517 64.934 168.225 100.768 266.313 100.768s192.794-35.834 266.31-100.768c15.142-13.37 16.576-36.486 3.2-51.622-13.37-15.136-36.48-16.57-51.616-3.2-60.154 53.126-137.641 82.451-217.894 82.451s-157.742-29.325-217.892-82.451c-15.139-13.37-38.25-11.936-51.62 3.2s-11.939 38.253 3.2 51.622z" />
<glyph unicode="&#xe952;" d="M987.424 228.57c20.198 0 36.57-16.371 36.57-36.57v-146.285c0-29.101-11.558-57.005-32.134-77.581s-48.48-32.134-77.581-32.134h-146.285c-20.198 0-36.57 16.371-36.57 36.57s16.371 36.576 36.57 36.576h146.285c9.702 0 19.002 3.853 25.862 10.707 6.854 6.861 10.707 16.16 10.707 25.862v146.285c0 20.198 16.378 36.57 36.576 36.57z" />
<glyph unicode="&#xe953;" d="M731.424 923.429c0 20.198 16.371 36.571 36.57 36.571h146.285c29.101 0 57.005-11.559 77.581-32.135s32.134-48.482 32.134-77.58v-146.285c0-20.198-16.371-36.572-36.57-36.572s-36.576 16.374-36.576 36.572v146.285c0 9.7-3.853 19.002-10.707 25.86-6.861 6.858-16.16 10.711-25.862 10.711h-146.285c-20.198 0-36.57 16.374-36.57 36.572z" />
<glyph unicode="&#xe954;" d="M109.715 886.857c-9.7 0-19.002-3.853-25.86-10.711s-10.711-16.161-10.711-25.86v-146.285c0-20.198-16.374-36.572-36.572-36.572s-36.571 16.374-36.571 36.572v146.285c0 29.098 11.559 57.005 32.135 77.58s48.482 32.135 77.58 32.135h146.285c20.198 0 36.572-16.374 36.572-36.571s-16.374-36.572-36.572-36.572h-146.285z" />
<glyph unicode="&#xe955;" d="M36.571 228.57c20.198 0 36.572-16.371 36.572-36.57v-146.285c0-9.702 3.853-19.002 10.711-25.862 6.859-6.854 16.161-10.707 25.86-10.707h146.285c20.198 0 36.572-16.378 36.572-36.576s-16.374-36.57-36.572-36.57h-146.285c-29.098 0-57.005 11.558-77.58 32.134s-32.135 48.48-32.135 77.581v146.285c0 20.198 16.374 36.57 36.571 36.57z" />
<glyph unicode="&#xe956;" d="M0 923.429c0 20.198 16.374 36.571 36.571 36.571h292.572c20.198 0 36.572-16.374 36.572-36.571v-827.429c0-20.198-16.374-36.57-36.572-36.57s-36.572 16.371-36.572 36.57v790.857h-219.428v-914.287c0-20.198-16.374-36.57-36.572-36.57s-36.571 16.371-36.571 36.57v950.859z" />
<glyph unicode="&#xe957;" d="M585.156 703.999c0 20.198 16.373 36.572 36.571 36.572h292.57c20.198 0 36.576-16.374 36.576-36.572v-731.429c0-20.198-16.378-36.57-36.576-36.57s-36.57 16.371-36.57 36.57v694.858h-219.43v-603.427c0-20.198-16.371-36.57-36.57-36.57-20.198 0-36.571 16.371-36.571 36.57v639.999z" />
<glyph unicode="&#xe958;" d="M292.563 484.569c0 20.198 16.374 36.572 36.572 36.572h292.572c20.195 0 36.573-16.373 36.573-36.572v-475.571h-73.144v439h-219.428v-439h-73.143v475.571z" />
<glyph unicode="&#xe959;" d="M0-27.43c0 20.198 16.374 36.57 36.571 36.57h950.859c20.198 0 36.57-16.371 36.57-36.57s-16.371-36.57-36.57-36.57h-950.859c-20.198 0-36.571 16.371-36.571 36.57z" />
<glyph unicode="&#xe95a;" d="M109.715 886.857c-9.7 0-19.002-3.853-25.86-10.711s-10.711-16.161-10.711-25.86v-804.57c0-9.702 3.853-19.002 10.711-25.862 6.859-6.854 16.161-10.707 25.86-10.707h146.285c20.198 0 36.572-16.378 36.572-36.576s-16.374-36.57-36.572-36.57h-146.285c-29.098 0-57.005 11.558-77.58 32.134s-32.135 48.48-32.135 77.581v804.57c0 29.098 11.559 57.005 32.135 77.58s48.482 32.135 77.58 32.135h804.57c29.101 0 57.005-11.559 77.581-32.135s32.134-48.482 32.134-77.58v-804.57c0-29.101-11.558-57.005-32.134-77.581s-48.48-32.134-77.581-32.134h-146.285c-20.198 0-36.57 16.371-36.57 36.57s16.371 36.576 36.57 36.576h146.285c9.702 0 19.002 3.853 25.862 10.707 6.854 6.861 10.707 16.16 10.707 25.862v804.57c0 9.7-3.853 19.002-10.707 25.86-6.861 6.858-16.16 10.711-25.862 10.711h-804.57z" />
<glyph unicode="&#xe95b;" d="M511.994 521.142c20.198 0 36.571-16.373 36.571-36.572v-256.001c0-20.198-16.373-36.57-36.571-36.57s-36.572 16.371-36.572 36.57v256.001c0 20.198 16.373 36.572 36.572 36.572z" />
<glyph unicode="&#xe95c;" d="M438.857 9.146c0 40.39 32.748 73.139 73.143 73.139s73.143-32.749 73.143-73.139c0-40.397-32.748-73.146-73.143-73.146s-73.143 32.749-73.143 73.146z" />
<glyph unicode="&#xe95d;" d="M0 704c0 20.198 16.374 36.572 36.571 36.572h950.859c20.198 0 36.57-16.374 36.57-36.572s-16.371-36.572-36.57-36.572h-950.859c-20.198 0-36.571 16.374-36.571 36.572z" />
<glyph unicode="&#xe95e;" d="M859.418 886.857c-24.25 0-47.507-9.633-64.653-26.779s-26.778-40.401-26.778-64.65v-54.857h182.854v54.857c0 24.248-9.632 47.504-26.778 64.65s-40.403 26.779-64.646 26.779zM743.046 911.798c30.861 30.863 72.723 48.202 116.371 48.202 43.642 0 85.504-17.339 116.365-48.202 30.867-30.863 48.205-72.722 48.205-116.37v-54.857c0-19.399-7.706-38.003-21.421-51.72-13.722-13.717-32.326-21.423-51.725-21.423h-219.424c-20.198 0-36.576 16.374-36.576 36.572v91.428c0 43.647 17.344 85.507 48.205 116.37z" />
<glyph unicode="&#xe95f;" d="M402.285 667.428c0 20.198 16.374 36.572 36.572 36.572h109.715c20.198 0 36.572-16.374 36.572-36.572s-16.374-36.572-36.572-36.572h-109.715c-20.198 0-36.572 16.374-36.572 36.572z" />
<glyph unicode="&#xe960;" d="M329.156 447.999c0 20.198 16.373 36.572 36.571 36.572h182.858c20.198 0 36.572-16.374 36.572-36.572s-16.374-36.572-36.572-36.572h-182.858c-20.198 0-36.571 16.374-36.571 36.572z" />
<glyph unicode="&#xe961;" d="M329.156 228.576c0 20.192 16.373 36.57 36.571 36.57h182.858c20.198 0 36.572-16.378 36.572-36.57 0-20.198-16.374-36.576-36.572-36.576h-182.858c-20.198 0-36.571 16.378-36.571 36.576z" />
<glyph unicode="&#xe962;" d="M329.143 886.857c-29.098 0-57.005-11.559-77.58-32.134s-32.134-48.482-32.134-77.58v-658.289c0-39.789-12.97-78.246-36.57-109.709h402.285c29.098 0 57.001 11.558 77.577 32.134s32.134 48.48 32.134 77.574l-0.013 585.146c0 20.198 16.39 36.572 36.589 36.572s36.57-16.374 36.57-36.572v-585.146c0-48.493-19.264-95.002-53.555-129.299-34.298-34.291-80.805-53.555-129.302-53.555h-548.572c-20.198 0-36.571 16.371-36.571 36.57s16.374 36.576 36.571 36.576c29.098 0 57.004 11.558 77.58 32.134s32.134 48.48 32.134 77.574v658.289c0 48.497 19.265 95.007 53.558 129.299s80.803 53.558 129.3 53.558h530.275c20.198 0 36.582-16.374 36.582-36.571s-16.384-36.572-36.582-36.572h-530.275z" />
</font>
</defs>
</svg>
