<svg aria-hidden="true" style="position: absolute; width: 0; height: 0; overflow: hidden;" version="1.1" xmlns="http://www.w3.org/2000/svg" xmlns:xlink="http://www.w3.org/1999/xlink">
<defs>
<symbol id="icon-assignment" viewBox="0 0 32 32">
<path fill="#6d7e82" style="fill: var(--color1, #6d7e82)" d="M3.429 2.286c-0.631 0-1.143 0.512-1.143 1.143v25.143c0 0.631 0.512 1.143 1.143 1.143h25.143c0.631 0 1.143-0.512 1.143-1.143v-25.143c0-0.631-0.512-1.143-1.143-1.143h-25.143zM0 3.429c0-1.894 1.535-3.429 3.429-3.429h25.143c1.894 0 3.429 1.535 3.429 3.429v25.143c0 1.894-1.535 3.429-3.429 3.429h-25.143c-1.894 0-3.429-1.535-3.429-3.429v-25.143z"></path>
<path fill="#00ba7c" style="fill: var(--color2, #00ba7c)" d="M16.664 10.499c0.514 0.367 0.633 1.081 0.266 1.594l-5.714 8c-0.195 0.273-0.501 0.447-0.836 0.475s-0.665-0.093-0.902-0.331l-3.429-3.429c-0.446-0.446-0.446-1.17 0-1.616s1.17-0.446 1.616 0l2.475 2.475 4.93-6.902c0.367-0.514 1.081-0.633 1.594-0.266z"></path>
<path fill="#6d7e82" style="fill: var(--color1, #6d7e82)" d="M17.143 17.143c0-0.631 0.512-1.143 1.143-1.143h6.857c0.631 0 1.143 0.512 1.143 1.143s-0.512 1.143-1.143 1.143h-6.857c-0.631 0-1.143-0.512-1.143-1.143z"></path>
</symbol>
<symbol id="icon-saved-views" viewBox="0 0 32 32">
<path fill="#00ba7c" style="fill: var(--color2, #00ba7c)" d="M6.857 9.143c-0.303 0-0.594 0.12-0.808 0.335s-0.335 0.505-0.335 0.808v18.087l6.113-5.24c0.428-0.367 1.060-0.367 1.488 0l6.113 5.24v-18.087c0-0.303-0.12-0.594-0.335-0.808s-0.505-0.335-0.808-0.335h-11.429zM4.433 7.861c0.643-0.643 1.515-1.004 2.424-1.004h11.429c0.909 0 1.781 0.361 2.424 1.004s1.004 1.515 1.004 2.424v20.571c0 0.446-0.26 0.852-0.665 1.038s-0.883 0.12-1.221-0.171l-7.256-6.22-7.256 6.22c-0.339 0.291-0.816 0.357-1.221 0.171s-0.665-0.592-0.665-1.038v-20.571c0-0.909 0.361-1.781 1.004-2.424z"></path>
<path fill="#9ea9ac" style="fill: var(--color3, #9ea9ac)" d="M10.286 1.143c0-0.631 0.512-1.143 1.143-1.143h13.714c0.909 0 1.781 0.361 2.424 1.004s1.004 1.515 1.004 2.424v20.571c0 0.631-0.512 1.143-1.143 1.143s-1.143-0.512-1.143-1.143v-20.571c0-0.303-0.12-0.594-0.335-0.808s-0.505-0.335-0.808-0.335h-13.714c-0.631 0-1.143-0.512-1.143-1.143z"></path>
</symbol>
<symbol id="icon-calendar-mark" viewBox="0 0 32 32">
<path fill="#6d7e82" style="fill: var(--color1, #6d7e82)" d="M8 0c0.631 0 1.143 0.512 1.143 1.143v9.143c0 0.631-0.512 1.143-1.143 1.143s-1.143-0.512-1.143-1.143v-9.143c0-0.631 0.512-1.143 1.143-1.143z"></path>
<path fill="#6d7e82" style="fill: var(--color1, #6d7e82)" d="M24 0c0.631 0 1.143 0.512 1.143 1.143v9.143c0 0.631-0.512 1.143-1.143 1.143s-1.143-0.512-1.143-1.143v-9.143c0-0.631 0.512-1.143 1.143-1.143z"></path>
<path fill="#00ba7c" style="fill: var(--color2, #00ba7c)" d="M5.714 17.143c0-1.262 1.023-2.286 2.286-2.286s2.286 1.023 2.286 2.286c0 1.262-1.023 2.286-2.286 2.286s-2.286-1.023-2.286-2.286z"></path>
<path fill="#00ba7c" style="fill: var(--color2, #00ba7c)" d="M13.714 17.143c0-1.262 1.023-2.286 2.286-2.286s2.286 1.023 2.286 2.286c0 1.262-1.023 2.286-2.286 2.286s-2.286-1.023-2.286-2.286z"></path>
<path fill="#00ba7c" style="fill: var(--color2, #00ba7c)" d="M21.714 17.143c0-1.262 1.023-2.286 2.286-2.286s2.286 1.023 2.286 2.286c0 1.262-1.023 2.286-2.286 2.286s-2.286-1.023-2.286-2.286z"></path>
<path fill="#00ba7c" style="fill: var(--color2, #00ba7c)" d="M5.714 24c0-1.262 1.023-2.286 2.286-2.286s2.286 1.023 2.286 2.286c0 1.262-1.023 2.286-2.286 2.286s-2.286-1.023-2.286-2.286z"></path>
<path fill="#6d7e82" style="fill: var(--color1, #6d7e82)" d="M1.004 5.576c0.643-0.643 1.515-1.004 2.424-1.004 0.631 0 1.143 0.512 1.143 1.143s-0.512 1.143-1.143 1.143c-0.303 0-0.594 0.12-0.808 0.335s-0.335 0.505-0.335 0.808v20.571c0 0.303 0.12 0.594 0.335 0.808s0.505 0.335 0.808 0.335h25.143c0.303 0 0.594-0.12 0.808-0.335s0.335-0.505 0.335-0.808v-20.571c0-0.303-0.12-0.594-0.335-0.808s-0.505-0.335-0.808-0.335h-4.571c-0.631 0-1.143-0.512-1.143-1.143s0.512-1.143 1.143-1.143h4.571c0.909 0 1.781 0.361 2.424 1.004s1.004 1.515 1.004 2.424v20.571c0 0.909-0.361 1.781-1.004 2.424s-1.515 1.004-2.424 1.004h-25.143c-0.909 0-1.781-0.361-2.424-1.004s-1.004-1.515-1.004-2.424v-20.571c0-0.909 0.361-1.781 1.004-2.424z"></path>
<path fill="#6d7e82" style="fill: var(--color1, #6d7e82)" d="M6.857 5.714c0-0.631 0.512-1.143 1.143-1.143h11.429c0.631 0 1.143 0.512 1.143 1.143s-0.512 1.143-1.143 1.143h-11.429c-0.631 0-1.143-0.512-1.143-1.143z"></path>
</symbol>
<symbol id="icon-book-edit" viewBox="0 0 32 32">
<path fill="#00ba7c" style="fill: var(--color2, #00ba7c)" d="M22.857 21.714c0-0.631 0.512-1.143 1.143-1.143h6.857c0.631 0 1.143 0.512 1.143 1.143s-0.512 1.143-1.143 1.143h-6.857c-0.631 0-1.143-0.512-1.143-1.143z"></path>
<path fill="#6d7e82" style="fill: var(--color1, #6d7e82)" d="M3.429 2.286c-0.303 0-0.594 0.12-0.808 0.335s-0.335 0.505-0.335 0.808v25.143c0 0.303 0.12 0.594 0.335 0.808s0.505 0.335 0.808 0.335h14.857c0.631 0 1.143 0.512 1.143 1.143s-0.512 1.143-1.143 1.143h-14.857c-0.909 0-1.781-0.361-2.424-1.004s-1.004-1.515-1.004-2.424v-25.143c0-0.909 0.361-1.781 1.004-2.424s1.515-1.004 2.424-1.004h17.143c0.631 0 1.143 0.512 1.143 1.143s-0.512 1.143-1.143 1.143h-17.143z"></path>
<path fill="#00ba7c" style="fill: var(--color2, #00ba7c)" d="M27.428 0c0.433 0 0.829 0.245 1.022 0.632l3.429 6.857c0.079 0.159 0.121 0.334 0.121 0.511v19.429c0 1.212-0.482 2.375-1.339 3.232s-2.020 1.339-3.232 1.339-2.375-0.482-3.233-1.339c-0.857-0.857-1.339-2.020-1.339-3.232v-19.429c0-0.177 0.041-0.352 0.121-0.511l3.429-6.857c0.194-0.387 0.589-0.632 1.022-0.632zM25.143 8.27v19.159c0 0.606 0.241 1.188 0.67 1.616s1.010 0.669 1.616 0.669 1.188-0.241 1.616-0.669c0.429-0.429 0.669-1.010 0.669-1.616v-19.159l-2.286-4.571-2.286 4.571z"></path>
<path fill="#6d7e82" style="fill: var(--color1, #6d7e82)" d="M8 0c0.631 0 1.143 0.512 1.143 1.143v29.714c0 0.631-0.512 1.143-1.143 1.143s-1.143-0.512-1.143-1.143v-29.714c0-0.631 0.512-1.143 1.143-1.143z"></path>
<path fill="#6d7e82" style="fill: var(--color1, #6d7e82)" d="M12.571 9.143c0-0.631 0.512-1.143 1.143-1.143h4.571c0.631 0 1.143 0.512 1.143 1.143s-0.512 1.143-1.143 1.143h-4.571c-0.631 0-1.143-0.512-1.143-1.143z"></path>
</symbol>
<symbol id="icon-favorite-award" viewBox="0 0 32 32">
<path fill="#6d7e82" style="fill: var(--color1, #6d7e82)" d="M15.703 2.286c-5.049 0-9.143 4.093-9.143 9.143s4.093 9.143 9.143 9.143c5.049 0 9.143-4.093 9.143-9.143s-4.093-9.143-9.143-9.143zM4.274 11.429c0-6.312 5.117-11.429 11.429-11.429s11.429 5.117 11.429 11.429-5.117 11.429-11.429 11.429c-6.312 0-11.429-5.117-11.429-11.429z"></path>
<path fill="#00ba7c" style="fill: var(--color2, #00ba7c)" d="M15.703 8c-1.894 0-3.429 1.535-3.429 3.429s1.535 3.429 3.429 3.429c1.894 0 3.429-1.535 3.429-3.429s-1.535-3.429-3.429-3.429zM9.988 11.429c0-3.156 2.558-5.714 5.714-5.714s5.714 2.558 5.714 5.714c0 3.156-2.558 5.714-5.714 5.714s-5.714-2.558-5.714-5.714z"></path>
<path fill="#6d7e82" style="fill: var(--color1, #6d7e82)" d="M8.713 17.392c0.493 0.394 0.574 1.113 0.18 1.606l-5.876 7.362c-0.002 0.003-0.004 0.006-0.004 0.009s-0.001 0.007 0 0.010c0.001 0.003 0.002 0.007 0.004 0.009s0.003 0.003 0.004 0.004l7.559 3.301c0 0-0 0 0 0 0.005 0.002 0.011 0.004 0.016 0.005l2.006-8.433c0.146-0.614 0.762-0.993 1.376-0.847s0.993 0.762 0.847 1.376l-2.014 8.468c-0.079 0.318-0.225 0.616-0.428 0.874s-0.458 0.469-0.749 0.62c-0.024 0.012-0.047 0.023-0.072 0.034-0.299 0.13-0.621 0.197-0.946 0.197s-0.648-0.067-0.946-0.197l-7.622-3.329c-0.315-0.149-0.593-0.368-0.811-0.639s-0.373-0.589-0.451-0.929-0.079-0.693-0.001-1.033c0.077-0.339 0.231-0.657 0.448-0.929 0-0-0 0 0 0l5.874-7.359c0.394-0.493 1.113-0.574 1.606-0.18z"></path>
<path fill="#6d7e82" style="fill: var(--color1, #6d7e82)" d="M23.042 16.953c0.496-0.39 1.215-0.304 1.605 0.192l6.114 7.779c0.224 0.268 0.381 0.585 0.46 0.926 0.079 0.342 0.078 0.697-0.006 1.038-0.076 0.34-0.228 0.658-0.446 0.93-0.222 0.278-0.506 0.5-0.829 0.649l-0.018 0.008-7.538 3.312c-0.297 0.133-0.619 0.202-0.944 0.202-0.328 0-0.652-0.070-0.951-0.205l-0.021-0.010c-0.304-0.145-0.573-0.355-0.786-0.616s-0.366-0.565-0.448-0.892l-0.003-0.011-2.057-8.571c-0.147-0.614 0.231-1.231 0.845-1.378s1.231 0.231 1.378 0.845l2.052 8.551c0 0 0 0 0 0l0.011-0.005 7.525-3.306c0.001-0.007 0.003-0.014 0.005-0.021-0.005-0.006-0.009-0.012-0.014-0.017l-6.126-7.794c-0.39-0.496-0.304-1.215 0.192-1.605z"></path>
</symbol>
<symbol id="icon-clipboard-check" viewBox="0 0 32 32">
<path fill="#6d7e82" style="fill: var(--color1, #6d7e82)" d="M12.571 2.286c-0.631 0-1.143 0.512-1.143 1.143v1.143c0 0.631 0.512 1.143 1.143 1.143h6.857c0.631 0 1.143-0.512 1.143-1.143v-1.143c0-0.631-0.512-1.143-1.143-1.143h-6.857zM9.143 3.429c0-1.894 1.535-3.429 3.429-3.429h6.857c1.893 0 3.428 1.535 3.428 3.429v1.143c0 1.894-1.535 3.429-3.428 3.429h-6.857c-1.894 0-3.429-1.535-3.429-3.429v-1.143z"></path>
<path fill="#00ba7c" style="fill: var(--color2, #00ba7c)" d="M21.177 12.745c0.535 0.335 0.698 1.040 0.363 1.575l-5.714 9.143c-0.17 0.271-0.445 0.459-0.76 0.518s-0.639-0.017-0.895-0.209l-4.571-3.429c-0.505-0.379-0.607-1.095-0.229-1.6s1.095-0.607 1.6-0.229l3.576 2.682 5.055-8.088c0.335-0.535 1.040-0.698 1.575-0.363z"></path>
<path fill="#6d7e82" style="fill: var(--color1, #6d7e82)" d="M6.857 4.571c-0.303 0-0.594 0.12-0.808 0.335s-0.335 0.505-0.335 0.808v22.857c0 0.303 0.12 0.594 0.335 0.808s0.505 0.335 0.808 0.335h18.286c0.303 0 0.594-0.12 0.808-0.335s0.335-0.505 0.335-0.808v-22.857c0-0.303-0.12-0.594-0.335-0.808s-0.505-0.335-0.808-0.335h-3.429c-0.631 0-1.143-0.512-1.143-1.143s0.512-1.143 1.143-1.143h3.429c0.909 0 1.781 0.361 2.424 1.004s1.004 1.515 1.004 2.424v22.857c0 0.909-0.361 1.781-1.004 2.424s-1.515 1.004-2.424 1.004h-18.286c-0.909 0-1.781-0.361-2.424-1.004s-1.004-1.515-1.004-2.424v-22.857c0-0.909 0.361-1.781 1.004-2.424s1.515-1.004 2.424-1.004h3.429c0.631 0 1.142 0.512 1.142 1.143s-0.511 1.143-1.142 1.143h-3.429z"></path>
</symbol>
<symbol id="icon-security-shield" viewBox="0 0 32 32">
<path fill="#6d7e82" style="fill: var(--color1, #6d7e82)" d="M11.429 2.286c-2.209 0-4 1.791-4 4s1.791 4 4 4c2.209 0 4-1.791 4-4s-1.791-4-4-4zM5.143 6.286c0-3.472 2.814-6.286 6.286-6.286s6.286 2.814 6.286 6.286c0 3.471-2.814 6.286-6.286 6.286s-6.286-2.814-6.286-6.286z"></path>
<path fill="#6d7e82" style="fill: var(--color1, #6d7e82)" d="M8.879 13.986c1.676-0.381 3.417-0.378 5.092 0.009 0.615 0.142 0.998 0.756 0.856 1.371s-0.756 0.998-1.371 0.856c-1.339-0.309-2.731-0.312-4.072-0.007s-2.595 0.908-3.669 1.766c-1.074 0.858-1.941 1.947-2.535 3.186s-0.9 2.597-0.896 3.972l0 0.004v2.286h11.429c0.631 0 1.143 0.512 1.143 1.143s-0.512 1.143-1.143 1.143h-12.571c-0.631 0-1.143-0.512-1.143-1.143v-3.427c-0.005-1.718 0.377-3.416 1.12-4.965s1.827-2.913 3.17-3.985 2.912-1.827 4.589-2.208z"></path>
<path fill="#00ba7c" style="fill: var(--color2, #00ba7c)" d="M18.317 16h11.367c0.3-0.014 0.6 0.034 0.882 0.14 0.296 0.111 0.564 0.284 0.787 0.508s0.396 0.492 0.508 0.787c0.106 0.282 0.153 0.582 0.139 0.882v2.965c-0.003 2.279-0.689 4.505-1.971 6.39s-3.1 3.341-5.219 4.18l-0.421-1.062 0.389 1.075c-0.502 0.182-1.052 0.182-1.554 0l-0.032-0.012c-2.119-0.839-3.937-2.296-5.219-4.18s-1.969-4.112-1.971-6.391v-2.963c-0.014-0.3 0.034-0.601 0.14-0.882 0.111-0.296 0.284-0.564 0.508-0.787s0.492-0.396 0.787-0.508c0.282-0.106 0.582-0.153 0.882-0.14zM24 29.713c1.68-0.673 3.121-1.831 4.139-3.328 1.025-1.506 1.573-3.285 1.576-5.106v-2.993h-11.429v2.994c0.002 1.821 0.551 3.6 1.575 5.106 1.018 1.497 2.459 2.655 4.139 3.328z"></path>
</symbol>
<symbol id="icon-list-bullets" viewBox="0 0 32 32">
<path fill="#6d7e82" style="fill: var(--color1, #6d7e82)" d="M0 5.714c0-1.262 1.023-2.286 2.286-2.286s2.286 1.023 2.286 2.286c0 1.262-1.023 2.286-2.286 2.286s-2.286-1.023-2.286-2.286z"></path>
<path fill="#6d7e82" style="fill: var(--color1, #6d7e82)" d="M9.143 5.714c0-0.631 0.512-1.143 1.143-1.143h20.571c0.631 0 1.143 0.512 1.143 1.143s-0.512 1.143-1.143 1.143h-20.571c-0.631 0-1.143-0.512-1.143-1.143z"></path>
<path fill="#00ba7c" style="fill: var(--color2, #00ba7c)" d="M0 16c0-1.262 1.023-2.286 2.286-2.286s2.286 1.023 2.286 2.286c0 1.262-1.023 2.286-2.286 2.286s-2.286-1.023-2.286-2.286z"></path>
<path fill="#00ba7c" style="fill: var(--color2, #00ba7c)" d="M9.143 16c0-0.631 0.512-1.143 1.143-1.143h20.571c0.631 0 1.143 0.512 1.143 1.143s-0.512 1.143-1.143 1.143h-20.571c-0.631 0-1.143-0.512-1.143-1.143z"></path>
<path fill="#6d7e82" style="fill: var(--color1, #6d7e82)" d="M0 26.286c0-1.262 1.023-2.286 2.286-2.286s2.286 1.023 2.286 2.286c0 1.262-1.023 2.286-2.286 2.286s-2.286-1.023-2.286-2.286z"></path>
<path fill="#6d7e82" style="fill: var(--color1, #6d7e82)" d="M9.143 26.286c0-0.631 0.512-1.143 1.143-1.143h20.571c0.631 0 1.143 0.512 1.143 1.143s-0.512 1.143-1.143 1.143h-20.571c-0.631 0-1.143-0.512-1.143-1.143z"></path>
</symbol>
<symbol id="icon-nine-to-five" viewBox="0 0 32 32">
<path fill="#00ba7c" style="fill: var(--color2, #00ba7c)" d="M16 26.286c0.631 0 1.143 0.512 1.143 1.143v3.428c0 0.631-0.512 1.143-1.143 1.143s-1.143-0.512-1.143-1.143v-3.428c0-0.631 0.512-1.143 1.143-1.143z"></path>
<path fill="#00ba7c" style="fill: var(--color2, #00ba7c)" d="M8.717 23.283c0.446 0.446 0.446 1.17 0 1.616l-2.423 2.423c-0.446 0.446-1.17 0.446-1.616 0s-0.446-1.17 0-1.616l2.423-2.423c0.446-0.446 1.17-0.446 1.616 0z"></path>
<path fill="#6d7e82" style="fill: var(--color1, #6d7e82)" d="M9.877 1.218c1.941-0.804 4.022-1.218 6.123-1.218v1.143l0.003-1.143c3.162 0.008 6.25 0.951 8.877 2.711s4.674 4.257 5.885 7.178 1.53 6.134 0.918 9.236c-0.612 3.102-2.128 5.953-4.357 8.195-0.214 0.215-0.505 0.337-0.809 0.337s-0.595-0.12-0.81-0.335l-10.18-10.18h-14.384c-0.303 0-0.594-0.12-0.808-0.335s-0.335-0.505-0.335-0.808c0-4.243 1.686-8.313 4.686-11.314 1.486-1.486 3.25-2.664 5.191-3.468zM15.999 2.286c-1.8 0-3.583 0.355-5.247 1.044s-3.176 1.699-4.449 2.973c-2.301 2.301-3.7 5.336-3.969 8.555h13.667c0.303 0 0.594 0.12 0.808 0.335l9.67 9.67c1.489-1.772 2.511-3.897 2.962-6.18 0.525-2.659 0.251-5.415-0.787-7.919s-2.793-4.645-5.045-6.154c-2.252-1.508-4.899-2.317-7.609-2.324z"></path>
</symbol>
<symbol id="icon-user-check" viewBox="0 0 32 32">
<path fill="#00ba7c" style="fill: var(--color2, #00ba7c)" d="M31.542 17.371c0.505 0.378 0.608 1.095 0.229 1.6l-9.417 12.572c-0.182 0.243-0.452 0.403-0.752 0.446s-0.605-0.035-0.847-0.217l-6.286-4.709c-0.505-0.378-0.608-1.095-0.229-1.6s1.095-0.608 1.6-0.23l5.371 4.023 8.732-11.657c0.378-0.505 1.095-0.608 1.6-0.23z"></path>
<path fill="#6d7e82" style="fill: var(--color1, #6d7e82)" d="M11.429 2.286c-2.209 0-4 1.791-4 4s1.791 4 4 4c2.209 0 4-1.791 4-4s-1.791-4-4-4zM5.143 6.286c0-3.472 2.814-6.286 6.286-6.286s6.286 2.814 6.286 6.286c0 3.471-2.814 6.286-6.286 6.286s-6.286-2.814-6.286-6.286z"></path>
<path fill="#6d7e82" style="fill: var(--color1, #6d7e82)" d="M13.21 16.184c-1.772-0.352-3.61-0.171-5.279 0.52s-3.097 1.862-4.102 3.364c-1.005 1.502-1.542 3.268-1.543 5.075v2.285h4.571c0.631 0 1.143 0.512 1.143 1.143s-0.512 1.143-1.143 1.143h-5.714c-0.631 0-1.143-0.512-1.143-1.143v-3.429c0.002-2.259 0.673-4.467 1.929-6.345s3.040-3.341 5.127-4.205 4.383-1.090 6.599-0.65c2.216 0.44 4.251 1.527 5.849 3.123 0.447 0.446 0.447 1.17 0.001 1.616s-1.17 0.447-1.616 0.001c-1.279-1.277-2.907-2.147-4.679-2.499z"></path>
</symbol>
<symbol id="icon-user-edit" viewBox="0 0 32 32">
<path fill="#6d7e82" style="fill: var(--color1, #6d7e82)" d="M11.429 2.286c-2.209 0-4 1.791-4 4s1.791 4 4 4c2.209 0 4-1.791 4-4s-1.791-4-4-4zM5.143 6.286c0-3.472 2.814-6.286 6.286-6.286s6.286 2.814 6.286 6.286c0 3.471-2.814 6.286-6.286 6.286s-6.286-2.814-6.286-6.286z"></path>
<path fill="#6d7e82" style="fill: var(--color1, #6d7e82)" d="M15.496 17.026c-1.39-0.684-2.931-1.004-4.478-0.93s-3.051 0.538-4.37 1.349c-1.319 0.812-2.411 1.945-3.174 3.293-0.762 1.347-1.17 2.864-1.187 4.411v2.28h5.714c0.631 0 1.143 0.512 1.143 1.143s-0.512 1.143-1.143 1.143h-6.857c-0.631 0-1.143-0.512-1.143-1.143v-3.44c0.020-1.935 0.531-3.834 1.484-5.519s2.317-3.1 3.966-4.115 3.527-1.594 5.46-1.686c1.933-0.092 3.858 0.308 5.595 1.163 0.566 0.279 0.8 0.963 0.521 1.53s-0.963 0.8-1.53 0.521z"></path>
<path fill="#00ba7c" style="fill: var(--color2, #00ba7c)" d="M26.651 14.080c0.303-0 0.594 0.12 0.809 0.335l4.206 4.206c0.446 0.446 0.446 1.17 0 1.616l-10.766 10.766c-0.177 0.177-0.406 0.291-0.654 0.324l-4.869 0.663c-0.355 0.048-0.712-0.072-0.964-0.326s-0.372-0.611-0.322-0.966l0.686-4.869c0.035-0.245 0.148-0.473 0.323-0.648l10.743-10.766c0.214-0.215 0.505-0.335 0.808-0.336zM26.652 16.84l-9.665 9.686-0.422 2.995 2.99-0.407 9.685-9.685-2.589-2.589z"></path>
</symbol>
<symbol id="icon-user-profile" viewBox="0 0 32 32">
<path fill="#00ba7c" style="fill: var(--color2, #00ba7c)" d="M16 8c-2.525 0-4.571 2.047-4.571 4.571s2.047 4.571 4.571 4.571c2.525 0 4.571-2.047 4.571-4.571s-2.047-4.571-4.571-4.571zM9.143 12.571c0-3.787 3.070-6.857 6.857-6.857s6.857 3.070 6.857 6.857c0 3.787-3.070 6.857-6.857 6.857s-6.857-3.070-6.857-6.857z"></path>
<path fill="#00ba7c" style="fill: var(--color2, #00ba7c)" d="M7.678 23.715c2.297-2.029 5.257-3.149 8.322-3.149s6.025 1.12 8.322 3.149c0.473 0.418 0.518 1.14 0.1 1.613s-1.14 0.518-1.613 0.1c-1.88-1.66-4.301-2.577-6.809-2.577s-4.929 0.916-6.809 2.577c-0.473 0.418-1.195 0.373-1.613-0.1s-0.373-1.195 0.1-1.613z"></path>
<path fill="#6d7e82" style="fill: var(--color1, #6d7e82)" d="M30.857 22.857c0.631 0 1.143 0.512 1.143 1.143v4.571c0 0.909-0.361 1.781-1.004 2.424s-1.515 1.004-2.424 1.004h-4.571c-0.631 0-1.143-0.512-1.143-1.143s0.512-1.143 1.143-1.143h4.571c0.303 0 0.594-0.12 0.808-0.335s0.335-0.505 0.335-0.808v-4.571c0-0.631 0.512-1.143 1.143-1.143z"></path>
<path fill="#6d7e82" style="fill: var(--color1, #6d7e82)" d="M22.857 1.143c0-0.631 0.512-1.143 1.143-1.143h4.571c0.909 0 1.781 0.361 2.424 1.004s1.004 1.515 1.004 2.424v4.571c0 0.631-0.512 1.143-1.143 1.143s-1.143-0.512-1.143-1.143v-4.571c0-0.303-0.12-0.594-0.335-0.808s-0.505-0.335-0.808-0.335h-4.571c-0.631 0-1.143-0.512-1.143-1.143z"></path>
<path fill="#6d7e82" style="fill: var(--color1, #6d7e82)" d="M3.429 2.286c-0.303 0-0.594 0.12-0.808 0.335s-0.335 0.505-0.335 0.808v4.571c0 0.631-0.512 1.143-1.143 1.143s-1.143-0.512-1.143-1.143v-4.571c0-0.909 0.361-1.781 1.004-2.424s1.515-1.004 2.424-1.004h4.571c0.631 0 1.143 0.512 1.143 1.143s-0.512 1.143-1.143 1.143h-4.571z"></path>
<path fill="#6d7e82" style="fill: var(--color1, #6d7e82)" d="M1.143 22.857c0.631 0 1.143 0.512 1.143 1.143v4.571c0 0.303 0.12 0.594 0.335 0.808s0.505 0.335 0.808 0.335h4.571c0.631 0 1.143 0.512 1.143 1.143s-0.512 1.143-1.143 1.143h-4.571c-0.909 0-1.781-0.361-2.424-1.004s-1.004-1.515-1.004-2.424v-4.571c0-0.631 0.512-1.143 1.143-1.143z"></path>
</symbol>
<symbol id="icon-graph-bar" viewBox="0 0 32 32">
<path fill="#6d7e82" style="fill: var(--color1, #6d7e82)" d="M0 1.143c0-0.631 0.512-1.143 1.143-1.143h9.143c0.631 0 1.143 0.512 1.143 1.143v25.857c0 0.631-0.512 1.143-1.143 1.143s-1.143-0.512-1.143-1.143v-24.714h-6.857v28.571c0 0.631-0.512 1.143-1.143 1.143s-1.143-0.512-1.143-1.143v-29.714z"></path>
<path fill="#6d7e82" style="fill: var(--color1, #6d7e82)" d="M18.286 8c0-0.631 0.512-1.143 1.143-1.143h9.143c0.631 0 1.143 0.512 1.143 1.143v22.857c0 0.631-0.512 1.143-1.143 1.143s-1.143-0.512-1.143-1.143v-21.714h-6.857v18.857c0 0.631-0.512 1.143-1.143 1.143s-1.143-0.512-1.143-1.143v-20z"></path>
<path fill="#00ba7c" style="fill: var(--color2, #00ba7c)" d="M9.143 14.857c0-0.631 0.512-1.143 1.143-1.143h9.143c0.631 0 1.143 0.512 1.143 1.143v14.862h-2.286v-13.719h-6.857v13.719h-2.286v-14.862z"></path>
<path fill="#00ba7c" style="fill: var(--color2, #00ba7c)" d="M0 30.857c0-0.631 0.512-1.143 1.143-1.143h29.714c0.631 0 1.143 0.512 1.143 1.143s-0.512 1.143-1.143 1.143h-29.714c-0.631 0-1.143-0.512-1.143-1.143z"></path>
</symbol>
<symbol id="icon-warning" viewBox="0 0 32 32">
<path fill="#6d7e82" style="fill: var(--color1, #6d7e82)" d="M3.429 2.286c-0.303 0-0.594 0.12-0.808 0.335s-0.335 0.505-0.335 0.808v25.143c0 0.303 0.12 0.594 0.335 0.808s0.505 0.335 0.808 0.335h4.571c0.631 0 1.143 0.512 1.143 1.143s-0.512 1.143-1.143 1.143h-4.571c-0.909 0-1.781-0.361-2.424-1.004s-1.004-1.515-1.004-2.424v-25.143c0-0.909 0.361-1.781 1.004-2.424s1.515-1.004 2.424-1.004h25.143c0.909 0 1.781 0.361 2.424 1.004s1.004 1.515 1.004 2.424v25.143c0 0.909-0.361 1.781-1.004 2.424s-1.515 1.004-2.424 1.004h-4.571c-0.631 0-1.143-0.512-1.143-1.143s0.512-1.143 1.143-1.143h4.571c0.303 0 0.594-0.12 0.808-0.335s0.335-0.505 0.335-0.808v-25.143c0-0.303-0.12-0.594-0.335-0.808s-0.505-0.335-0.808-0.335h-25.143z"></path>
<path fill="#00ba7c" style="fill: var(--color2, #00ba7c)" d="M16 13.714c0.631 0 1.143 0.512 1.143 1.143v8c0 0.631-0.512 1.143-1.143 1.143s-1.143-0.512-1.143-1.143v-8c0-0.631 0.512-1.143 1.143-1.143z"></path>
<path fill="#00ba7c" style="fill: var(--color2, #00ba7c)" d="M13.714 29.714c0-1.262 1.023-2.286 2.286-2.286s2.286 1.023 2.286 2.286c0 1.262-1.023 2.286-2.286 2.286s-2.286-1.023-2.286-2.286z"></path>
<path fill="#6d7e82" style="fill: var(--color1, #6d7e82)" d="M0 8c0-0.631 0.512-1.143 1.143-1.143h29.714c0.631 0 1.143 0.512 1.143 1.143s-0.512 1.143-1.143 1.143h-29.714c-0.631 0-1.143-0.512-1.143-1.143z"></path>
</symbol>
<symbol id="icon-script" viewBox="0 0 32 32">
<path fill="#6d7e82" style="fill: var(--color1, #6d7e82)" d="M26.857 2.286c-0.758 0-1.485 0.301-2.020 0.837s-0.837 1.263-0.837 2.020v1.714h5.714v-1.714c0-0.758-0.301-1.484-0.837-2.020s-1.263-0.837-2.020-0.837zM23.22 1.506c0.964-0.964 2.273-1.506 3.637-1.506s2.672 0.542 3.636 1.506c0.965 0.964 1.506 2.273 1.506 3.637v1.714c0 0.606-0.241 1.188-0.669 1.616s-1.010 0.669-1.616 0.669h-6.857c-0.631 0-1.143-0.512-1.143-1.143v-2.857c0-1.364 0.542-2.672 1.506-3.637z"></path>
<path fill="#00ba7c" style="fill: var(--color2, #00ba7c)" d="M12.571 9.143c0-0.631 0.512-1.143 1.143-1.143h3.429c0.631 0 1.143 0.512 1.143 1.143s-0.512 1.143-1.143 1.143h-3.429c-0.631 0-1.143-0.512-1.143-1.143z"></path>
<path fill="#00ba7c" style="fill: var(--color2, #00ba7c)" d="M10.286 16c0-0.631 0.512-1.143 1.143-1.143h5.714c0.631 0 1.143 0.512 1.143 1.143s-0.512 1.143-1.143 1.143h-5.714c-0.631 0-1.143-0.512-1.143-1.143z"></path>
<path fill="#00ba7c" style="fill: var(--color2, #00ba7c)" d="M10.286 22.857c0-0.631 0.512-1.143 1.143-1.143h5.714c0.631 0 1.143 0.512 1.143 1.143s-0.512 1.143-1.143 1.143h-5.714c-0.631 0-1.143-0.512-1.143-1.143z"></path>
<path fill="#6d7e82" style="fill: var(--color1, #6d7e82)" d="M10.286 2.286c-0.909 0-1.781 0.361-2.424 1.004s-1.004 1.515-1.004 2.424v20.572c0 1.243-0.405 2.445-1.143 3.428h12.571c0.909 0 1.781-0.361 2.424-1.004s1.004-1.515 1.004-2.424l-0-18.286c0-0.631 0.512-1.143 1.143-1.143s1.143 0.512 1.143 1.143v18.286c0 1.515-0.602 2.969-1.674 4.041s-2.525 1.674-4.041 1.674h-17.143c-0.631 0-1.143-0.512-1.143-1.143s0.512-1.143 1.143-1.143c0.909 0 1.781-0.361 2.424-1.004s1.004-1.515 1.004-2.424v-20.572c0-1.516 0.602-2.969 1.674-4.041s2.525-1.674 4.041-1.674h16.571c0.631 0 1.143 0.512 1.143 1.143s-0.512 1.143-1.143 1.143h-16.571z"></path>
</symbol>
<symbol id="icon-arrow" viewBox="0 0 32 32">
<path fill="#9ea9ac" style="fill: var(--color3, #9ea9ac)" d="M0 16c0-0.631 0.512-1.143 1.143-1.143h29.714c0.631 0 1.143 0.512 1.143 1.143s-0.512 1.143-1.143 1.143h-29.714c-0.631 0-1.143-0.512-1.143-1.143z"></path>
<path fill="#9ea9ac" style="fill: var(--color3, #9ea9ac)" d="M22.049 7.192c0.446-0.446 1.17-0.446 1.616 0l8 8c0.446 0.446 0.446 1.17 0 1.616l-8 8c-0.446 0.446-1.17 0.446-1.616 0s-0.446-1.17 0-1.616l7.192-7.192-7.192-7.192c-0.446-0.446-0.446-1.17 0-1.616z"></path>
</symbol>
<symbol id="icon-filter" viewBox="0 0 32 32">
<path fill="#9ea9ac" style="fill: var(--color3, #9ea9ac)" d="M0.334 0.335c0.214-0.214 0.505-0.335 0.808-0.335h29.714c0.303 0 0.594 0.12 0.808 0.335s0.335 0.505 0.334 0.808c-0.001 3.602-1.216 7.099-3.449 9.926-2.045 2.588-4.833 4.477-7.979 5.418v9.798c0 0.382-0.191 0.739-0.509 0.951l-6.857 4.571c-0.351 0.234-0.802 0.256-1.173 0.057s-0.604-0.586-0.604-1.008v-14.37c-3.146-0.942-5.935-2.83-7.979-5.418-2.233-2.827-3.448-6.323-3.449-9.926-0-0.303 0.12-0.594 0.335-0.808zM2.333 2.285c0.225 2.679 1.232 5.243 2.909 7.366 1.914 2.424 4.589 4.131 7.594 4.848 0.515 0.123 0.878 0.583 0.878 1.112v13.11l4.571-3.048v-10.063c0-0.529 0.363-0.989 0.878-1.112 3.004-0.716 5.679-2.424 7.594-4.848 1.677-2.123 2.684-4.687 2.909-7.366h-27.333z"></path>
</symbol>
<symbol id="icon-group" viewBox="0 0 32 32">
<path fill="#9ea9ac" style="fill: var(--color3, #9ea9ac)" d="M15.393 2.415l-12.989 6.061c-0.019 0.011-0.036 0.027-0.047 0.046-0.013 0.022-0.020 0.046-0.020 0.072s0.007 0.050 0.020 0.072c0.012 0.019 0.028 0.035 0.047 0.046l12.988 6.016c0.192 0.082 0.399 0.124 0.608 0.124s0.415-0.042 0.607-0.123l12.989-6.061c0.019-0.011 0.036-0.027 0.048-0.046 0.013-0.022 0.020-0.047 0.020-0.072s-0.007-0.050-0.020-0.072c-0.012-0.019-0.028-0.035-0.047-0.046l-12.988-6.016c-0.192-0.082-0.399-0.124-0.608-0.124s-0.415 0.042-0.607 0.123zM14.47 0.323c0.483-0.21 1.003-0.318 1.529-0.318s1.047 0.108 1.529 0.318l0.025 0.011-0 0 13.028 6.034c0.012 0.005 0.023 0.011 0.034 0.017 0.401 0.202 0.737 0.511 0.972 0.893s0.36 0.822 0.36 1.27c0 0.448-0.124 0.888-0.36 1.27s-0.572 0.691-0.972 0.893l-0.031 0.015-13.057 6.093c-0.483 0.21-1.003 0.318-1.53 0.318s-1.047-0.108-1.529-0.318l-0.025-0.011 0-0-13.029-6.034c-0.012-0.005-0.023-0.011-0.034-0.017-0.4-0.202-0.737-0.511-0.972-0.893s-0.36-0.822-0.36-1.27c0-0.448 0.124-0.888 0.36-1.27s0.572-0.691 0.972-0.893l0.031-0.015 13.057-6.093z"></path>
<path fill="#9ea9ac" style="fill: var(--color3, #9ea9ac)" d="M31.895 16.322c0.264 0.573 0.014 1.252-0.56 1.516l-13.947 6.425c-0.447 0.204-0.932 0.309-1.423 0.309s-0.976-0.105-1.423-0.309l-0.006-0.003h0l-13.874-6.423c-0.573-0.265-0.822-0.944-0.557-1.517s0.944-0.822 1.517-0.557l13.871 6.421c0.148 0.067 0.309 0.102 0.472 0.102s0.324-0.035 0.473-0.102c0.001-0 0.001-0.001 0.002-0.001l13.939-6.421c0.573-0.264 1.252-0.013 1.516 0.56z"></path>
<path fill="#9ea9ac" style="fill: var(--color3, #9ea9ac)" d="M31.895 23.75c0.264 0.573 0.014 1.252-0.56 1.516l-13.947 6.425c-0.447 0.204-0.932 0.309-1.423 0.309s-0.976-0.105-1.423-0.309l-0.006-0.003h0l-13.874-6.423c-0.573-0.265-0.822-0.944-0.557-1.517s0.944-0.822 1.517-0.557l13.871 6.421c0.148 0.067 0.309 0.102 0.472 0.102s0.324-0.035 0.473-0.102c0.001-0 0.001-0 0.002-0.001l13.939-6.421c0.573-0.264 1.252-0.013 1.516 0.56z"></path>
</symbol>
<symbol id="icon-learning-progress" viewBox="0 0 32 32">
<path fill="#9ea9ac" style="fill: var(--color3, #9ea9ac)" d="M16 26.286c0.631 0 1.143 0.512 1.143 1.143v3.429c0 0.631-0.512 1.143-1.143 1.143s-1.143-0.512-1.143-1.143v-3.429c0-0.631 0.512-1.143 1.143-1.143z"></path>
<path fill="#9ea9ac" style="fill: var(--color3, #9ea9ac)" d="M8.716 23.283c0.446 0.446 0.446 1.17 0 1.616l-2.423 2.423c-0.446 0.446-1.17 0.446-1.616 0s-0.446-1.17 0-1.616l2.423-2.423c0.446-0.446 1.17-0.446 1.616 0z"></path>
<path fill="#9ea9ac" style="fill: var(--color3, #9ea9ac)" d="M9.877 1.218c1.941-0.804 4.022-1.218 6.123-1.218v1.143l0.003-1.143c3.162 0.008 6.25 0.951 8.877 2.711s4.674 4.257 5.885 7.178c1.21 2.921 1.53 6.134 0.918 9.236s-2.128 5.953-4.357 8.195c-0.214 0.215-0.505 0.337-0.809 0.337s-0.595-0.12-0.81-0.335l-10.18-10.18h-14.384c-0.303 0-0.594-0.12-0.808-0.335s-0.335-0.505-0.335-0.808c0-4.243 1.686-8.313 4.686-11.314 1.486-1.486 3.25-2.664 5.191-3.468zM15.998 2.286c-1.8 0-3.583 0.355-5.247 1.044s-3.176 1.699-4.449 2.973c-2.301 2.301-3.7 5.336-3.969 8.555h13.667c0.303 0 0.594 0.12 0.808 0.335l9.67 9.67c1.489-1.772 2.511-3.897 2.962-6.18 0.525-2.659 0.251-5.415-0.787-7.919s-2.793-4.645-5.045-6.154c-2.252-1.508-4.899-2.317-7.609-2.324z"></path>
</symbol>
<symbol id="icon-link" viewBox="0 0 32 32">
<path fill="#9ea9ac" style="fill: var(--color3, #9ea9ac)" d="M9.955 14.030c0.444 0.448 0.441 1.172-0.008 1.616l-7.337 7.268c-0 0 0 0 0 0-0.107 0.106-0.192 0.233-0.25 0.372s-0.088 0.289-0.088 0.439c0 0.151 0.030 0.3 0.088 0.44s0.143 0.266 0.25 0.372l0.003 0.003 4.849 4.849c0.106 0.107 0.233 0.192 0.372 0.25s0.289 0.088 0.44 0.088c0.151 0 0.3-0.030 0.44-0.088s0.265-0.143 0.371-0.25l7.269-7.337c0.444-0.448 1.168-0.452 1.616-0.008s0.452 1.168 0.008 1.616l-7.269 7.337c-0.319 0.321-0.698 0.577-1.116 0.751s-0.866 0.264-1.319 0.264-0.901-0.090-1.319-0.264c-0.417-0.174-0.795-0.428-1.114-0.749-0.001-0.001-0.001-0.001-0.002-0.002l-4.839-4.839c-0.001-0.001-0.001-0.001-0.002-0.002-0.321-0.318-0.575-0.697-0.749-1.114s-0.264-0.866-0.264-1.319c0-0.453 0.090-0.901 0.264-1.318s0.429-0.797 0.751-1.116l7.338-7.269c0.448-0.444 1.172-0.441 1.616 0.008z"></path>
<path fill="#9ea9ac" style="fill: var(--color3, #9ea9ac)" d="M22.407 0.25c0.418-0.174 0.866-0.264 1.318-0.264s0.901 0.090 1.319 0.264 0.797 0.429 1.116 0.751l0.002 0.002 4.773 4.842c0.319 0.318 0.572 0.695 0.746 1.111 0.174 0.418 0.264 0.866 0.264 1.319s-0.090 0.901-0.264 1.319c-0.174 0.417-0.428 0.796-0.749 1.114-0.001 0.001-0.001 0.001-0.002 0.002l-7.265 7.265c-0.446 0.446-1.17 0.446-1.616 0s-0.446-1.17 0-1.616l7.272-7.272c0.107-0.106 0.192-0.233 0.25-0.372s0.088-0.289 0.088-0.44c0-0.151-0.030-0.3-0.088-0.44s-0.143-0.266-0.25-0.372l-0.009-0.009-4.775-4.843c-0-0 0 0 0 0-0.106-0.107-0.233-0.192-0.372-0.25s-0.289-0.088-0.44-0.088c-0.151 0-0.3 0.030-0.439 0.088s-0.265 0.143-0.371 0.25l-7.269 7.337c-0.444 0.448-1.168 0.452-1.616 0.008s-0.452-1.168-0.008-1.616l7.269-7.337c0.319-0.321 0.698-0.577 1.116-0.751z"></path>
<path fill="#9ea9ac" style="fill: var(--color3, #9ea9ac)" d="M21.38 10.62c0.446 0.446 0.446 1.17 0 1.616l-9.143 9.143c-0.446 0.446-1.17 0.446-1.616 0s-0.446-1.17 0-1.616l9.143-9.143c0.446-0.446 1.17-0.446 1.616 0z"></path>
</symbol>
<symbol id="icon-menu" viewBox="0 0 32 32">
<path fill="#b8c2c4" style="fill: var(--color4, #b8c2c4)" d="M9.714 12.571c1.894 0 3.429 1.535 3.429 3.429s-1.535 3.429-3.429 3.429c-1.894 0-3.429-1.535-3.429-3.429s1.535-3.429 3.429-3.429z"></path>
<path fill="#b8c2c4" style="fill: var(--color4, #b8c2c4)" d="M9.714 2.286c1.894 0 3.429 1.535 3.429 3.429s-1.535 3.429-3.429 3.429c-1.894 0-3.429-1.535-3.429-3.429s1.535-3.429 3.429-3.429z"></path>
<path fill="#b8c2c4" style="fill: var(--color4, #b8c2c4)" d="M9.714 22.857c1.894 0 3.429 1.535 3.429 3.428s-1.535 3.429-3.429 3.429-3.429-1.535-3.429-3.429c0-1.893 1.535-3.428 3.429-3.428z"></path>
<path fill="#b8c2c4" style="fill: var(--color4, #b8c2c4)" d="M21.429 12.571c1.894 0 3.429 1.535 3.429 3.429s-1.535 3.429-3.429 3.429c-1.893 0-3.428-1.535-3.428-3.429s1.535-3.429 3.428-3.429z"></path>
<path fill="#b8c2c4" style="fill: var(--color4, #b8c2c4)" d="M21.429 2.286c1.894 0 3.429 1.535 3.429 3.429s-1.535 3.429-3.429 3.429c-1.893 0-3.428-1.535-3.428-3.429s1.535-3.429 3.428-3.429z"></path>
<path fill="#b8c2c4" style="fill: var(--color4, #b8c2c4)" d="M21.429 22.857c1.894 0 3.429 1.535 3.429 3.428s-1.535 3.429-3.429 3.429c-1.893 0-3.428-1.535-3.428-3.429s1.535-3.428 3.428-3.428z"></path>
</symbol>
<symbol id="icon-plus" viewBox="0 0 32 32">
<path fill="#9ea9ac" style="fill: var(--color3, #9ea9ac)" d="M17.143 7.473c0.631 0 1.143 0.512 1.143 1.143v14.769c0 0.631-0.512 1.143-1.143 1.143s-1.143-0.512-1.143-1.143v-14.769c0-0.631 0.512-1.143 1.143-1.143z"></path>
<path fill="#9ea9ac" style="fill: var(--color3, #9ea9ac)" d="M8.616 16c0-0.631 0.512-1.143 1.143-1.143h14.769c0.631 0 1.143 0.512 1.143 1.143s-0.512 1.143-1.143 1.143h-14.769c-0.631 0-1.143-0.512-1.143-1.143z"></path>
</symbol>
<symbol id="icon-plus-1" viewBox="0 0 32 32">
<path fill="#b8c2c4" style="fill: var(--color4, #b8c2c4)" d="M16 6c0.552 0 1 0.448 1 1v8h8c0.552 0 1 0.448 1 1s-0.448 1-1 1h-8v8c0 0.552-0.448 1-1 1s-1-0.448-1-1v-8h-8c-0.552 0-1-0.448-1-1s0.448-1 1-1h8v-8c0-0.552 0.448-1 1-1z"></path>
</symbol>
<symbol id="icon-preview" viewBox="0 0 32 32">
<path fill="#9ea9ac" style="fill: var(--color3, #9ea9ac)" d="M2.604 15.239c-0.187 0.209-0.29 0.48-0.29 0.761s0.103 0.551 0.29 0.761c1.164 1.252 3.053 3.077 5.402 4.583 2.359 1.513 5.103 2.656 7.994 2.656s5.635-1.143 7.994-2.656c2.348-1.507 4.238-3.331 5.402-4.583 0.187-0.209 0.29-0.48 0.29-0.761s-0.103-0.551-0.29-0.761c-1.164-1.252-3.053-3.077-5.402-4.583-2.359-1.513-5.104-2.656-7.994-2.656s-5.635 1.143-7.994 2.656c-2.349 1.507-4.238 3.331-5.402 4.583zM6.771 8.732c2.567-1.647 5.742-3.018 9.229-3.018s6.662 1.371 9.229 3.018c2.573 1.651 4.612 3.627 5.849 4.958l0.011 0.012-0 0c0.569 0.63 0.883 1.448 0.883 2.297s-0.315 1.667-0.883 2.297l-0.011 0.012-0-0c-1.237 1.331-3.276 3.308-5.849 4.958-2.567 1.647-5.742 3.018-9.229 3.018s-6.662-1.371-9.229-3.018c-2.573-1.65-4.612-3.627-5.849-4.958l-0.011-0.012 0-0c-0.569-0.63-0.883-1.448-0.883-2.297s0.315-1.667 0.883-2.297l0.011-0.012 0 0c1.237-1.331 3.276-3.308 5.849-4.958z"></path>
<path fill="#9ea9ac" style="fill: var(--color3, #9ea9ac)" d="M16 12.571c-1.894 0-3.429 1.535-3.429 3.429s1.535 3.429 3.429 3.429c1.894 0 3.429-1.535 3.429-3.429s-1.535-3.429-3.429-3.429zM10.286 16c0-3.156 2.558-5.714 5.714-5.714s5.714 2.558 5.714 5.714c0 3.156-2.558 5.714-5.714 5.714s-5.714-2.558-5.714-5.714z"></path>
</symbol>
<symbol id="icon-report" viewBox="0 0 32 32">
<path fill="#9ea9ac" style="fill: var(--color3, #9ea9ac)" d="M6.857 4.571c-0.303 0-0.594 0.12-0.808 0.335s-0.335 0.505-0.335 0.808v22.857c0 0.303 0.12 0.594 0.335 0.808s0.505 0.335 0.808 0.335h18.286c0.303 0 0.594-0.12 0.808-0.335s0.335-0.505 0.335-0.808v-22.857c0-0.303-0.12-0.594-0.335-0.808s-0.505-0.335-0.808-0.335h-3.428c-0.631 0-1.143-0.512-1.143-1.143s0.512-1.143 1.143-1.143h3.428c0.909 0 1.781 0.361 2.424 1.004s1.004 1.515 1.004 2.424v22.857c0 0.909-0.361 1.781-1.004 2.424s-1.515 1.004-2.424 1.004h-18.286c-0.909 0-1.781-0.361-2.424-1.004s-1.004-1.515-1.004-2.424v-22.857c0-0.909 0.361-1.781 1.004-2.424s1.515-1.004 2.424-1.004h3.429c0.631 0 1.143 0.512 1.143 1.143s-0.512 1.143-1.143 1.143h-3.429z"></path>
<path fill="#9ea9ac" style="fill: var(--color3, #9ea9ac)" d="M12.571 2.286c-0.631 0-1.143 0.512-1.143 1.143v1.143c0 0.631 0.512 1.143 1.143 1.143h6.857c0.631 0 1.143-0.512 1.143-1.143v-1.143c0-0.631-0.512-1.143-1.143-1.143h-6.857zM9.143 3.429c0-1.894 1.535-3.429 3.429-3.429h6.857c1.893 0 3.429 1.535 3.429 3.429v1.143c0 1.894-1.535 3.429-3.429 3.429h-6.857c-1.894 0-3.429-1.535-3.429-3.429v-1.143z"></path>
<path fill="#9ea9ac" style="fill: var(--color3, #9ea9ac)" d="M9.143 12.571c0-0.631 0.512-1.143 1.143-1.143h11.429c0.631 0 1.143 0.512 1.143 1.143s-0.512 1.143-1.143 1.143h-11.429c-0.631 0-1.143-0.512-1.143-1.143z"></path>
<path fill="#9ea9ac" style="fill: var(--color3, #9ea9ac)" d="M9.143 18.286c0-0.631 0.512-1.143 1.143-1.143h11.429c0.631 0 1.143 0.512 1.143 1.143s-0.512 1.143-1.143 1.143h-11.429c-0.631 0-1.143-0.512-1.143-1.143z"></path>
<path fill="#9ea9ac" style="fill: var(--color3, #9ea9ac)" d="M9.143 24c0-0.631 0.512-1.143 1.143-1.143h11.429c0.631 0 1.143 0.512 1.143 1.143s-0.512 1.143-1.143 1.143h-11.429c-0.631 0-1.143-0.512-1.143-1.143z"></path>
</symbol>
<symbol id="icon-role-utilization" viewBox="0 0 32 32">
<path fill="#9ea9ac" style="fill: var(--color3, #9ea9ac)" d="M11.428 2.286c-2.209 0-4 1.791-4 4s1.791 4 4 4c2.209 0 4-1.791 4-4s-1.791-4-4-4zM5.143 6.286c0-3.472 2.814-6.286 6.286-6.286s6.286 2.814 6.286 6.286c0 3.471-2.814 6.286-6.286 6.286s-6.286-2.814-6.286-6.286z"></path>
<path fill="#9ea9ac" style="fill: var(--color3, #9ea9ac)" d="M8.879 13.986c1.676-0.381 3.417-0.378 5.092 0.009 0.615 0.142 0.998 0.756 0.856 1.371s-0.756 0.998-1.371 0.856c-1.339-0.309-2.731-0.312-4.072-0.007s-2.595 0.908-3.669 1.766c-1.074 0.858-1.941 1.947-2.535 3.186s-0.9 2.597-0.896 3.972l0 0.004-0 2.286h11.429c0.631 0 1.143 0.512 1.143 1.143s-0.512 1.143-1.143 1.143h-12.571c-0.631 0-1.143-0.512-1.143-1.143v-3.427c-0.005-1.719 0.377-3.416 1.12-4.966s1.827-2.913 3.17-3.985 2.912-1.827 4.589-2.208z"></path>
<path fill="#9ea9ac" style="fill: var(--color3, #9ea9ac)" d="M18.316 16h11.367c0.3-0.014 0.601 0.034 0.882 0.14 0.296 0.111 0.564 0.284 0.787 0.508s0.396 0.492 0.507 0.787c0.106 0.282 0.153 0.582 0.14 0.882v2.965c-0.003 2.279-0.689 4.505-1.971 6.39s-3.1 3.341-5.219 4.18l-0.421-1.063 0.389 1.075c-0.502 0.182-1.052 0.182-1.554 0l-0.032-0.012c-2.119-0.84-3.937-2.296-5.219-4.18s-1.969-4.112-1.971-6.391v-2.963c-0.014-0.3 0.034-0.601 0.14-0.882 0.111-0.296 0.284-0.564 0.508-0.787s0.492-0.396 0.787-0.508c0.282-0.106 0.582-0.153 0.882-0.14zM24 29.713c1.68-0.673 3.121-1.831 4.139-3.328 1.025-1.506 1.573-3.285 1.575-5.107v-2.993h-11.428v2.994c0.002 1.821 0.551 3.6 1.575 5.106 1.018 1.496 2.459 2.655 4.139 3.328z"></path>
</symbol>
<symbol id="icon-run" viewBox="0 0 32 32">
<path fill="#b8c2c4" style="fill: var(--color4, #b8c2c4)" d="M4.821 1.337c0.567-0.315 1.204-0.48 1.853-0.48 0.658 0 1.305 0.17 1.878 0.494 0.012 0.007 0.024 0.014 0.036 0.021l18.611 11.426c0.575 0.29 1.060 0.731 1.403 1.277 0.354 0.564 0.542 1.216 0.542 1.882s-0.188 1.318-0.542 1.882c-0.342 0.545-0.827 0.986-1.401 1.276l-18.609 11.512c-0.013 0.008-0.026 0.016-0.039 0.023-0.573 0.324-1.22 0.494-1.878 0.494-0.648 0-1.286-0.165-1.853-0.48-0.577-0.295-1.065-0.74-1.41-1.289-0.351-0.557-0.542-1.2-0.554-1.858l-0-0.020 0-23.014c0.011-0.658 0.203-1.301 0.554-1.858 0.346-0.549 0.833-0.994 1.41-1.289zM6.674 3.143c-0.264 0-0.523 0.068-0.753 0.198-0.017 0.010-0.034 0.019-0.051 0.027-0.215 0.108-0.397 0.272-0.525 0.476-0.127 0.201-0.197 0.433-0.202 0.671v22.971c0.006 0.238 0.075 0.469 0.202 0.671 0.128 0.204 0.31 0.368 0.525 0.476 0.017 0.009 0.034 0.018 0.051 0.027 0.23 0.13 0.489 0.198 0.753 0.198 0.257 0 0.511-0.065 0.736-0.189l18.633-11.526c0.034-0.021 0.069-0.040 0.105-0.058 0.212-0.102 0.391-0.262 0.516-0.462s0.192-0.43 0.192-0.666-0.067-0.466-0.192-0.666c-0.125-0.199-0.304-0.359-0.516-0.462-0.035-0.017-0.069-0.035-0.102-0.056l-18.635-11.441c-0.226-0.124-0.48-0.189-0.738-0.189z"></path>
</symbol>
<symbol id="icon-save" viewBox="0 0 32 32">
<path fill="#9ea9ac" style="fill: var(--color3, #9ea9ac)" d="M7.192 0.335c0.214-0.214 0.505-0.335 0.808-0.335h20.571c0.909 0 1.781 0.361 2.424 1.004s1.004 1.515 1.004 2.424v25.143c0 0.909-0.361 1.781-1.004 2.424s-1.515 1.004-2.424 1.004h-25.143c-0.909 0-1.781-0.361-2.424-1.004s-1.004-1.515-1.004-2.424v-20.571c0-0.303 0.12-0.594 0.335-0.808l6.857-6.857zM8.473 2.286l-6.188 6.188v20.098c0 0.303 0.12 0.594 0.335 0.808s0.505 0.335 0.808 0.335h25.143c0.303 0 0.594-0.12 0.808-0.335s0.335-0.505 0.335-0.808v-25.143c0-0.303-0.12-0.594-0.335-0.808s-0.505-0.335-0.808-0.335h-20.098z"></path>
<path fill="#9ea9ac" style="fill: var(--color3, #9ea9ac)" d="M6.857 19.429c0-0.631 0.512-1.143 1.143-1.143h16c0.631 0 1.143 0.512 1.143 1.143v11.429c0 0.631-0.512 1.143-1.143 1.143h-16c-0.631 0-1.143-0.512-1.143-1.143v-11.429zM9.143 20.571v9.143h13.714v-9.143h-13.714z"></path>
<path fill="#9ea9ac" style="fill: var(--color3, #9ea9ac)" d="M9.143 1.143c0-0.631 0.512-1.143 1.143-1.143h13.714c0.631 0 1.143 0.512 1.143 1.143v9.143c0 0.631-0.512 1.143-1.143 1.143h-13.714c-0.631 0-1.143-0.512-1.143-1.143v-9.143zM11.429 2.286v6.857h11.429v-6.857h-11.429z"></path>
</symbol>
<symbol id="icon-saved-views1" viewBox="0 0 32 32">
<path fill="#9ea9ac" style="fill: var(--color3, #9ea9ac)" d="M6.857 9.143c-0.303 0-0.594 0.12-0.808 0.335s-0.335 0.505-0.335 0.808v18.087l6.113-5.24c0.428-0.367 1.060-0.367 1.488 0l6.113 5.24v-18.087c0-0.303-0.12-0.594-0.335-0.808s-0.505-0.335-0.808-0.335h-11.429zM4.433 7.861c0.643-0.643 1.515-1.004 2.424-1.004h11.429c0.909 0 1.781 0.361 2.424 1.004s1.004 1.515 1.004 2.424v20.572c0 0.446-0.26 0.852-0.665 1.038s-0.882 0.12-1.221-0.171l-7.256-6.22-7.256 6.22c-0.339 0.291-0.816 0.357-1.221 0.171s-0.665-0.592-0.665-1.038v-20.572c0-0.909 0.361-1.781 1.004-2.424z"></path>
<path fill="#9ea9ac" style="fill: var(--color3, #9ea9ac)" d="M10.286 1.143c0-0.631 0.512-1.143 1.143-1.143h13.714c0.909 0 1.781 0.361 2.424 1.004s1.004 1.515 1.004 2.424v20.571c0 0.631-0.512 1.143-1.143 1.143s-1.143-0.512-1.143-1.143v-20.571c0-0.303-0.12-0.594-0.335-0.808s-0.505-0.335-0.808-0.335h-13.714c-0.631 0-1.143-0.512-1.143-1.143z"></path>
</symbol>
<symbol id="icon-search" viewBox="0 0 32 32">
<path fill="#9ea9ac" style="fill: var(--color3, #9ea9ac)" d="M13.542 2.958c-5.845 0-10.584 4.739-10.584 10.584s4.739 10.584 10.584 10.584c5.845 0 10.584-4.739 10.584-10.584s-4.739-10.584-10.584-10.584zM0.807 13.542c0-7.034 5.702-12.735 12.735-12.735s12.735 5.702 12.735 12.735c0 7.034-5.702 12.736-12.735 12.736s-12.735-5.702-12.735-12.736z"></path>
<path fill="#9ea9ac" style="fill: var(--color3, #9ea9ac)" d="M21.019 21.021c0.42-0.42 1.101-0.42 1.521 0l8.067 8.067c0.42 0.42 0.42 1.101 0 1.521s-1.101 0.42-1.521 0l-8.067-8.067c-0.42-0.42-0.42-1.101 0-1.521z"></path>
</symbol>
<symbol id="icon-self-entered" viewBox="0 0 32 32">
<path fill="#9ea9ac" style="fill: var(--color3, #9ea9ac)" d="M3.97 0.171c0.337-0.208 0.757-0.227 1.112-0.051l12.461 6.219c0.571 0.288 1.050 0.729 1.383 1.274 0.332 0.544 0.507 1.17 0.503 1.807-0 0.001-0 0.003-0 0.004l-1.143-0.008h1.143v19.158c-0.002 0.585-0.153 1.159-0.439 1.668s-0.698 0.938-1.196 1.243c-0.498 0.306-1.066 0.479-1.65 0.503s-1.163-0.1-1.685-0.363l-9.144-4.572c-0.565-0.285-1.041-0.721-1.374-1.259s-0.51-1.159-0.512-1.792v-22.861c0-0.396 0.205-0.764 0.542-0.972zM5.714 2.991v21.007c0.001 0.211 0.060 0.417 0.171 0.596s0.269 0.324 0.456 0.419c0 0-0-0 0 0l9.144 4.572c0.174 0.088 0.367 0.129 0.562 0.121s0.384-0.066 0.55-0.168c0.166-0.102 0.303-0.245 0.399-0.415s0.146-0.36 0.146-0.555v-19.16c0.001-0.213-0.057-0.422-0.168-0.604s-0.27-0.328-0.459-0.424c-0.001-0 0.001 0 0 0l-10.802-5.391z"></path>
<path fill="#9ea9ac" style="fill: var(--color3, #9ea9ac)" d="M3.429 1.143c0-0.631 0.512-1.143 1.143-1.143h20.571c0.909 0 1.781 0.361 2.424 1.004s1.004 1.515 1.004 2.424v20.571c0 0.909-0.361 1.781-1.004 2.424s-1.515 1.004-2.424 1.004h-6.857c-0.631 0-1.143-0.512-1.143-1.143s0.512-1.143 1.143-1.143h6.857c0.303 0 0.594-0.12 0.808-0.335s0.335-0.505 0.335-0.808v-20.571c0-0.303-0.121-0.594-0.335-0.808s-0.505-0.335-0.808-0.335h-20.571c-0.631 0-1.143-0.512-1.143-1.143z"></path>
</symbol>
<symbol id="icon-share" viewBox="0 0 32 32">
<path fill="#9ea9ac" style="fill: var(--color3, #9ea9ac)" d="M1.143 22.857c0.631 0 1.143 0.512 1.143 1.143v2.286c0 0.909 0.361 1.781 1.004 2.424s1.515 1.004 2.424 1.004h20.572c0.909 0 1.781-0.361 2.424-1.004s1.004-1.515 1.004-2.424v-2.286c0-0.631 0.512-1.143 1.143-1.143s1.143 0.512 1.143 1.143v2.286c0 1.516-0.602 2.969-1.674 4.041s-2.525 1.674-4.041 1.674h-20.572c-1.516 0-2.969-0.602-4.041-1.674s-1.674-2.525-1.674-4.041v-2.286c0-0.631 0.512-1.143 1.143-1.143z"></path>
<path fill="#9ea9ac" style="fill: var(--color3, #9ea9ac)" d="M16 0c0.334 0 0.651 0.146 0.868 0.399l6.857 8c0.411 0.479 0.355 1.201-0.124 1.611s-1.201 0.355-1.612-0.124l-5.989-6.988-5.989 6.988c-0.411 0.479-1.132 0.535-1.611 0.124s-0.535-1.132-0.124-1.611l6.857-8c0.217-0.253 0.534-0.399 0.868-0.399z"></path>
<path fill="#9ea9ac" style="fill: var(--color3, #9ea9ac)" d="M16 0c0.631 0 1.143 0.512 1.143 1.143v20.571c0 0.631-0.512 1.143-1.143 1.143s-1.143-0.512-1.143-1.143v-20.571c0-0.631 0.512-1.143 1.143-1.143z"></path>
</symbol>
<symbol id="icon-sort" viewBox="0 0 32 32">
<path fill="#9ea9ac" style="fill: var(--color3, #9ea9ac)" d="M22.5 3.857c0.631 0 1.143 0.512 1.143 1.143v24.143c0 0.631-0.512 1.143-1.143 1.143s-1.143-0.512-1.143-1.143v-24.143c0-0.631 0.512-1.143 1.143-1.143z"></path>
<path fill="#9ea9ac" style="fill: var(--color3, #9ea9ac)" d="M21.692 4.192c0.446-0.446 1.17-0.446 1.616 0l6.5 6.5c0.446 0.446 0.446 1.17 0 1.616s-1.17 0.446-1.616 0l-5.692-5.692-5.692 5.692c-0.446 0.446-1.17 0.446-1.616 0s-0.446-1.17 0-1.616l6.5-6.5z"></path>
<path fill="#9ea9ac" style="fill: var(--color3, #9ea9ac)" d="M9.5 30.143c-0.631 0-1.143-0.512-1.143-1.143v-24.143c0-0.631 0.512-1.143 1.143-1.143s1.143 0.512 1.143 1.143v24.143c0 0.631-0.512 1.143-1.143 1.143z"></path>
<path fill="#9ea9ac" style="fill: var(--color3, #9ea9ac)" d="M10.308 29.808c-0.446 0.446-1.17 0.446-1.616 0l-6.5-6.5c-0.446-0.446-0.446-1.17 0-1.616s1.17-0.446 1.616 0l5.692 5.692 5.692-5.692c0.446-0.446 1.17-0.446 1.616 0s0.446 1.17 0 1.616l-6.5 6.5z"></path>
</symbol>
<symbol id="icon-student-listing" viewBox="0 0 32 32">
<path fill="#9ea9ac" style="fill: var(--color3, #9ea9ac)" d="M16 8c-2.525 0-4.571 2.047-4.571 4.571s2.047 4.571 4.571 4.571c2.525 0 4.571-2.047 4.571-4.571s-2.047-4.571-4.571-4.571zM9.143 12.571c0-3.787 3.070-6.857 6.857-6.857s6.857 3.070 6.857 6.857c0 3.787-3.070 6.857-6.857 6.857s-6.857-3.070-6.857-6.857z"></path>
<path fill="#9ea9ac" style="fill: var(--color3, #9ea9ac)" d="M7.678 23.715c2.297-2.029 5.257-3.149 8.322-3.149s6.025 1.12 8.322 3.149c0.473 0.418 0.518 1.14 0.1 1.613s-1.14 0.518-1.613 0.1c-1.88-1.66-4.301-2.577-6.809-2.577s-4.929 0.916-6.809 2.577c-0.473 0.418-1.195 0.373-1.613-0.1s-0.373-1.195 0.1-1.613z"></path>
<path fill="#9ea9ac" style="fill: var(--color3, #9ea9ac)" d="M30.857 22.857c0.631 0 1.143 0.512 1.143 1.143v4.571c0 0.909-0.361 1.781-1.004 2.424s-1.515 1.004-2.424 1.004h-4.571c-0.631 0-1.143-0.512-1.143-1.143s0.512-1.143 1.143-1.143h4.571c0.303 0 0.594-0.12 0.808-0.335s0.335-0.505 0.335-0.808v-4.571c0-0.631 0.512-1.143 1.143-1.143z"></path>
<path fill="#9ea9ac" style="fill: var(--color3, #9ea9ac)" d="M22.857 1.143c0-0.631 0.512-1.143 1.143-1.143h4.571c0.909 0 1.781 0.361 2.424 1.004s1.004 1.515 1.004 2.424v4.571c0 0.631-0.512 1.143-1.143 1.143s-1.143-0.512-1.143-1.143v-4.571c0-0.303-0.12-0.594-0.335-0.808s-0.505-0.335-0.808-0.335h-4.571c-0.631 0-1.143-0.512-1.143-1.143z"></path>
<path fill="#9ea9ac" style="fill: var(--color3, #9ea9ac)" d="M3.429 2.286c-0.303 0-0.594 0.12-0.808 0.335s-0.335 0.505-0.335 0.808v4.571c0 0.631-0.512 1.143-1.143 1.143s-1.143-0.512-1.143-1.143v-4.571c0-0.909 0.361-1.781 1.004-2.424s1.515-1.004 2.424-1.004h4.571c0.631 0 1.143 0.512 1.143 1.143s-0.512 1.143-1.143 1.143h-4.571z"></path>
<path fill="#9ea9ac" style="fill: var(--color3, #9ea9ac)" d="M1.143 22.857c0.631 0 1.143 0.512 1.143 1.143v4.571c0 0.303 0.12 0.594 0.335 0.808s0.505 0.335 0.808 0.335h4.571c0.631 0 1.143 0.512 1.143 1.143s-0.512 1.143-1.143 1.143h-4.571c-0.909 0-1.781-0.361-2.424-1.004s-1.004-1.515-1.004-2.424v-4.571c0-0.631 0.512-1.143 1.143-1.143z"></path>
</symbol>
<symbol id="icon-transcript" viewBox="0 0 32 32">
<path fill="#9ea9ac" style="fill: var(--color3, #9ea9ac)" d="M3.429 2.286c-0.303 0-0.594 0.12-0.808 0.335s-0.335 0.505-0.335 0.808v25.143c0 0.303 0.12 0.594 0.335 0.808s0.505 0.335 0.808 0.335h14.857c0.631 0 1.143 0.512 1.143 1.143s-0.512 1.143-1.143 1.143h-14.857c-0.909 0-1.781-0.361-2.424-1.004s-1.004-1.515-1.004-2.424v-25.143c0-0.909 0.361-1.781 1.004-2.424s1.515-1.004 2.424-1.004h17.143c0.631 0 1.143 0.512 1.143 1.143s-0.512 1.143-1.143 1.143h-17.143z"></path>
<path fill="#9ea9ac" style="fill: var(--color3, #9ea9ac)" d="M27.429 0c0.433 0 0.829 0.245 1.022 0.632l3.429 6.857c0.079 0.159 0.121 0.334 0.121 0.511v19.429c0 1.212-0.482 2.375-1.339 3.232s-2.020 1.339-3.232 1.339-2.375-0.482-3.232-1.339c-0.857-0.857-1.339-2.020-1.339-3.232v-19.429c0-0.177 0.041-0.352 0.121-0.511l3.429-6.857c0.194-0.387 0.589-0.632 1.022-0.632zM25.143 8.27v19.159c0 0.606 0.241 1.188 0.67 1.616s1.010 0.669 1.616 0.669c0.606 0 1.188-0.241 1.616-0.669s0.67-1.010 0.67-1.616v-19.159l-2.286-4.571-2.286 4.571z"></path>
<path fill="#9ea9ac" style="fill: var(--color3, #9ea9ac)" d="M22.857 21.714c0-0.631 0.512-1.143 1.143-1.143h6.857c0.631 0 1.143 0.512 1.143 1.143s-0.512 1.143-1.143 1.143h-6.857c-0.631 0-1.143-0.512-1.143-1.143z"></path>
<path fill="#9ea9ac" style="fill: var(--color3, #9ea9ac)" d="M8 0c0.631 0 1.143 0.512 1.143 1.143v29.714c0 0.631-0.512 1.143-1.143 1.143s-1.143-0.512-1.143-1.143v-29.714c0-0.631 0.512-1.143 1.143-1.143z"></path>
<path fill="#9ea9ac" style="fill: var(--color3, #9ea9ac)" d="M12.572 9.143c0-0.631 0.512-1.143 1.143-1.143h4.571c0.631 0 1.143 0.512 1.143 1.143s-0.512 1.143-1.143 1.143h-4.571c-0.631 0-1.143-0.512-1.143-1.143z"></path>
</symbol>
<symbol id="icon-upcoming-classes" viewBox="0 0 32 32">
<path fill="#9ea9ac" style="fill: var(--color3, #9ea9ac)" d="M1.004 5.576c0.643-0.643 1.515-1.004 2.424-1.004 0.631 0 1.143 0.512 1.143 1.143s-0.512 1.143-1.143 1.143c-0.303 0-0.594 0.12-0.808 0.335s-0.335 0.505-0.335 0.808v20.571c0 0.303 0.12 0.594 0.335 0.808s0.505 0.335 0.808 0.335h25.143c0.303 0 0.594-0.12 0.808-0.335s0.335-0.505 0.335-0.808v-20.571c0-0.303-0.12-0.594-0.335-0.808s-0.505-0.335-0.808-0.335h-4.571c-0.631 0-1.143-0.512-1.143-1.143s0.512-1.143 1.143-1.143h4.571c0.909 0 1.781 0.361 2.424 1.004s1.004 1.515 1.004 2.424v20.571c0 0.909-0.361 1.781-1.004 2.424s-1.515 1.004-2.424 1.004h-25.143c-0.909 0-1.781-0.361-2.424-1.004s-1.004-1.515-1.004-2.424v-20.571c0-0.909 0.361-1.781 1.004-2.424z"></path>
<path fill="#9ea9ac" style="fill: var(--color3, #9ea9ac)" d="M8 0c0.631 0 1.143 0.512 1.143 1.143v9.143c0 0.631-0.512 1.143-1.143 1.143s-1.143-0.512-1.143-1.143v-9.143c0-0.631 0.512-1.143 1.143-1.143z"></path>
<path fill="#9ea9ac" style="fill: var(--color3, #9ea9ac)" d="M24 0c0.631 0 1.143 0.512 1.143 1.143v9.143c0 0.631-0.512 1.143-1.143 1.143s-1.143-0.512-1.143-1.143v-9.143c0-0.631 0.512-1.143 1.143-1.143z"></path>
<path fill="#9ea9ac" style="fill: var(--color3, #9ea9ac)" d="M6.857 5.714c0-0.631 0.512-1.143 1.143-1.143h11.429c0.631 0 1.143 0.512 1.143 1.143s-0.512 1.143-1.143 1.143h-11.429c-0.631 0-1.143-0.512-1.143-1.143z"></path>
<path fill="#9ea9ac" style="fill: var(--color3, #9ea9ac)" d="M5.714 17.143c0-1.262 1.023-2.286 2.286-2.286s2.286 1.023 2.286 2.286c0 1.262-1.023 2.286-2.286 2.286s-2.286-1.023-2.286-2.286z"></path>
<path fill="#9ea9ac" style="fill: var(--color3, #9ea9ac)" d="M13.714 17.143c0-1.262 1.023-2.286 2.286-2.286s2.286 1.023 2.286 2.286c0 1.262-1.023 2.286-2.286 2.286s-2.286-1.023-2.286-2.286z"></path>
<path fill="#9ea9ac" style="fill: var(--color3, #9ea9ac)" d="M21.714 17.143c0-1.262 1.023-2.286 2.286-2.286s2.286 1.023 2.286 2.286c0 1.262-1.023 2.286-2.286 2.286s-2.286-1.023-2.286-2.286z"></path>
<path fill="#9ea9ac" style="fill: var(--color3, #9ea9ac)" d="M5.714 24c0-1.262 1.023-2.286 2.286-2.286s2.286 1.023 2.286 2.286c0 1.262-1.023 2.286-2.286 2.286s-2.286-1.023-2.286-2.286z"></path>
</symbol>
<symbol id="icon-user" viewBox="0 0 32 32">
<path fill="#9ea9ac" style="fill: var(--color3, #9ea9ac)" d="M16 8c-2.525 0-4.571 2.047-4.571 4.571s2.047 4.571 4.571 4.571c2.525 0 4.571-2.047 4.571-4.571s-2.047-4.571-4.571-4.571zM9.143 12.571c0-3.787 3.070-6.857 6.857-6.857s6.857 3.070 6.857 6.857c0 3.787-3.070 6.857-6.857 6.857s-6.857-3.070-6.857-6.857z"></path>
<path fill="#9ea9ac" style="fill: var(--color3, #9ea9ac)" d="M16 22.846c-2.373 0-4.672 0.82-6.509 2.322s-3.099 3.592-3.571 5.917c-0.126 0.619-0.729 1.018-1.347 0.893s-1.018-0.729-0.893-1.347c0.577-2.842 2.119-5.397 4.364-7.232s5.056-2.838 7.956-2.838 5.711 1.003 7.956 2.838c2.245 1.835 3.787 4.39 4.364 7.232 0.126 0.619-0.274 1.222-0.893 1.347s-1.222-0.274-1.347-0.893c-0.472-2.325-1.734-4.416-3.571-5.917s-4.137-2.322-6.509-2.322z"></path>
<path fill="#9ea9ac" style="fill: var(--color3, #9ea9ac)" d="M3.429 2.286c-0.631 0-1.143 0.512-1.143 1.143v25.143c0 0.631 0.512 1.143 1.143 1.143h25.143c0.631 0 1.143-0.512 1.143-1.143v-25.143c0-0.631-0.512-1.143-1.143-1.143h-25.143zM0 3.429c0-1.894 1.535-3.429 3.429-3.429h25.143c1.894 0 3.429 1.535 3.429 3.429v25.143c0 1.894-1.535 3.429-3.429 3.429h-25.143c-1.894 0-3.429-1.535-3.429-3.429v-25.143z"></path>
</symbol>
<symbol id="icon-course-activity1" viewBox="0 0 32 32">
<path fill="#9ea9ac" style="fill: var(--color3, #9ea9ac)" d="M-0 30.857c0-0.631 0.512-1.143 1.143-1.143h29.714c0.631 0 1.143 0.512 1.143 1.143s-0.512 1.143-1.143 1.143h-29.714c-0.631 0-1.143-0.512-1.143-1.143z"></path>
<path fill="#9ea9ac" style="fill: var(--color3, #9ea9ac)" d="M-0 1.143c0-0.631 0.512-1.143 1.143-1.143h9.143c0.631 0 1.143 0.512 1.143 1.143v29.714c0 0.631-0.512 1.143-1.143 1.143s-1.143-0.512-1.143-1.143v-28.571h-6.857v28.571c0 0.631-0.512 1.143-1.143 1.143s-1.143-0.512-1.143-1.143v-29.714z"></path>
<path fill="#9ea9ac" style="fill: var(--color3, #9ea9ac)" d="M18.286 8c0-0.631 0.512-1.143 1.143-1.143h9.143c0.631 0 1.143 0.512 1.143 1.143v22.857c0 0.631-0.512 1.143-1.143 1.143s-1.143-0.512-1.143-1.143v-21.714h-6.857v21.714c0 0.631-0.512 1.143-1.143 1.143s-1.143-0.512-1.143-1.143v-22.857z"></path>
<path fill="#9ea9ac" style="fill: var(--color3, #9ea9ac)" d="M9.142 14.857c0-0.631 0.512-1.143 1.143-1.143h9.143c0.631 0 1.143 0.512 1.143 1.143v16c0 0.631-0.512 1.143-1.143 1.143s-1.143-0.512-1.143-1.143v-14.857h-6.857v14.857c0 0.631-0.512 1.143-1.143 1.143s-1.143-0.512-1.143-1.143v-16z"></path>
<path fill="#9ea9ac" style="fill: var(--color3, #9ea9ac)" d="M10.076 29.717h9.347v2.28h-9.347v-2.28z"></path>
</symbol>
</defs>
</svg>
